%FSLAX45Y45*%
G04 Gerber Fmt 4.5, Leading zero omitted, Abs format (unit mm)*
G04 Created by KiCad (PCBNEW (6.0.2)) date 2023-01-29 12:52:28*
%MOMM*%
%LPD*%
G01*
G04 APERTURE LIST*
%TA.AperFunction,Profile*%
%ADD10C,0.200000*%
%TD*%
%ADD11C,0.200000*%
%ADD12C,0.150000*%
%ADD13C,0.180000*%
%ADD14C,0.220000*%
G04 APERTURE END LIST*
D10*
X5000000Y-5300000D02*
X5000000Y-10300000D01*
X12900000Y-5000000D02*
X5300000Y-5000000D01*
X13200000Y-10300000D02*
X13200000Y-5300000D01*
X5300000Y-10600000D02*
X12900000Y-10600000D01*
X5000000Y-10300000D02*
G75*
G03*
X5300000Y-10600000I300000J0D01*
G01*
X12900000Y-10600000D02*
G75*
G03*
X13200000Y-10300000I0J300000D01*
G01*
X13200000Y-5300000D02*
G75*
G03*
X12900000Y-5000000I-300000J0D01*
G01*
X5300000Y-5000000D02*
G75*
G03*
X5000000Y-5300000I0J-300000D01*
G01*
D11*
D12*
X11052500Y-10024500D02*
X11202500Y-10174500D01*
X11202500Y-10024500D02*
X11052500Y-10174500D01*
X11537500Y-10024500D02*
X11687500Y-10174500D01*
X11687500Y-10024500D02*
X11537500Y-10174500D01*
D13*
X11187500Y-10402500D02*
G75*
G03*
X11187500Y-10402500I-90000J0D01*
G01*
X11732500Y-10402500D02*
G75*
G03*
X11732500Y-10402500I-90000J0D01*
G01*
D14*
X5300000Y-5190000D02*
X5300000Y-5410000D01*
X5190000Y-5300000D02*
X5410000Y-5300000D01*
X5300000Y-10190000D02*
X5300000Y-10410000D01*
X5190000Y-10300000D02*
X5410000Y-10300000D01*
X12900000Y-5190000D02*
X12900000Y-5410000D01*
X12790000Y-5300000D02*
X13010000Y-5300000D01*
X12900000Y-10190000D02*
X12900000Y-10410000D01*
X12790000Y-10300000D02*
X13010000Y-10300000D01*
D11*
X5247619Y-10920476D02*
X5247619Y-10720476D01*
X5295238Y-10720476D01*
X5323810Y-10730000D01*
X5342857Y-10749048D01*
X5352381Y-10768095D01*
X5361905Y-10806190D01*
X5361905Y-10834762D01*
X5352381Y-10872857D01*
X5342857Y-10891905D01*
X5323810Y-10910952D01*
X5295238Y-10920476D01*
X5247619Y-10920476D01*
X5447619Y-10920476D02*
X5447619Y-10787143D01*
X5447619Y-10825238D02*
X5457143Y-10806190D01*
X5466667Y-10796667D01*
X5485714Y-10787143D01*
X5504762Y-10787143D01*
X5571429Y-10920476D02*
X5571429Y-10787143D01*
X5571429Y-10720476D02*
X5561905Y-10730000D01*
X5571429Y-10739524D01*
X5580952Y-10730000D01*
X5571429Y-10720476D01*
X5571429Y-10739524D01*
X5695238Y-10920476D02*
X5676190Y-10910952D01*
X5666667Y-10891905D01*
X5666667Y-10720476D01*
X5800000Y-10920476D02*
X5780952Y-10910952D01*
X5771428Y-10891905D01*
X5771428Y-10720476D01*
X6028571Y-10920476D02*
X6028571Y-10720476D01*
X6095238Y-10863333D01*
X6161905Y-10720476D01*
X6161905Y-10920476D01*
X6342857Y-10920476D02*
X6342857Y-10815714D01*
X6333333Y-10796667D01*
X6314286Y-10787143D01*
X6276190Y-10787143D01*
X6257143Y-10796667D01*
X6342857Y-10910952D02*
X6323809Y-10920476D01*
X6276190Y-10920476D01*
X6257143Y-10910952D01*
X6247619Y-10891905D01*
X6247619Y-10872857D01*
X6257143Y-10853810D01*
X6276190Y-10844286D01*
X6323809Y-10844286D01*
X6342857Y-10834762D01*
X6438095Y-10787143D02*
X6438095Y-10987143D01*
X6438095Y-10796667D02*
X6457143Y-10787143D01*
X6495238Y-10787143D01*
X6514286Y-10796667D01*
X6523809Y-10806190D01*
X6533333Y-10825238D01*
X6533333Y-10882381D01*
X6523809Y-10901429D01*
X6514286Y-10910952D01*
X6495238Y-10920476D01*
X6457143Y-10920476D01*
X6438095Y-10910952D01*
X6619048Y-10901429D02*
X6628571Y-10910952D01*
X6619048Y-10920476D01*
X6609524Y-10910952D01*
X6619048Y-10901429D01*
X6619048Y-10920476D01*
X6619048Y-10796667D02*
X6628571Y-10806190D01*
X6619048Y-10815714D01*
X6609524Y-10806190D01*
X6619048Y-10796667D01*
X6619048Y-10815714D01*
D12*
X4840000Y-11175000D02*
X4990000Y-11325000D01*
X4990000Y-11175000D02*
X4840000Y-11325000D01*
D11*
X5352381Y-11340476D02*
X5238095Y-11340476D01*
X5295238Y-11340476D02*
X5295238Y-11140476D01*
X5276190Y-11169048D01*
X5257143Y-11188095D01*
X5238095Y-11197619D01*
X5438095Y-11321428D02*
X5447619Y-11330952D01*
X5438095Y-11340476D01*
X5428571Y-11330952D01*
X5438095Y-11321428D01*
X5438095Y-11340476D01*
X5628571Y-11140476D02*
X5533333Y-11140476D01*
X5523810Y-11235714D01*
X5533333Y-11226190D01*
X5552381Y-11216667D01*
X5600000Y-11216667D01*
X5619048Y-11226190D01*
X5628571Y-11235714D01*
X5638095Y-11254762D01*
X5638095Y-11302381D01*
X5628571Y-11321428D01*
X5619048Y-11330952D01*
X5600000Y-11340476D01*
X5552381Y-11340476D01*
X5533333Y-11330952D01*
X5523810Y-11321428D01*
X5761905Y-11140476D02*
X5780952Y-11140476D01*
X5800000Y-11150000D01*
X5809524Y-11159524D01*
X5819048Y-11178571D01*
X5828571Y-11216667D01*
X5828571Y-11264286D01*
X5819048Y-11302381D01*
X5809524Y-11321428D01*
X5800000Y-11330952D01*
X5780952Y-11340476D01*
X5761905Y-11340476D01*
X5742857Y-11330952D01*
X5733333Y-11321428D01*
X5723809Y-11302381D01*
X5714286Y-11264286D01*
X5714286Y-11216667D01*
X5723809Y-11178571D01*
X5733333Y-11159524D01*
X5742857Y-11150000D01*
X5761905Y-11140476D01*
X5952381Y-11140476D02*
X5971428Y-11140476D01*
X5990476Y-11150000D01*
X6000000Y-11159524D01*
X6009524Y-11178571D01*
X6019048Y-11216667D01*
X6019048Y-11264286D01*
X6009524Y-11302381D01*
X6000000Y-11321428D01*
X5990476Y-11330952D01*
X5971428Y-11340476D01*
X5952381Y-11340476D01*
X5933333Y-11330952D01*
X5923809Y-11321428D01*
X5914286Y-11302381D01*
X5904762Y-11264286D01*
X5904762Y-11216667D01*
X5914286Y-11178571D01*
X5923809Y-11159524D01*
X5933333Y-11150000D01*
X5952381Y-11140476D01*
X6104762Y-11340476D02*
X6104762Y-11207143D01*
X6104762Y-11226190D02*
X6114286Y-11216667D01*
X6133333Y-11207143D01*
X6161905Y-11207143D01*
X6180952Y-11216667D01*
X6190476Y-11235714D01*
X6190476Y-11340476D01*
X6190476Y-11235714D02*
X6200000Y-11216667D01*
X6219048Y-11207143D01*
X6247619Y-11207143D01*
X6266667Y-11216667D01*
X6276190Y-11235714D01*
X6276190Y-11340476D01*
X6371428Y-11340476D02*
X6371428Y-11207143D01*
X6371428Y-11226190D02*
X6380952Y-11216667D01*
X6400000Y-11207143D01*
X6428571Y-11207143D01*
X6447619Y-11216667D01*
X6457143Y-11235714D01*
X6457143Y-11340476D01*
X6457143Y-11235714D02*
X6466667Y-11216667D01*
X6485714Y-11207143D01*
X6514286Y-11207143D01*
X6533333Y-11216667D01*
X6542857Y-11235714D01*
X6542857Y-11340476D01*
X6933333Y-11130952D02*
X6761905Y-11388095D01*
X7190476Y-11140476D02*
X7209524Y-11140476D01*
X7228571Y-11150000D01*
X7238095Y-11159524D01*
X7247619Y-11178571D01*
X7257143Y-11216667D01*
X7257143Y-11264286D01*
X7247619Y-11302381D01*
X7238095Y-11321428D01*
X7228571Y-11330952D01*
X7209524Y-11340476D01*
X7190476Y-11340476D01*
X7171428Y-11330952D01*
X7161905Y-11321428D01*
X7152381Y-11302381D01*
X7142857Y-11264286D01*
X7142857Y-11216667D01*
X7152381Y-11178571D01*
X7161905Y-11159524D01*
X7171428Y-11150000D01*
X7190476Y-11140476D01*
X7342857Y-11321428D02*
X7352381Y-11330952D01*
X7342857Y-11340476D01*
X7333333Y-11330952D01*
X7342857Y-11321428D01*
X7342857Y-11340476D01*
X7476190Y-11140476D02*
X7495238Y-11140476D01*
X7514286Y-11150000D01*
X7523809Y-11159524D01*
X7533333Y-11178571D01*
X7542857Y-11216667D01*
X7542857Y-11264286D01*
X7533333Y-11302381D01*
X7523809Y-11321428D01*
X7514286Y-11330952D01*
X7495238Y-11340476D01*
X7476190Y-11340476D01*
X7457143Y-11330952D01*
X7447619Y-11321428D01*
X7438095Y-11302381D01*
X7428571Y-11264286D01*
X7428571Y-11216667D01*
X7438095Y-11178571D01*
X7447619Y-11159524D01*
X7457143Y-11150000D01*
X7476190Y-11140476D01*
X7723809Y-11140476D02*
X7628571Y-11140476D01*
X7619048Y-11235714D01*
X7628571Y-11226190D01*
X7647619Y-11216667D01*
X7695238Y-11216667D01*
X7714286Y-11226190D01*
X7723809Y-11235714D01*
X7733333Y-11254762D01*
X7733333Y-11302381D01*
X7723809Y-11321428D01*
X7714286Y-11330952D01*
X7695238Y-11340476D01*
X7647619Y-11340476D01*
X7628571Y-11330952D01*
X7619048Y-11321428D01*
X7828571Y-11340476D02*
X7866667Y-11340476D01*
X7885714Y-11330952D01*
X7895238Y-11321428D01*
X7914286Y-11292857D01*
X7923809Y-11254762D01*
X7923809Y-11178571D01*
X7914286Y-11159524D01*
X7904762Y-11150000D01*
X7885714Y-11140476D01*
X7847619Y-11140476D01*
X7828571Y-11150000D01*
X7819048Y-11159524D01*
X7809524Y-11178571D01*
X7809524Y-11226190D01*
X7819048Y-11245238D01*
X7828571Y-11254762D01*
X7847619Y-11264286D01*
X7885714Y-11264286D01*
X7904762Y-11254762D01*
X7914286Y-11245238D01*
X7923809Y-11226190D01*
X8114286Y-11340476D02*
X8000000Y-11340476D01*
X8057143Y-11340476D02*
X8057143Y-11140476D01*
X8038095Y-11169048D01*
X8019048Y-11188095D01*
X8000000Y-11197619D01*
X8190476Y-11140476D02*
X8190476Y-11178571D01*
X8266667Y-11140476D02*
X8266667Y-11178571D01*
X8561905Y-11416667D02*
X8552381Y-11407143D01*
X8533333Y-11378571D01*
X8523810Y-11359524D01*
X8514286Y-11330952D01*
X8504762Y-11283333D01*
X8504762Y-11245238D01*
X8514286Y-11197619D01*
X8523810Y-11169048D01*
X8533333Y-11150000D01*
X8552381Y-11121429D01*
X8561905Y-11111905D01*
X8628571Y-11159524D02*
X8638095Y-11150000D01*
X8657143Y-11140476D01*
X8704762Y-11140476D01*
X8723810Y-11150000D01*
X8733333Y-11159524D01*
X8742857Y-11178571D01*
X8742857Y-11197619D01*
X8733333Y-11226190D01*
X8619048Y-11340476D01*
X8742857Y-11340476D01*
X8980952Y-11340476D02*
X8980952Y-11140476D01*
X9066667Y-11340476D02*
X9066667Y-11235714D01*
X9057143Y-11216667D01*
X9038095Y-11207143D01*
X9009524Y-11207143D01*
X8990476Y-11216667D01*
X8980952Y-11226190D01*
X9190476Y-11340476D02*
X9171429Y-11330952D01*
X9161905Y-11321428D01*
X9152381Y-11302381D01*
X9152381Y-11245238D01*
X9161905Y-11226190D01*
X9171429Y-11216667D01*
X9190476Y-11207143D01*
X9219048Y-11207143D01*
X9238095Y-11216667D01*
X9247619Y-11226190D01*
X9257143Y-11245238D01*
X9257143Y-11302381D01*
X9247619Y-11321428D01*
X9238095Y-11330952D01*
X9219048Y-11340476D01*
X9190476Y-11340476D01*
X9371429Y-11340476D02*
X9352381Y-11330952D01*
X9342857Y-11311905D01*
X9342857Y-11140476D01*
X9523810Y-11330952D02*
X9504762Y-11340476D01*
X9466667Y-11340476D01*
X9447619Y-11330952D01*
X9438095Y-11311905D01*
X9438095Y-11235714D01*
X9447619Y-11216667D01*
X9466667Y-11207143D01*
X9504762Y-11207143D01*
X9523810Y-11216667D01*
X9533333Y-11235714D01*
X9533333Y-11254762D01*
X9438095Y-11273809D01*
X9609524Y-11330952D02*
X9628571Y-11340476D01*
X9666667Y-11340476D01*
X9685714Y-11330952D01*
X9695238Y-11311905D01*
X9695238Y-11302381D01*
X9685714Y-11283333D01*
X9666667Y-11273809D01*
X9638095Y-11273809D01*
X9619048Y-11264286D01*
X9609524Y-11245238D01*
X9609524Y-11235714D01*
X9619048Y-11216667D01*
X9638095Y-11207143D01*
X9666667Y-11207143D01*
X9685714Y-11216667D01*
X9761905Y-11416667D02*
X9771429Y-11407143D01*
X9790476Y-11378571D01*
X9800000Y-11359524D01*
X9809524Y-11330952D01*
X9819048Y-11283333D01*
X9819048Y-11245238D01*
X9809524Y-11197619D01*
X9800000Y-11169048D01*
X9790476Y-11150000D01*
X9771429Y-11121429D01*
X9761905Y-11111905D01*
X10123810Y-11416667D02*
X10114286Y-11407143D01*
X10095238Y-11378571D01*
X10085714Y-11359524D01*
X10076190Y-11330952D01*
X10066667Y-11283333D01*
X10066667Y-11245238D01*
X10076190Y-11197619D01*
X10085714Y-11169048D01*
X10095238Y-11150000D01*
X10114286Y-11121429D01*
X10123810Y-11111905D01*
X10200000Y-11207143D02*
X10200000Y-11340476D01*
X10200000Y-11226190D02*
X10209524Y-11216667D01*
X10228571Y-11207143D01*
X10257143Y-11207143D01*
X10276190Y-11216667D01*
X10285714Y-11235714D01*
X10285714Y-11340476D01*
X10409524Y-11340476D02*
X10390476Y-11330952D01*
X10380952Y-11321428D01*
X10371429Y-11302381D01*
X10371429Y-11245238D01*
X10380952Y-11226190D01*
X10390476Y-11216667D01*
X10409524Y-11207143D01*
X10438095Y-11207143D01*
X10457143Y-11216667D01*
X10466667Y-11226190D01*
X10476190Y-11245238D01*
X10476190Y-11302381D01*
X10466667Y-11321428D01*
X10457143Y-11330952D01*
X10438095Y-11340476D01*
X10409524Y-11340476D01*
X10533333Y-11207143D02*
X10609524Y-11207143D01*
X10561905Y-11140476D02*
X10561905Y-11311905D01*
X10571429Y-11330952D01*
X10590476Y-11340476D01*
X10609524Y-11340476D01*
X10828571Y-11207143D02*
X10828571Y-11407143D01*
X10828571Y-11216667D02*
X10847619Y-11207143D01*
X10885714Y-11207143D01*
X10904762Y-11216667D01*
X10914286Y-11226190D01*
X10923810Y-11245238D01*
X10923810Y-11302381D01*
X10914286Y-11321428D01*
X10904762Y-11330952D01*
X10885714Y-11340476D01*
X10847619Y-11340476D01*
X10828571Y-11330952D01*
X11038095Y-11340476D02*
X11019048Y-11330952D01*
X11009524Y-11311905D01*
X11009524Y-11140476D01*
X11200000Y-11340476D02*
X11200000Y-11235714D01*
X11190476Y-11216667D01*
X11171429Y-11207143D01*
X11133333Y-11207143D01*
X11114286Y-11216667D01*
X11200000Y-11330952D02*
X11180952Y-11340476D01*
X11133333Y-11340476D01*
X11114286Y-11330952D01*
X11104762Y-11311905D01*
X11104762Y-11292857D01*
X11114286Y-11273809D01*
X11133333Y-11264286D01*
X11180952Y-11264286D01*
X11200000Y-11254762D01*
X11266667Y-11207143D02*
X11342857Y-11207143D01*
X11295238Y-11140476D02*
X11295238Y-11311905D01*
X11304762Y-11330952D01*
X11323809Y-11340476D01*
X11342857Y-11340476D01*
X11485714Y-11330952D02*
X11466667Y-11340476D01*
X11428571Y-11340476D01*
X11409524Y-11330952D01*
X11400000Y-11311905D01*
X11400000Y-11235714D01*
X11409524Y-11216667D01*
X11428571Y-11207143D01*
X11466667Y-11207143D01*
X11485714Y-11216667D01*
X11495238Y-11235714D01*
X11495238Y-11254762D01*
X11400000Y-11273809D01*
X11666667Y-11340476D02*
X11666667Y-11140476D01*
X11666667Y-11330952D02*
X11647619Y-11340476D01*
X11609524Y-11340476D01*
X11590476Y-11330952D01*
X11580952Y-11321428D01*
X11571428Y-11302381D01*
X11571428Y-11245238D01*
X11580952Y-11226190D01*
X11590476Y-11216667D01*
X11609524Y-11207143D01*
X11647619Y-11207143D01*
X11666667Y-11216667D01*
X11742857Y-11416667D02*
X11752381Y-11407143D01*
X11771428Y-11378571D01*
X11780952Y-11359524D01*
X11790476Y-11330952D01*
X11800000Y-11283333D01*
X11800000Y-11245238D01*
X11790476Y-11197619D01*
X11780952Y-11169048D01*
X11771428Y-11150000D01*
X11752381Y-11121429D01*
X11742857Y-11111905D01*
D13*
X4990000Y-11520000D02*
G75*
G03*
X4990000Y-11520000I-90000J0D01*
G01*
D11*
X5352381Y-11610476D02*
X5238095Y-11610476D01*
X5295238Y-11610476D02*
X5295238Y-11410476D01*
X5276190Y-11439048D01*
X5257143Y-11458095D01*
X5238095Y-11467619D01*
X5438095Y-11591428D02*
X5447619Y-11600952D01*
X5438095Y-11610476D01*
X5428571Y-11600952D01*
X5438095Y-11591428D01*
X5438095Y-11610476D01*
X5561905Y-11496190D02*
X5542857Y-11486667D01*
X5533333Y-11477143D01*
X5523810Y-11458095D01*
X5523810Y-11448571D01*
X5533333Y-11429524D01*
X5542857Y-11420000D01*
X5561905Y-11410476D01*
X5600000Y-11410476D01*
X5619048Y-11420000D01*
X5628571Y-11429524D01*
X5638095Y-11448571D01*
X5638095Y-11458095D01*
X5628571Y-11477143D01*
X5619048Y-11486667D01*
X5600000Y-11496190D01*
X5561905Y-11496190D01*
X5542857Y-11505714D01*
X5533333Y-11515238D01*
X5523810Y-11534286D01*
X5523810Y-11572381D01*
X5533333Y-11591428D01*
X5542857Y-11600952D01*
X5561905Y-11610476D01*
X5600000Y-11610476D01*
X5619048Y-11600952D01*
X5628571Y-11591428D01*
X5638095Y-11572381D01*
X5638095Y-11534286D01*
X5628571Y-11515238D01*
X5619048Y-11505714D01*
X5600000Y-11496190D01*
X5761905Y-11410476D02*
X5780952Y-11410476D01*
X5800000Y-11420000D01*
X5809524Y-11429524D01*
X5819048Y-11448571D01*
X5828571Y-11486667D01*
X5828571Y-11534286D01*
X5819048Y-11572381D01*
X5809524Y-11591428D01*
X5800000Y-11600952D01*
X5780952Y-11610476D01*
X5761905Y-11610476D01*
X5742857Y-11600952D01*
X5733333Y-11591428D01*
X5723809Y-11572381D01*
X5714286Y-11534286D01*
X5714286Y-11486667D01*
X5723809Y-11448571D01*
X5733333Y-11429524D01*
X5742857Y-11420000D01*
X5761905Y-11410476D01*
X5952381Y-11410476D02*
X5971428Y-11410476D01*
X5990476Y-11420000D01*
X6000000Y-11429524D01*
X6009524Y-11448571D01*
X6019048Y-11486667D01*
X6019048Y-11534286D01*
X6009524Y-11572381D01*
X6000000Y-11591428D01*
X5990476Y-11600952D01*
X5971428Y-11610476D01*
X5952381Y-11610476D01*
X5933333Y-11600952D01*
X5923809Y-11591428D01*
X5914286Y-11572381D01*
X5904762Y-11534286D01*
X5904762Y-11486667D01*
X5914286Y-11448571D01*
X5923809Y-11429524D01*
X5933333Y-11420000D01*
X5952381Y-11410476D01*
X6104762Y-11610476D02*
X6104762Y-11477143D01*
X6104762Y-11496190D02*
X6114286Y-11486667D01*
X6133333Y-11477143D01*
X6161905Y-11477143D01*
X6180952Y-11486667D01*
X6190476Y-11505714D01*
X6190476Y-11610476D01*
X6190476Y-11505714D02*
X6200000Y-11486667D01*
X6219048Y-11477143D01*
X6247619Y-11477143D01*
X6266667Y-11486667D01*
X6276190Y-11505714D01*
X6276190Y-11610476D01*
X6371428Y-11610476D02*
X6371428Y-11477143D01*
X6371428Y-11496190D02*
X6380952Y-11486667D01*
X6400000Y-11477143D01*
X6428571Y-11477143D01*
X6447619Y-11486667D01*
X6457143Y-11505714D01*
X6457143Y-11610476D01*
X6457143Y-11505714D02*
X6466667Y-11486667D01*
X6485714Y-11477143D01*
X6514286Y-11477143D01*
X6533333Y-11486667D01*
X6542857Y-11505714D01*
X6542857Y-11610476D01*
X6933333Y-11400952D02*
X6761905Y-11658095D01*
X7190476Y-11410476D02*
X7209524Y-11410476D01*
X7228571Y-11420000D01*
X7238095Y-11429524D01*
X7247619Y-11448571D01*
X7257143Y-11486667D01*
X7257143Y-11534286D01*
X7247619Y-11572381D01*
X7238095Y-11591428D01*
X7228571Y-11600952D01*
X7209524Y-11610476D01*
X7190476Y-11610476D01*
X7171428Y-11600952D01*
X7161905Y-11591428D01*
X7152381Y-11572381D01*
X7142857Y-11534286D01*
X7142857Y-11486667D01*
X7152381Y-11448571D01*
X7161905Y-11429524D01*
X7171428Y-11420000D01*
X7190476Y-11410476D01*
X7342857Y-11591428D02*
X7352381Y-11600952D01*
X7342857Y-11610476D01*
X7333333Y-11600952D01*
X7342857Y-11591428D01*
X7342857Y-11610476D01*
X7476190Y-11410476D02*
X7495238Y-11410476D01*
X7514286Y-11420000D01*
X7523809Y-11429524D01*
X7533333Y-11448571D01*
X7542857Y-11486667D01*
X7542857Y-11534286D01*
X7533333Y-11572381D01*
X7523809Y-11591428D01*
X7514286Y-11600952D01*
X7495238Y-11610476D01*
X7476190Y-11610476D01*
X7457143Y-11600952D01*
X7447619Y-11591428D01*
X7438095Y-11572381D01*
X7428571Y-11534286D01*
X7428571Y-11486667D01*
X7438095Y-11448571D01*
X7447619Y-11429524D01*
X7457143Y-11420000D01*
X7476190Y-11410476D01*
X7609524Y-11410476D02*
X7742857Y-11410476D01*
X7657143Y-11610476D01*
X7857143Y-11410476D02*
X7876190Y-11410476D01*
X7895238Y-11420000D01*
X7904762Y-11429524D01*
X7914286Y-11448571D01*
X7923809Y-11486667D01*
X7923809Y-11534286D01*
X7914286Y-11572381D01*
X7904762Y-11591428D01*
X7895238Y-11600952D01*
X7876190Y-11610476D01*
X7857143Y-11610476D01*
X7838095Y-11600952D01*
X7828571Y-11591428D01*
X7819048Y-11572381D01*
X7809524Y-11534286D01*
X7809524Y-11486667D01*
X7819048Y-11448571D01*
X7828571Y-11429524D01*
X7838095Y-11420000D01*
X7857143Y-11410476D01*
X8019048Y-11610476D02*
X8057143Y-11610476D01*
X8076190Y-11600952D01*
X8085714Y-11591428D01*
X8104762Y-11562857D01*
X8114286Y-11524762D01*
X8114286Y-11448571D01*
X8104762Y-11429524D01*
X8095238Y-11420000D01*
X8076190Y-11410476D01*
X8038095Y-11410476D01*
X8019048Y-11420000D01*
X8009524Y-11429524D01*
X8000000Y-11448571D01*
X8000000Y-11496190D01*
X8009524Y-11515238D01*
X8019048Y-11524762D01*
X8038095Y-11534286D01*
X8076190Y-11534286D01*
X8095238Y-11524762D01*
X8104762Y-11515238D01*
X8114286Y-11496190D01*
X8190476Y-11410476D02*
X8190476Y-11448571D01*
X8266667Y-11410476D02*
X8266667Y-11448571D01*
X8561905Y-11686667D02*
X8552381Y-11677143D01*
X8533333Y-11648571D01*
X8523810Y-11629524D01*
X8514286Y-11600952D01*
X8504762Y-11553333D01*
X8504762Y-11515238D01*
X8514286Y-11467619D01*
X8523810Y-11439048D01*
X8533333Y-11420000D01*
X8552381Y-11391428D01*
X8561905Y-11381905D01*
X8628571Y-11429524D02*
X8638095Y-11420000D01*
X8657143Y-11410476D01*
X8704762Y-11410476D01*
X8723810Y-11420000D01*
X8733333Y-11429524D01*
X8742857Y-11448571D01*
X8742857Y-11467619D01*
X8733333Y-11496190D01*
X8619048Y-11610476D01*
X8742857Y-11610476D01*
X8980952Y-11610476D02*
X8980952Y-11410476D01*
X9066667Y-11610476D02*
X9066667Y-11505714D01*
X9057143Y-11486667D01*
X9038095Y-11477143D01*
X9009524Y-11477143D01*
X8990476Y-11486667D01*
X8980952Y-11496190D01*
X9190476Y-11610476D02*
X9171429Y-11600952D01*
X9161905Y-11591428D01*
X9152381Y-11572381D01*
X9152381Y-11515238D01*
X9161905Y-11496190D01*
X9171429Y-11486667D01*
X9190476Y-11477143D01*
X9219048Y-11477143D01*
X9238095Y-11486667D01*
X9247619Y-11496190D01*
X9257143Y-11515238D01*
X9257143Y-11572381D01*
X9247619Y-11591428D01*
X9238095Y-11600952D01*
X9219048Y-11610476D01*
X9190476Y-11610476D01*
X9371429Y-11610476D02*
X9352381Y-11600952D01*
X9342857Y-11581905D01*
X9342857Y-11410476D01*
X9523810Y-11600952D02*
X9504762Y-11610476D01*
X9466667Y-11610476D01*
X9447619Y-11600952D01*
X9438095Y-11581905D01*
X9438095Y-11505714D01*
X9447619Y-11486667D01*
X9466667Y-11477143D01*
X9504762Y-11477143D01*
X9523810Y-11486667D01*
X9533333Y-11505714D01*
X9533333Y-11524762D01*
X9438095Y-11543809D01*
X9609524Y-11600952D02*
X9628571Y-11610476D01*
X9666667Y-11610476D01*
X9685714Y-11600952D01*
X9695238Y-11581905D01*
X9695238Y-11572381D01*
X9685714Y-11553333D01*
X9666667Y-11543809D01*
X9638095Y-11543809D01*
X9619048Y-11534286D01*
X9609524Y-11515238D01*
X9609524Y-11505714D01*
X9619048Y-11486667D01*
X9638095Y-11477143D01*
X9666667Y-11477143D01*
X9685714Y-11486667D01*
X9761905Y-11686667D02*
X9771429Y-11677143D01*
X9790476Y-11648571D01*
X9800000Y-11629524D01*
X9809524Y-11600952D01*
X9819048Y-11553333D01*
X9819048Y-11515238D01*
X9809524Y-11467619D01*
X9800000Y-11439048D01*
X9790476Y-11420000D01*
X9771429Y-11391428D01*
X9761905Y-11381905D01*
X10123810Y-11686667D02*
X10114286Y-11677143D01*
X10095238Y-11648571D01*
X10085714Y-11629524D01*
X10076190Y-11600952D01*
X10066667Y-11553333D01*
X10066667Y-11515238D01*
X10076190Y-11467619D01*
X10085714Y-11439048D01*
X10095238Y-11420000D01*
X10114286Y-11391428D01*
X10123810Y-11381905D01*
X10200000Y-11477143D02*
X10200000Y-11610476D01*
X10200000Y-11496190D02*
X10209524Y-11486667D01*
X10228571Y-11477143D01*
X10257143Y-11477143D01*
X10276190Y-11486667D01*
X10285714Y-11505714D01*
X10285714Y-11610476D01*
X10409524Y-11610476D02*
X10390476Y-11600952D01*
X10380952Y-11591428D01*
X10371429Y-11572381D01*
X10371429Y-11515238D01*
X10380952Y-11496190D01*
X10390476Y-11486667D01*
X10409524Y-11477143D01*
X10438095Y-11477143D01*
X10457143Y-11486667D01*
X10466667Y-11496190D01*
X10476190Y-11515238D01*
X10476190Y-11572381D01*
X10466667Y-11591428D01*
X10457143Y-11600952D01*
X10438095Y-11610476D01*
X10409524Y-11610476D01*
X10533333Y-11477143D02*
X10609524Y-11477143D01*
X10561905Y-11410476D02*
X10561905Y-11581905D01*
X10571429Y-11600952D01*
X10590476Y-11610476D01*
X10609524Y-11610476D01*
X10828571Y-11477143D02*
X10828571Y-11677143D01*
X10828571Y-11486667D02*
X10847619Y-11477143D01*
X10885714Y-11477143D01*
X10904762Y-11486667D01*
X10914286Y-11496190D01*
X10923810Y-11515238D01*
X10923810Y-11572381D01*
X10914286Y-11591428D01*
X10904762Y-11600952D01*
X10885714Y-11610476D01*
X10847619Y-11610476D01*
X10828571Y-11600952D01*
X11038095Y-11610476D02*
X11019048Y-11600952D01*
X11009524Y-11581905D01*
X11009524Y-11410476D01*
X11200000Y-11610476D02*
X11200000Y-11505714D01*
X11190476Y-11486667D01*
X11171429Y-11477143D01*
X11133333Y-11477143D01*
X11114286Y-11486667D01*
X11200000Y-11600952D02*
X11180952Y-11610476D01*
X11133333Y-11610476D01*
X11114286Y-11600952D01*
X11104762Y-11581905D01*
X11104762Y-11562857D01*
X11114286Y-11543809D01*
X11133333Y-11534286D01*
X11180952Y-11534286D01*
X11200000Y-11524762D01*
X11266667Y-11477143D02*
X11342857Y-11477143D01*
X11295238Y-11410476D02*
X11295238Y-11581905D01*
X11304762Y-11600952D01*
X11323809Y-11610476D01*
X11342857Y-11610476D01*
X11485714Y-11600952D02*
X11466667Y-11610476D01*
X11428571Y-11610476D01*
X11409524Y-11600952D01*
X11400000Y-11581905D01*
X11400000Y-11505714D01*
X11409524Y-11486667D01*
X11428571Y-11477143D01*
X11466667Y-11477143D01*
X11485714Y-11486667D01*
X11495238Y-11505714D01*
X11495238Y-11524762D01*
X11400000Y-11543809D01*
X11666667Y-11610476D02*
X11666667Y-11410476D01*
X11666667Y-11600952D02*
X11647619Y-11610476D01*
X11609524Y-11610476D01*
X11590476Y-11600952D01*
X11580952Y-11591428D01*
X11571428Y-11572381D01*
X11571428Y-11515238D01*
X11580952Y-11496190D01*
X11590476Y-11486667D01*
X11609524Y-11477143D01*
X11647619Y-11477143D01*
X11666667Y-11486667D01*
X11742857Y-11686667D02*
X11752381Y-11677143D01*
X11771428Y-11648571D01*
X11780952Y-11629524D01*
X11790476Y-11600952D01*
X11800000Y-11553333D01*
X11800000Y-11515238D01*
X11790476Y-11467619D01*
X11780952Y-11439048D01*
X11771428Y-11420000D01*
X11752381Y-11391428D01*
X11742857Y-11381905D01*
X4890000Y-11720000D02*
X4890000Y-11920000D01*
X4790000Y-11820000D02*
X4990000Y-11820000D01*
X5238095Y-11729524D02*
X5247619Y-11720000D01*
X5266667Y-11710476D01*
X5314286Y-11710476D01*
X5333333Y-11720000D01*
X5342857Y-11729524D01*
X5352381Y-11748571D01*
X5352381Y-11767619D01*
X5342857Y-11796190D01*
X5228571Y-11910476D01*
X5352381Y-11910476D01*
X5438095Y-11891428D02*
X5447619Y-11900952D01*
X5438095Y-11910476D01*
X5428571Y-11900952D01*
X5438095Y-11891428D01*
X5438095Y-11910476D01*
X5523810Y-11729524D02*
X5533333Y-11720000D01*
X5552381Y-11710476D01*
X5600000Y-11710476D01*
X5619048Y-11720000D01*
X5628571Y-11729524D01*
X5638095Y-11748571D01*
X5638095Y-11767619D01*
X5628571Y-11796190D01*
X5514286Y-11910476D01*
X5638095Y-11910476D01*
X5761905Y-11710476D02*
X5780952Y-11710476D01*
X5800000Y-11720000D01*
X5809524Y-11729524D01*
X5819048Y-11748571D01*
X5828571Y-11786667D01*
X5828571Y-11834286D01*
X5819048Y-11872381D01*
X5809524Y-11891428D01*
X5800000Y-11900952D01*
X5780952Y-11910476D01*
X5761905Y-11910476D01*
X5742857Y-11900952D01*
X5733333Y-11891428D01*
X5723809Y-11872381D01*
X5714286Y-11834286D01*
X5714286Y-11786667D01*
X5723809Y-11748571D01*
X5733333Y-11729524D01*
X5742857Y-11720000D01*
X5761905Y-11710476D01*
X5952381Y-11710476D02*
X5971428Y-11710476D01*
X5990476Y-11720000D01*
X6000000Y-11729524D01*
X6009524Y-11748571D01*
X6019048Y-11786667D01*
X6019048Y-11834286D01*
X6009524Y-11872381D01*
X6000000Y-11891428D01*
X5990476Y-11900952D01*
X5971428Y-11910476D01*
X5952381Y-11910476D01*
X5933333Y-11900952D01*
X5923809Y-11891428D01*
X5914286Y-11872381D01*
X5904762Y-11834286D01*
X5904762Y-11786667D01*
X5914286Y-11748571D01*
X5923809Y-11729524D01*
X5933333Y-11720000D01*
X5952381Y-11710476D01*
X6104762Y-11910476D02*
X6104762Y-11777143D01*
X6104762Y-11796190D02*
X6114286Y-11786667D01*
X6133333Y-11777143D01*
X6161905Y-11777143D01*
X6180952Y-11786667D01*
X6190476Y-11805714D01*
X6190476Y-11910476D01*
X6190476Y-11805714D02*
X6200000Y-11786667D01*
X6219048Y-11777143D01*
X6247619Y-11777143D01*
X6266667Y-11786667D01*
X6276190Y-11805714D01*
X6276190Y-11910476D01*
X6371428Y-11910476D02*
X6371428Y-11777143D01*
X6371428Y-11796190D02*
X6380952Y-11786667D01*
X6400000Y-11777143D01*
X6428571Y-11777143D01*
X6447619Y-11786667D01*
X6457143Y-11805714D01*
X6457143Y-11910476D01*
X6457143Y-11805714D02*
X6466667Y-11786667D01*
X6485714Y-11777143D01*
X6514286Y-11777143D01*
X6533333Y-11786667D01*
X6542857Y-11805714D01*
X6542857Y-11910476D01*
X6933333Y-11700952D02*
X6761905Y-11958095D01*
X7190476Y-11710476D02*
X7209524Y-11710476D01*
X7228571Y-11720000D01*
X7238095Y-11729524D01*
X7247619Y-11748571D01*
X7257143Y-11786667D01*
X7257143Y-11834286D01*
X7247619Y-11872381D01*
X7238095Y-11891428D01*
X7228571Y-11900952D01*
X7209524Y-11910476D01*
X7190476Y-11910476D01*
X7171428Y-11900952D01*
X7161905Y-11891428D01*
X7152381Y-11872381D01*
X7142857Y-11834286D01*
X7142857Y-11786667D01*
X7152381Y-11748571D01*
X7161905Y-11729524D01*
X7171428Y-11720000D01*
X7190476Y-11710476D01*
X7342857Y-11891428D02*
X7352381Y-11900952D01*
X7342857Y-11910476D01*
X7333333Y-11900952D01*
X7342857Y-11891428D01*
X7342857Y-11910476D01*
X7476190Y-11710476D02*
X7495238Y-11710476D01*
X7514286Y-11720000D01*
X7523809Y-11729524D01*
X7533333Y-11748571D01*
X7542857Y-11786667D01*
X7542857Y-11834286D01*
X7533333Y-11872381D01*
X7523809Y-11891428D01*
X7514286Y-11900952D01*
X7495238Y-11910476D01*
X7476190Y-11910476D01*
X7457143Y-11900952D01*
X7447619Y-11891428D01*
X7438095Y-11872381D01*
X7428571Y-11834286D01*
X7428571Y-11786667D01*
X7438095Y-11748571D01*
X7447619Y-11729524D01*
X7457143Y-11720000D01*
X7476190Y-11710476D01*
X7657143Y-11796190D02*
X7638095Y-11786667D01*
X7628571Y-11777143D01*
X7619048Y-11758095D01*
X7619048Y-11748571D01*
X7628571Y-11729524D01*
X7638095Y-11720000D01*
X7657143Y-11710476D01*
X7695238Y-11710476D01*
X7714286Y-11720000D01*
X7723809Y-11729524D01*
X7733333Y-11748571D01*
X7733333Y-11758095D01*
X7723809Y-11777143D01*
X7714286Y-11786667D01*
X7695238Y-11796190D01*
X7657143Y-11796190D01*
X7638095Y-11805714D01*
X7628571Y-11815238D01*
X7619048Y-11834286D01*
X7619048Y-11872381D01*
X7628571Y-11891428D01*
X7638095Y-11900952D01*
X7657143Y-11910476D01*
X7695238Y-11910476D01*
X7714286Y-11900952D01*
X7723809Y-11891428D01*
X7733333Y-11872381D01*
X7733333Y-11834286D01*
X7723809Y-11815238D01*
X7714286Y-11805714D01*
X7695238Y-11796190D01*
X7904762Y-11710476D02*
X7866667Y-11710476D01*
X7847619Y-11720000D01*
X7838095Y-11729524D01*
X7819048Y-11758095D01*
X7809524Y-11796190D01*
X7809524Y-11872381D01*
X7819048Y-11891428D01*
X7828571Y-11900952D01*
X7847619Y-11910476D01*
X7885714Y-11910476D01*
X7904762Y-11900952D01*
X7914286Y-11891428D01*
X7923809Y-11872381D01*
X7923809Y-11824762D01*
X7914286Y-11805714D01*
X7904762Y-11796190D01*
X7885714Y-11786667D01*
X7847619Y-11786667D01*
X7828571Y-11796190D01*
X7819048Y-11805714D01*
X7809524Y-11824762D01*
X8095238Y-11710476D02*
X8057143Y-11710476D01*
X8038095Y-11720000D01*
X8028571Y-11729524D01*
X8009524Y-11758095D01*
X8000000Y-11796190D01*
X8000000Y-11872381D01*
X8009524Y-11891428D01*
X8019048Y-11900952D01*
X8038095Y-11910476D01*
X8076190Y-11910476D01*
X8095238Y-11900952D01*
X8104762Y-11891428D01*
X8114286Y-11872381D01*
X8114286Y-11824762D01*
X8104762Y-11805714D01*
X8095238Y-11796190D01*
X8076190Y-11786667D01*
X8038095Y-11786667D01*
X8019048Y-11796190D01*
X8009524Y-11805714D01*
X8000000Y-11824762D01*
X8190476Y-11710476D02*
X8190476Y-11748571D01*
X8266667Y-11710476D02*
X8266667Y-11748571D01*
X8561905Y-11986667D02*
X8552381Y-11977143D01*
X8533333Y-11948571D01*
X8523810Y-11929524D01*
X8514286Y-11900952D01*
X8504762Y-11853333D01*
X8504762Y-11815238D01*
X8514286Y-11767619D01*
X8523810Y-11739048D01*
X8533333Y-11720000D01*
X8552381Y-11691428D01*
X8561905Y-11681905D01*
X8723810Y-11777143D02*
X8723810Y-11910476D01*
X8676190Y-11700952D02*
X8628571Y-11843809D01*
X8752381Y-11843809D01*
X8980952Y-11910476D02*
X8980952Y-11710476D01*
X9066667Y-11910476D02*
X9066667Y-11805714D01*
X9057143Y-11786667D01*
X9038095Y-11777143D01*
X9009524Y-11777143D01*
X8990476Y-11786667D01*
X8980952Y-11796190D01*
X9190476Y-11910476D02*
X9171429Y-11900952D01*
X9161905Y-11891428D01*
X9152381Y-11872381D01*
X9152381Y-11815238D01*
X9161905Y-11796190D01*
X9171429Y-11786667D01*
X9190476Y-11777143D01*
X9219048Y-11777143D01*
X9238095Y-11786667D01*
X9247619Y-11796190D01*
X9257143Y-11815238D01*
X9257143Y-11872381D01*
X9247619Y-11891428D01*
X9238095Y-11900952D01*
X9219048Y-11910476D01*
X9190476Y-11910476D01*
X9371429Y-11910476D02*
X9352381Y-11900952D01*
X9342857Y-11881905D01*
X9342857Y-11710476D01*
X9523810Y-11900952D02*
X9504762Y-11910476D01*
X9466667Y-11910476D01*
X9447619Y-11900952D01*
X9438095Y-11881905D01*
X9438095Y-11805714D01*
X9447619Y-11786667D01*
X9466667Y-11777143D01*
X9504762Y-11777143D01*
X9523810Y-11786667D01*
X9533333Y-11805714D01*
X9533333Y-11824762D01*
X9438095Y-11843809D01*
X9609524Y-11900952D02*
X9628571Y-11910476D01*
X9666667Y-11910476D01*
X9685714Y-11900952D01*
X9695238Y-11881905D01*
X9695238Y-11872381D01*
X9685714Y-11853333D01*
X9666667Y-11843809D01*
X9638095Y-11843809D01*
X9619048Y-11834286D01*
X9609524Y-11815238D01*
X9609524Y-11805714D01*
X9619048Y-11786667D01*
X9638095Y-11777143D01*
X9666667Y-11777143D01*
X9685714Y-11786667D01*
X9761905Y-11986667D02*
X9771429Y-11977143D01*
X9790476Y-11948571D01*
X9800000Y-11929524D01*
X9809524Y-11900952D01*
X9819048Y-11853333D01*
X9819048Y-11815238D01*
X9809524Y-11767619D01*
X9800000Y-11739048D01*
X9790476Y-11720000D01*
X9771429Y-11691428D01*
X9761905Y-11681905D01*
X10123810Y-11986667D02*
X10114286Y-11977143D01*
X10095238Y-11948571D01*
X10085714Y-11929524D01*
X10076190Y-11900952D01*
X10066667Y-11853333D01*
X10066667Y-11815238D01*
X10076190Y-11767619D01*
X10085714Y-11739048D01*
X10095238Y-11720000D01*
X10114286Y-11691428D01*
X10123810Y-11681905D01*
X10200000Y-11777143D02*
X10200000Y-11910476D01*
X10200000Y-11796190D02*
X10209524Y-11786667D01*
X10228571Y-11777143D01*
X10257143Y-11777143D01*
X10276190Y-11786667D01*
X10285714Y-11805714D01*
X10285714Y-11910476D01*
X10409524Y-11910476D02*
X10390476Y-11900952D01*
X10380952Y-11891428D01*
X10371429Y-11872381D01*
X10371429Y-11815238D01*
X10380952Y-11796190D01*
X10390476Y-11786667D01*
X10409524Y-11777143D01*
X10438095Y-11777143D01*
X10457143Y-11786667D01*
X10466667Y-11796190D01*
X10476190Y-11815238D01*
X10476190Y-11872381D01*
X10466667Y-11891428D01*
X10457143Y-11900952D01*
X10438095Y-11910476D01*
X10409524Y-11910476D01*
X10533333Y-11777143D02*
X10609524Y-11777143D01*
X10561905Y-11710476D02*
X10561905Y-11881905D01*
X10571429Y-11900952D01*
X10590476Y-11910476D01*
X10609524Y-11910476D01*
X10828571Y-11777143D02*
X10828571Y-11977143D01*
X10828571Y-11786667D02*
X10847619Y-11777143D01*
X10885714Y-11777143D01*
X10904762Y-11786667D01*
X10914286Y-11796190D01*
X10923810Y-11815238D01*
X10923810Y-11872381D01*
X10914286Y-11891428D01*
X10904762Y-11900952D01*
X10885714Y-11910476D01*
X10847619Y-11910476D01*
X10828571Y-11900952D01*
X11038095Y-11910476D02*
X11019048Y-11900952D01*
X11009524Y-11881905D01*
X11009524Y-11710476D01*
X11200000Y-11910476D02*
X11200000Y-11805714D01*
X11190476Y-11786667D01*
X11171429Y-11777143D01*
X11133333Y-11777143D01*
X11114286Y-11786667D01*
X11200000Y-11900952D02*
X11180952Y-11910476D01*
X11133333Y-11910476D01*
X11114286Y-11900952D01*
X11104762Y-11881905D01*
X11104762Y-11862857D01*
X11114286Y-11843809D01*
X11133333Y-11834286D01*
X11180952Y-11834286D01*
X11200000Y-11824762D01*
X11266667Y-11777143D02*
X11342857Y-11777143D01*
X11295238Y-11710476D02*
X11295238Y-11881905D01*
X11304762Y-11900952D01*
X11323809Y-11910476D01*
X11342857Y-11910476D01*
X11485714Y-11900952D02*
X11466667Y-11910476D01*
X11428571Y-11910476D01*
X11409524Y-11900952D01*
X11400000Y-11881905D01*
X11400000Y-11805714D01*
X11409524Y-11786667D01*
X11428571Y-11777143D01*
X11466667Y-11777143D01*
X11485714Y-11786667D01*
X11495238Y-11805714D01*
X11495238Y-11824762D01*
X11400000Y-11843809D01*
X11666667Y-11910476D02*
X11666667Y-11710476D01*
X11666667Y-11900952D02*
X11647619Y-11910476D01*
X11609524Y-11910476D01*
X11590476Y-11900952D01*
X11580952Y-11891428D01*
X11571428Y-11872381D01*
X11571428Y-11815238D01*
X11580952Y-11796190D01*
X11590476Y-11786667D01*
X11609524Y-11777143D01*
X11647619Y-11777143D01*
X11666667Y-11786667D01*
X11742857Y-11986667D02*
X11752381Y-11977143D01*
X11771428Y-11948571D01*
X11780952Y-11929524D01*
X11790476Y-11900952D01*
X11800000Y-11853333D01*
X11800000Y-11815238D01*
X11790476Y-11767619D01*
X11780952Y-11739048D01*
X11771428Y-11720000D01*
X11752381Y-11691428D01*
X11742857Y-11681905D01*
M02*
