G04 #@! TF.GenerationSoftware,KiCad,Pcbnew,(6.0.2)*
G04 #@! TF.CreationDate,2023-01-29T12:52:02-08:00*
G04 #@! TF.ProjectId,ripplecounter,72697070-6c65-4636-9f75-6e7465722e6b,rev?*
G04 #@! TF.SameCoordinates,Original*
G04 #@! TF.FileFunction,Legend,Bot*
G04 #@! TF.FilePolarity,Positive*
%FSLAX46Y46*%
G04 Gerber Fmt 4.6, Leading zero omitted, Abs format (unit mm)*
G04 Created by KiCad (PCBNEW (6.0.2)) date 2023-01-29 12:52:02*
%MOMM*%
%LPD*%
G01*
G04 APERTURE LIST*
%ADD10C,0.150000*%
%ADD11C,1.500000*%
%ADD12R,2.410000X3.100000*%
%ADD13C,2.000000*%
%ADD14R,1.600000X1.600000*%
%ADD15C,1.600000*%
%ADD16C,2.200000*%
%ADD17O,1.700000X1.700000*%
%ADD18R,1.700000X1.700000*%
%ADD19O,1.800000X1.800000*%
%ADD20O,1.500000X1.500000*%
%ADD21R,2.400000X2.400000*%
%ADD22C,2.400000*%
G04 APERTURE END LIST*
D10*
X59250000Y-103550000D02*
X60850000Y-103550000D01*
X65600000Y-103550000D02*
X64150000Y-103550000D01*
X63195119Y-103385714D02*
X63195119Y-104195238D01*
X63242738Y-104290476D01*
X63290357Y-104338095D01*
X63385595Y-104385714D01*
X63528452Y-104385714D01*
X63623690Y-104338095D01*
X63195119Y-104004761D02*
X63290357Y-104052380D01*
X63480833Y-104052380D01*
X63576071Y-104004761D01*
X63623690Y-103957142D01*
X63671309Y-103861904D01*
X63671309Y-103576190D01*
X63623690Y-103480952D01*
X63576071Y-103433333D01*
X63480833Y-103385714D01*
X63290357Y-103385714D01*
X63195119Y-103433333D01*
X62718928Y-103385714D02*
X62718928Y-104052380D01*
X62718928Y-103480952D02*
X62671309Y-103433333D01*
X62576071Y-103385714D01*
X62433214Y-103385714D01*
X62337976Y-103433333D01*
X62290357Y-103528571D01*
X62290357Y-104052380D01*
X61385595Y-104052380D02*
X61385595Y-103052380D01*
X61385595Y-104004761D02*
X61480833Y-104052380D01*
X61671309Y-104052380D01*
X61766547Y-104004761D01*
X61814166Y-103957142D01*
X61861785Y-103861904D01*
X61861785Y-103576190D01*
X61814166Y-103480952D01*
X61766547Y-103433333D01*
X61671309Y-103385714D01*
X61480833Y-103385714D01*
X61385595Y-103433333D01*
X55800000Y-73850000D02*
X55100000Y-73850000D01*
X57150000Y-74600000D02*
X57150000Y-75050000D01*
X57150000Y-69950000D02*
X57150000Y-69300000D01*
X58200000Y-75050000D02*
X58400000Y-74850000D01*
X58200000Y-69300000D02*
X58350000Y-69450000D01*
X55800000Y-72950000D02*
X55800000Y-73850000D01*
X55800000Y-68050000D02*
X55800000Y-66900000D01*
X57150000Y-75050000D02*
X58200000Y-75050000D01*
X55800000Y-66900000D02*
X55100000Y-66900000D01*
X57150000Y-69300000D02*
X58200000Y-69300000D01*
X57150000Y-69300000D02*
X56650000Y-69300000D01*
X54600000Y-69300000D02*
X54950000Y-69300000D01*
X55800000Y-66900000D02*
X57950000Y-66900000D01*
X57200000Y-75050000D02*
X56250000Y-75050000D01*
X56250000Y-75050000D02*
X55800000Y-73850000D01*
X54600000Y-92900000D02*
X54950000Y-92900000D01*
X57150000Y-92900000D02*
X56650000Y-92900000D01*
X56250000Y-98650000D02*
X55800000Y-97450000D01*
X57200000Y-98650000D02*
X56250000Y-98650000D01*
X55800000Y-90500000D02*
X57950000Y-90500000D01*
X58200000Y-98650000D02*
X58400000Y-98450000D01*
X57150000Y-92900000D02*
X58200000Y-92900000D01*
X58200000Y-92900000D02*
X58350000Y-93050000D01*
X57150000Y-98650000D02*
X58200000Y-98650000D01*
X56102380Y-92107261D02*
X55435714Y-92107261D01*
X55530952Y-92107261D02*
X55483333Y-92154880D01*
X55435714Y-92250119D01*
X55435714Y-92392976D01*
X55483333Y-92488214D01*
X55578571Y-92535833D01*
X56102380Y-92535833D01*
X55578571Y-92535833D02*
X55483333Y-92583452D01*
X55435714Y-92678690D01*
X55435714Y-92821547D01*
X55483333Y-92916785D01*
X55578571Y-92964404D01*
X56102380Y-92964404D01*
X56102380Y-93583452D02*
X56054761Y-93488214D01*
X56007142Y-93440595D01*
X55911904Y-93392976D01*
X55626190Y-93392976D01*
X55530952Y-93440595D01*
X55483333Y-93488214D01*
X55435714Y-93583452D01*
X55435714Y-93726309D01*
X55483333Y-93821547D01*
X55530952Y-93869166D01*
X55626190Y-93916785D01*
X55911904Y-93916785D01*
X56007142Y-93869166D01*
X56054761Y-93821547D01*
X56102380Y-93726309D01*
X56102380Y-93583452D01*
X55435714Y-94202500D02*
X55435714Y-94583452D01*
X55102380Y-94345357D02*
X55959523Y-94345357D01*
X56054761Y-94392976D01*
X56102380Y-94488214D01*
X56102380Y-94583452D01*
X56102380Y-95059642D02*
X56054761Y-94964404D01*
X56007142Y-94916785D01*
X55911904Y-94869166D01*
X55626190Y-94869166D01*
X55530952Y-94916785D01*
X55483333Y-94964404D01*
X55435714Y-95059642D01*
X55435714Y-95202500D01*
X55483333Y-95297738D01*
X55530952Y-95345357D01*
X55626190Y-95392976D01*
X55911904Y-95392976D01*
X56007142Y-95345357D01*
X56054761Y-95297738D01*
X56102380Y-95202500D01*
X56102380Y-95059642D01*
X56102380Y-95821547D02*
X55435714Y-95821547D01*
X55626190Y-95821547D02*
X55530952Y-95869166D01*
X55483333Y-95916785D01*
X55435714Y-96012023D01*
X55435714Y-96107261D01*
X55800000Y-96550000D02*
X55800000Y-97450000D01*
X55800000Y-90500000D02*
X55100000Y-90500000D01*
X55800000Y-91650000D02*
X55800000Y-90500000D01*
X57150000Y-93550000D02*
X57150000Y-92900000D01*
X57150000Y-98200000D02*
X57150000Y-98650000D01*
X55800000Y-97450000D02*
X55100000Y-97450000D01*
X57404761Y-93904880D02*
X57452380Y-94000119D01*
X57452380Y-94190595D01*
X57404761Y-94285833D01*
X57309523Y-94333452D01*
X57261904Y-94333452D01*
X57166666Y-94285833D01*
X57119047Y-94190595D01*
X57119047Y-94047738D01*
X57071428Y-93952500D01*
X56976190Y-93904880D01*
X56928571Y-93904880D01*
X56833333Y-93952500D01*
X56785714Y-94047738D01*
X56785714Y-94190595D01*
X56833333Y-94285833D01*
X57404761Y-95142976D02*
X57452380Y-95047738D01*
X57452380Y-94857261D01*
X57404761Y-94762023D01*
X57309523Y-94714404D01*
X56928571Y-94714404D01*
X56833333Y-94762023D01*
X56785714Y-94857261D01*
X56785714Y-95047738D01*
X56833333Y-95142976D01*
X56928571Y-95190595D01*
X57023809Y-95190595D01*
X57119047Y-94714404D01*
X56785714Y-95619166D02*
X57452380Y-95619166D01*
X56880952Y-95619166D02*
X56833333Y-95666785D01*
X56785714Y-95762023D01*
X56785714Y-95904880D01*
X56833333Y-96000119D01*
X56928571Y-96047738D01*
X57452380Y-96047738D01*
X57404761Y-96476309D02*
X57452380Y-96571547D01*
X57452380Y-96762023D01*
X57404761Y-96857261D01*
X57309523Y-96904880D01*
X57261904Y-96904880D01*
X57166666Y-96857261D01*
X57119047Y-96762023D01*
X57119047Y-96619166D01*
X57071428Y-96523928D01*
X56976190Y-96476309D01*
X56928571Y-96476309D01*
X56833333Y-96523928D01*
X56785714Y-96619166D01*
X56785714Y-96762023D01*
X56833333Y-96857261D01*
X57404761Y-97714404D02*
X57452380Y-97619166D01*
X57452380Y-97428690D01*
X57404761Y-97333452D01*
X57309523Y-97285833D01*
X56928571Y-97285833D01*
X56833333Y-97333452D01*
X56785714Y-97428690D01*
X56785714Y-97619166D01*
X56833333Y-97714404D01*
X56928571Y-97762023D01*
X57023809Y-97762023D01*
X57119047Y-97285833D01*
X57404761Y-70354880D02*
X57452380Y-70450119D01*
X57452380Y-70640595D01*
X57404761Y-70735833D01*
X57309523Y-70783452D01*
X57261904Y-70783452D01*
X57166666Y-70735833D01*
X57119047Y-70640595D01*
X57119047Y-70497738D01*
X57071428Y-70402500D01*
X56976190Y-70354880D01*
X56928571Y-70354880D01*
X56833333Y-70402500D01*
X56785714Y-70497738D01*
X56785714Y-70640595D01*
X56833333Y-70735833D01*
X57404761Y-71592976D02*
X57452380Y-71497738D01*
X57452380Y-71307261D01*
X57404761Y-71212023D01*
X57309523Y-71164404D01*
X56928571Y-71164404D01*
X56833333Y-71212023D01*
X56785714Y-71307261D01*
X56785714Y-71497738D01*
X56833333Y-71592976D01*
X56928571Y-71640595D01*
X57023809Y-71640595D01*
X57119047Y-71164404D01*
X56785714Y-72069166D02*
X57452380Y-72069166D01*
X56880952Y-72069166D02*
X56833333Y-72116785D01*
X56785714Y-72212023D01*
X56785714Y-72354880D01*
X56833333Y-72450119D01*
X56928571Y-72497738D01*
X57452380Y-72497738D01*
X57404761Y-72926309D02*
X57452380Y-73021547D01*
X57452380Y-73212023D01*
X57404761Y-73307261D01*
X57309523Y-73354880D01*
X57261904Y-73354880D01*
X57166666Y-73307261D01*
X57119047Y-73212023D01*
X57119047Y-73069166D01*
X57071428Y-72973928D01*
X56976190Y-72926309D01*
X56928571Y-72926309D01*
X56833333Y-72973928D01*
X56785714Y-73069166D01*
X56785714Y-73212023D01*
X56833333Y-73307261D01*
X57404761Y-74164404D02*
X57452380Y-74069166D01*
X57452380Y-73878690D01*
X57404761Y-73783452D01*
X57309523Y-73735833D01*
X56928571Y-73735833D01*
X56833333Y-73783452D01*
X56785714Y-73878690D01*
X56785714Y-74069166D01*
X56833333Y-74164404D01*
X56928571Y-74212023D01*
X57023809Y-74212023D01*
X57119047Y-73735833D01*
X56102380Y-68557261D02*
X55435714Y-68557261D01*
X55530952Y-68557261D02*
X55483333Y-68604880D01*
X55435714Y-68700119D01*
X55435714Y-68842976D01*
X55483333Y-68938214D01*
X55578571Y-68985833D01*
X56102380Y-68985833D01*
X55578571Y-68985833D02*
X55483333Y-69033452D01*
X55435714Y-69128690D01*
X55435714Y-69271547D01*
X55483333Y-69366785D01*
X55578571Y-69414404D01*
X56102380Y-69414404D01*
X56102380Y-70033452D02*
X56054761Y-69938214D01*
X56007142Y-69890595D01*
X55911904Y-69842976D01*
X55626190Y-69842976D01*
X55530952Y-69890595D01*
X55483333Y-69938214D01*
X55435714Y-70033452D01*
X55435714Y-70176309D01*
X55483333Y-70271547D01*
X55530952Y-70319166D01*
X55626190Y-70366785D01*
X55911904Y-70366785D01*
X56007142Y-70319166D01*
X56054761Y-70271547D01*
X56102380Y-70176309D01*
X56102380Y-70033452D01*
X55435714Y-70652500D02*
X55435714Y-71033452D01*
X55102380Y-70795357D02*
X55959523Y-70795357D01*
X56054761Y-70842976D01*
X56102380Y-70938214D01*
X56102380Y-71033452D01*
X56102380Y-71509642D02*
X56054761Y-71414404D01*
X56007142Y-71366785D01*
X55911904Y-71319166D01*
X55626190Y-71319166D01*
X55530952Y-71366785D01*
X55483333Y-71414404D01*
X55435714Y-71509642D01*
X55435714Y-71652500D01*
X55483333Y-71747738D01*
X55530952Y-71795357D01*
X55626190Y-71842976D01*
X55911904Y-71842976D01*
X56007142Y-71795357D01*
X56054761Y-71747738D01*
X56102380Y-71652500D01*
X56102380Y-71509642D01*
X56102380Y-72271547D02*
X55435714Y-72271547D01*
X55626190Y-72271547D02*
X55530952Y-72319166D01*
X55483333Y-72366785D01*
X55435714Y-72462023D01*
X55435714Y-72557261D01*
X55466428Y-58519047D02*
X55466428Y-59280952D01*
X55466428Y-60519047D02*
X55466428Y-61280952D01*
X55847380Y-60900000D02*
X55085476Y-60900000D01*
X57409761Y-57685714D02*
X57457380Y-57780952D01*
X57457380Y-57971428D01*
X57409761Y-58066666D01*
X57314523Y-58114285D01*
X57266904Y-58114285D01*
X57171666Y-58066666D01*
X57124047Y-57971428D01*
X57124047Y-57828571D01*
X57076428Y-57733333D01*
X56981190Y-57685714D01*
X56933571Y-57685714D01*
X56838333Y-57733333D01*
X56790714Y-57828571D01*
X56790714Y-57971428D01*
X56838333Y-58066666D01*
X56790714Y-58971428D02*
X57457380Y-58971428D01*
X56790714Y-58542857D02*
X57314523Y-58542857D01*
X57409761Y-58590476D01*
X57457380Y-58685714D01*
X57457380Y-58828571D01*
X57409761Y-58923809D01*
X57362142Y-58971428D01*
X56790714Y-59447619D02*
X57790714Y-59447619D01*
X56838333Y-59447619D02*
X56790714Y-59542857D01*
X56790714Y-59733333D01*
X56838333Y-59828571D01*
X56885952Y-59876190D01*
X56981190Y-59923809D01*
X57266904Y-59923809D01*
X57362142Y-59876190D01*
X57409761Y-59828571D01*
X57457380Y-59733333D01*
X57457380Y-59542857D01*
X57409761Y-59447619D01*
X56790714Y-60352380D02*
X57790714Y-60352380D01*
X56838333Y-60352380D02*
X56790714Y-60447619D01*
X56790714Y-60638095D01*
X56838333Y-60733333D01*
X56885952Y-60780952D01*
X56981190Y-60828571D01*
X57266904Y-60828571D01*
X57362142Y-60780952D01*
X57409761Y-60733333D01*
X57457380Y-60638095D01*
X57457380Y-60447619D01*
X57409761Y-60352380D01*
X57457380Y-61400000D02*
X57409761Y-61304761D01*
X57314523Y-61257142D01*
X56457380Y-61257142D01*
X56790714Y-61685714D02*
X57457380Y-61923809D01*
X56790714Y-62161904D02*
X57457380Y-61923809D01*
X57695476Y-61828571D01*
X57743095Y-61780952D01*
X57790714Y-61685714D01*
%LPC*%
D11*
X69765000Y-91385000D03*
D12*
X69765000Y-90635000D03*
D11*
X69765000Y-89885000D03*
X69765000Y-67785000D03*
D12*
X69765000Y-67035000D03*
D11*
X69765000Y-66285000D03*
D13*
X59215000Y-61550000D03*
D14*
X65300000Y-83596250D03*
D15*
X65300000Y-80096250D03*
D13*
X59215000Y-90500000D03*
X57950000Y-103600000D03*
X59215000Y-73900000D03*
D14*
X65300000Y-59996250D03*
D15*
X65300000Y-56496250D03*
D16*
X129000000Y-53000000D03*
D17*
X111160000Y-56125000D03*
D18*
X113700000Y-56125000D03*
D17*
X116240000Y-56125000D03*
X104810000Y-104155000D03*
X104810000Y-101615000D03*
D18*
X104810000Y-99075000D03*
D17*
X104810000Y-96535000D03*
X104810000Y-93995000D03*
X104810000Y-91455000D03*
X104810000Y-88915000D03*
D18*
X104810000Y-86375000D03*
D17*
X104810000Y-83835000D03*
X104810000Y-81295000D03*
X104810000Y-78755000D03*
X104810000Y-76215000D03*
D18*
X104810000Y-73675000D03*
D17*
X104810000Y-71135000D03*
X104810000Y-68595000D03*
X104810000Y-66055000D03*
X104810000Y-63515000D03*
D18*
X104810000Y-60975000D03*
D17*
X104810000Y-58435000D03*
X104810000Y-55895000D03*
X122590000Y-55895000D03*
X122590000Y-58435000D03*
D18*
X122590000Y-60975000D03*
D17*
X122590000Y-63515000D03*
X122590000Y-66055000D03*
X122590000Y-68595000D03*
X122590000Y-71135000D03*
D18*
X122590000Y-73675000D03*
D17*
X122590000Y-76215000D03*
X122590000Y-78755000D03*
X122590000Y-81295000D03*
X122590000Y-83835000D03*
D18*
X122590000Y-86375000D03*
D17*
X122590000Y-88915000D03*
X122590000Y-91455000D03*
X122590000Y-93995000D03*
X122590000Y-96535000D03*
D18*
X122590000Y-99075000D03*
D17*
X122590000Y-101615000D03*
X122590000Y-104155000D03*
D19*
X110975000Y-104025000D03*
X116425000Y-104025000D03*
D20*
X111275000Y-100995000D03*
X116125000Y-100995000D03*
D16*
X129000000Y-103000000D03*
D21*
X53615000Y-58050000D03*
D22*
X53615000Y-61550000D03*
D16*
X53000000Y-103000000D03*
D13*
X59215000Y-58050000D03*
X59215000Y-66900000D03*
X66850000Y-103600000D03*
D16*
X53000000Y-53000000D03*
D21*
X53615000Y-90500000D03*
D22*
X53615000Y-94000000D03*
X53615000Y-97500000D03*
D13*
X59215000Y-70400000D03*
X59215000Y-97500000D03*
D21*
X53615000Y-66900000D03*
D22*
X53615000Y-70400000D03*
X53615000Y-73900000D03*
D13*
X59215000Y-94000000D03*
M02*
