%FSLAX45Y45*%
G04 Gerber Fmt 4.5, Leading zero omitted, Abs format (unit mm)*
G04 Created by KiCad (PCBNEW (6.0.2)) date 2023-01-29 12:52:28*
%MOMM*%
%LPD*%
G01*
G04 APERTURE LIST*
%TA.AperFunction,Profile*%
%ADD10C,0.200000*%
%TD*%
%ADD11C,0.200000*%
%ADD12C,0.030000*%
%ADD13C,0.080000*%
%ADD14C,0.100000*%
%ADD15C,0.102000*%
%ADD16C,0.120000*%
G04 APERTURE END LIST*
D10*
X5000000Y-5300000D02*
X5000000Y-10300000D01*
X12900000Y-5000000D02*
X5300000Y-5000000D01*
X13200000Y-10300000D02*
X13200000Y-5300000D01*
X5300000Y-10600000D02*
X12900000Y-10600000D01*
X5000000Y-10300000D02*
G75*
G03*
X5300000Y-10600000I300000J0D01*
G01*
X12900000Y-10600000D02*
G75*
G03*
X13200000Y-10300000I0J300000D01*
G01*
X13200000Y-5300000D02*
G75*
G03*
X12900000Y-5000000I-300000J0D01*
G01*
X5300000Y-5000000D02*
G75*
G03*
X5000000Y-5300000I0J-300000D01*
G01*
D11*
D12*
X5075000Y-5581461D02*
X5105000Y-5611461D01*
X5105000Y-5581461D02*
X5075000Y-5611461D01*
X5075000Y-8096836D02*
X5105000Y-8126836D01*
X5105000Y-8096836D02*
X5075000Y-8126836D01*
X5075000Y-8599911D02*
X5105000Y-8629911D01*
X5105000Y-8599911D02*
X5075000Y-8629911D01*
X5106500Y-7308864D02*
X5136500Y-7338864D01*
X5136500Y-7308864D02*
X5106500Y-7338864D01*
X5106500Y-8975767D02*
X5136500Y-9005767D01*
X5136500Y-8975767D02*
X5106500Y-9005767D01*
X5106500Y-9476876D02*
X5136500Y-9506876D01*
X5136500Y-9476876D02*
X5106500Y-9506876D01*
X5106500Y-9977985D02*
X5136500Y-10007985D01*
X5136500Y-9977985D02*
X5106500Y-10007985D01*
X5106708Y-6809716D02*
X5136708Y-6839716D01*
X5136708Y-6809716D02*
X5106708Y-6839716D01*
X5111500Y-6312528D02*
X5141500Y-6342528D01*
X5141500Y-6312528D02*
X5111500Y-6342528D01*
X5219972Y-7753544D02*
X5249972Y-7783544D01*
X5249972Y-7753544D02*
X5219972Y-7783544D01*
X5303556Y-10494234D02*
X5333556Y-10524234D01*
X5333556Y-10494234D02*
X5303556Y-10524234D01*
X5390265Y-8700000D02*
X5420265Y-8730000D01*
X5420265Y-8700000D02*
X5390265Y-8730000D01*
X5413774Y-10115000D02*
X5443774Y-10145000D01*
X5443774Y-10115000D02*
X5413774Y-10145000D01*
X5445000Y-6340000D02*
X5475000Y-6370000D01*
X5475000Y-6340000D02*
X5445000Y-6370000D01*
X5484573Y-5218487D02*
X5514573Y-5248487D01*
X5514573Y-5218487D02*
X5484573Y-5248487D01*
X5511843Y-8013722D02*
X5541843Y-8043722D01*
X5541843Y-8013722D02*
X5511843Y-8043722D01*
X5550000Y-6340000D02*
X5580000Y-6370000D01*
X5580000Y-6340000D02*
X5550000Y-6370000D01*
X5650000Y-5855000D02*
X5680000Y-5885000D01*
X5680000Y-5855000D02*
X5650000Y-5885000D01*
X5655000Y-6340000D02*
X5685000Y-6370000D01*
X5685000Y-6340000D02*
X5655000Y-6370000D01*
X5760000Y-6340000D02*
X5790000Y-6370000D01*
X5790000Y-6340000D02*
X5760000Y-6370000D01*
X5800442Y-8074558D02*
X5830442Y-8104558D01*
X5830442Y-8074558D02*
X5800442Y-8104558D01*
X5801056Y-10495000D02*
X5831056Y-10525000D01*
X5831056Y-10495000D02*
X5801056Y-10525000D01*
X5803977Y-7993241D02*
X5833977Y-8023241D01*
X5833977Y-7993241D02*
X5803977Y-8023241D01*
X5865000Y-6340000D02*
X5895000Y-6370000D01*
X5895000Y-6340000D02*
X5865000Y-6370000D01*
X5885294Y-7989706D02*
X5915294Y-8019706D01*
X5915294Y-7989706D02*
X5885294Y-8019706D01*
X5888830Y-7908388D02*
X5918830Y-7938388D01*
X5918830Y-7908388D02*
X5888830Y-7938388D01*
X5891716Y-8343017D02*
X5921716Y-8373017D01*
X5921716Y-8343017D02*
X5891716Y-8373017D01*
X5893340Y-8700000D02*
X5923340Y-8730000D01*
X5923340Y-8700000D02*
X5893340Y-8730000D01*
X5928481Y-10115000D02*
X5958481Y-10145000D01*
X5958481Y-10115000D02*
X5928481Y-10145000D01*
X5970147Y-7904853D02*
X6000147Y-7934853D01*
X6000147Y-7904853D02*
X5970147Y-7934853D01*
X5973683Y-7823535D02*
X6003683Y-7853535D01*
X6003683Y-7823535D02*
X5973683Y-7853535D01*
X6055000Y-7820000D02*
X6085000Y-7850000D01*
X6085000Y-7820000D02*
X6055000Y-7850000D01*
X6065000Y-6795000D02*
X6095000Y-6825000D01*
X6095000Y-6795000D02*
X6065000Y-6825000D01*
X6065000Y-9155000D02*
X6095000Y-9185000D01*
X6095000Y-9155000D02*
X6065000Y-9185000D01*
X6074326Y-5075000D02*
X6104326Y-5105000D01*
X6104326Y-5075000D02*
X6074326Y-5105000D01*
X6155000Y-7130000D02*
X6185000Y-7160000D01*
X6185000Y-7130000D02*
X6155000Y-7160000D01*
X6155000Y-7425000D02*
X6185000Y-7455000D01*
X6185000Y-7425000D02*
X6155000Y-7455000D01*
X6155000Y-9490000D02*
X6185000Y-9520000D01*
X6185000Y-9490000D02*
X6155000Y-9520000D01*
X6155000Y-9785000D02*
X6185000Y-9815000D01*
X6185000Y-9785000D02*
X6155000Y-9815000D01*
X6185000Y-7740000D02*
X6215000Y-7770000D01*
X6215000Y-7740000D02*
X6185000Y-7770000D01*
X6255000Y-6715000D02*
X6285000Y-6745000D01*
X6285000Y-6715000D02*
X6255000Y-6745000D01*
X6255000Y-6835000D02*
X6285000Y-6865000D01*
X6285000Y-6835000D02*
X6255000Y-6865000D01*
X6255000Y-9075000D02*
X6285000Y-9105000D01*
X6285000Y-9075000D02*
X6255000Y-9105000D01*
X6255000Y-9195000D02*
X6285000Y-9225000D01*
X6285000Y-9195000D02*
X6255000Y-9225000D01*
X6271634Y-5780000D02*
X6301634Y-5810000D01*
X6301634Y-5780000D02*
X6271634Y-5810000D01*
X6282617Y-8659689D02*
X6312617Y-8689689D01*
X6312617Y-8659689D02*
X6282617Y-8689689D01*
X6315000Y-6775000D02*
X6345000Y-6805000D01*
X6345000Y-6775000D02*
X6315000Y-6805000D01*
X6315000Y-9135000D02*
X6345000Y-9165000D01*
X6345000Y-9135000D02*
X6315000Y-9165000D01*
X6315763Y-10495000D02*
X6345763Y-10525000D01*
X6345763Y-10495000D02*
X6315763Y-10525000D01*
X6443183Y-10114750D02*
X6473183Y-10144750D01*
X6473183Y-10114750D02*
X6443183Y-10144750D01*
X6561500Y-6735000D02*
X6591500Y-6765000D01*
X6591500Y-6735000D02*
X6561500Y-6765000D01*
X6561500Y-9095000D02*
X6591500Y-9125000D01*
X6591500Y-9095000D02*
X6561500Y-9125000D01*
X6577401Y-5075000D02*
X6607401Y-5105000D01*
X6607401Y-5075000D02*
X6577401Y-5105000D01*
X6635000Y-7455000D02*
X6665000Y-7485000D01*
X6665000Y-7455000D02*
X6635000Y-7485000D01*
X6635000Y-9815000D02*
X6665000Y-9845000D01*
X6665000Y-9815000D02*
X6635000Y-9845000D01*
X6733220Y-5592218D02*
X6763220Y-5622218D01*
X6763220Y-5592218D02*
X6733220Y-5622218D01*
X6781380Y-9983310D02*
X6811380Y-10013310D01*
X6811380Y-9983310D02*
X6781380Y-10013310D01*
X6790000Y-8145000D02*
X6820000Y-8175000D01*
X6820000Y-8145000D02*
X6790000Y-8175000D01*
X6805000Y-7175000D02*
X6835000Y-7205000D01*
X6835000Y-7175000D02*
X6805000Y-7205000D01*
X6805000Y-7505000D02*
X6835000Y-7535000D01*
X6835000Y-7505000D02*
X6805000Y-7535000D01*
X6805000Y-9535000D02*
X6835000Y-9565000D01*
X6835000Y-9535000D02*
X6805000Y-9565000D01*
X6805000Y-9865000D02*
X6835000Y-9895000D01*
X6835000Y-9865000D02*
X6805000Y-9895000D01*
X6810000Y-7060000D02*
X6840000Y-7090000D01*
X6840000Y-7060000D02*
X6810000Y-7090000D01*
X6810000Y-9420000D02*
X6840000Y-9450000D01*
X6840000Y-9420000D02*
X6810000Y-9450000D01*
X6830470Y-10495000D02*
X6860470Y-10525000D01*
X6860470Y-10495000D02*
X6830470Y-10525000D01*
X6845000Y-6985000D02*
X6875000Y-7015000D01*
X6875000Y-6985000D02*
X6845000Y-7015000D01*
X6845000Y-8560000D02*
X6875000Y-8590000D01*
X6875000Y-8560000D02*
X6845000Y-8590000D01*
X6845000Y-9345000D02*
X6875000Y-9375000D01*
X6875000Y-9345000D02*
X6845000Y-9375000D01*
X6850000Y-6565000D02*
X6880000Y-6595000D01*
X6880000Y-6565000D02*
X6850000Y-6595000D01*
X6850000Y-6815000D02*
X6880000Y-6845000D01*
X6880000Y-6815000D02*
X6850000Y-6845000D01*
X6850000Y-8925000D02*
X6880000Y-8955000D01*
X6880000Y-8925000D02*
X6850000Y-8955000D01*
X6850000Y-9175000D02*
X6880000Y-9205000D01*
X6880000Y-9175000D02*
X6850000Y-9205000D01*
X6857459Y-7613668D02*
X6887459Y-7643668D01*
X6887459Y-7613668D02*
X6857459Y-7643668D01*
X6860000Y-6195000D02*
X6890000Y-6225000D01*
X6890000Y-6195000D02*
X6860000Y-6225000D01*
X6860000Y-6420000D02*
X6890000Y-6450000D01*
X6890000Y-6420000D02*
X6860000Y-6450000D01*
X6860000Y-6690000D02*
X6890000Y-6720000D01*
X6890000Y-6690000D02*
X6860000Y-6720000D01*
X6860000Y-8780000D02*
X6890000Y-8810000D01*
X6890000Y-8780000D02*
X6860000Y-8810000D01*
X6860000Y-9050000D02*
X6890000Y-9080000D01*
X6890000Y-9050000D02*
X6860000Y-9080000D01*
X6885000Y-6910000D02*
X6915000Y-6940000D01*
X6915000Y-6910000D02*
X6885000Y-6940000D01*
X6885000Y-9270000D02*
X6915000Y-9300000D01*
X6915000Y-9270000D02*
X6885000Y-9300000D01*
X6920000Y-6480000D02*
X6950000Y-6510000D01*
X6950000Y-6480000D02*
X6920000Y-6510000D01*
X6920000Y-8840000D02*
X6950000Y-8870000D01*
X6950000Y-8840000D02*
X6920000Y-8870000D01*
X6975000Y-6900000D02*
X7005000Y-6930000D01*
X7005000Y-6900000D02*
X6975000Y-6930000D01*
X6975000Y-6980000D02*
X7005000Y-7010000D01*
X7005000Y-6980000D02*
X6975000Y-7010000D01*
X6975000Y-7060000D02*
X7005000Y-7090000D01*
X7005000Y-7060000D02*
X6975000Y-7090000D01*
X6975000Y-7165000D02*
X7005000Y-7195000D01*
X7005000Y-7165000D02*
X6975000Y-7195000D01*
X6975000Y-9260000D02*
X7005000Y-9290000D01*
X7005000Y-9260000D02*
X6975000Y-9290000D01*
X6975000Y-9340000D02*
X7005000Y-9370000D01*
X7005000Y-9340000D02*
X6975000Y-9370000D01*
X6975000Y-9420000D02*
X7005000Y-9450000D01*
X7005000Y-9420000D02*
X6975000Y-9450000D01*
X6975000Y-9525000D02*
X7005000Y-9555000D01*
X7005000Y-9525000D02*
X6975000Y-9555000D01*
X7000000Y-6225000D02*
X7030000Y-6255000D01*
X7030000Y-6225000D02*
X7000000Y-6255000D01*
X7000000Y-6375000D02*
X7030000Y-6405000D01*
X7030000Y-6375000D02*
X7000000Y-6405000D01*
X7000000Y-6455000D02*
X7030000Y-6485000D01*
X7030000Y-6455000D02*
X7000000Y-6485000D01*
X7000000Y-8590000D02*
X7030000Y-8620000D01*
X7030000Y-8590000D02*
X7000000Y-8620000D01*
X7000000Y-8735000D02*
X7030000Y-8765000D01*
X7030000Y-8735000D02*
X7000000Y-8765000D01*
X7000000Y-8815000D02*
X7030000Y-8845000D01*
X7030000Y-8815000D02*
X7000000Y-8845000D01*
X7060000Y-6690000D02*
X7090000Y-6720000D01*
X7090000Y-6690000D02*
X7060000Y-6720000D01*
X7060000Y-9050000D02*
X7090000Y-9080000D01*
X7090000Y-9050000D02*
X7060000Y-9080000D01*
X7065000Y-6910000D02*
X7095000Y-6940000D01*
X7095000Y-6910000D02*
X7065000Y-6940000D01*
X7065000Y-9270000D02*
X7095000Y-9300000D01*
X7095000Y-9270000D02*
X7065000Y-9300000D01*
X7075000Y-6565000D02*
X7105000Y-6595000D01*
X7105000Y-6565000D02*
X7075000Y-6595000D01*
X7075000Y-6815000D02*
X7105000Y-6845000D01*
X7105000Y-6815000D02*
X7075000Y-6845000D01*
X7075000Y-8925000D02*
X7105000Y-8955000D01*
X7105000Y-8925000D02*
X7075000Y-8955000D01*
X7075000Y-9175000D02*
X7105000Y-9205000D01*
X7105000Y-9175000D02*
X7075000Y-9205000D01*
X7080000Y-6480000D02*
X7110000Y-6510000D01*
X7110000Y-6480000D02*
X7080000Y-6510000D01*
X7080000Y-8840000D02*
X7110000Y-8870000D01*
X7110000Y-8840000D02*
X7080000Y-8870000D01*
X7080476Y-5075000D02*
X7110476Y-5105000D01*
X7110476Y-5075000D02*
X7080476Y-5105000D01*
X7095000Y-6985000D02*
X7125000Y-7015000D01*
X7125000Y-6985000D02*
X7095000Y-7015000D01*
X7095000Y-9345000D02*
X7125000Y-9375000D01*
X7125000Y-9345000D02*
X7095000Y-9375000D01*
X7115000Y-6405000D02*
X7145000Y-6435000D01*
X7145000Y-6405000D02*
X7115000Y-6435000D01*
X7115000Y-7535000D02*
X7145000Y-7565000D01*
X7145000Y-7535000D02*
X7115000Y-7565000D01*
X7115000Y-8765000D02*
X7145000Y-8795000D01*
X7145000Y-8765000D02*
X7115000Y-8795000D01*
X7115000Y-9895000D02*
X7145000Y-9925000D01*
X7145000Y-9895000D02*
X7115000Y-9925000D01*
X7130000Y-7060000D02*
X7160000Y-7090000D01*
X7160000Y-7060000D02*
X7130000Y-7090000D01*
X7130000Y-9420000D02*
X7160000Y-9450000D01*
X7160000Y-9420000D02*
X7130000Y-9450000D01*
X7182450Y-7743011D02*
X7212450Y-7773011D01*
X7212450Y-7743011D02*
X7182450Y-7773011D01*
X7182450Y-10030309D02*
X7212450Y-10060309D01*
X7212450Y-10030309D02*
X7182450Y-10060309D01*
X7208905Y-5512317D02*
X7238905Y-5542317D01*
X7238905Y-5512317D02*
X7208905Y-5542317D01*
X7238046Y-5834950D02*
X7268046Y-5864950D01*
X7268046Y-5834950D02*
X7238046Y-5864950D01*
X7285801Y-6195556D02*
X7315801Y-6225556D01*
X7315801Y-6195556D02*
X7285801Y-6225556D01*
X7319500Y-7120250D02*
X7349500Y-7150250D01*
X7349500Y-7120250D02*
X7319500Y-7150250D01*
X7319500Y-9480250D02*
X7349500Y-9510250D01*
X7349500Y-9480250D02*
X7319500Y-9510250D01*
X7385000Y-8620000D02*
X7415000Y-8650000D01*
X7415000Y-8620000D02*
X7385000Y-8650000D01*
X7390000Y-6260000D02*
X7420000Y-6290000D01*
X7420000Y-6260000D02*
X7390000Y-6290000D01*
X7402161Y-8500661D02*
X7432161Y-8530661D01*
X7432161Y-8500661D02*
X7402161Y-8530661D01*
X7430000Y-6485000D02*
X7460000Y-6515000D01*
X7460000Y-6485000D02*
X7430000Y-6515000D01*
X7430000Y-8845000D02*
X7460000Y-8875000D01*
X7460000Y-8845000D02*
X7430000Y-8875000D01*
X7461261Y-10370050D02*
X7491261Y-10400050D01*
X7491261Y-10370050D02*
X7461261Y-10400050D01*
X7485000Y-7345000D02*
X7515000Y-7375000D01*
X7515000Y-7345000D02*
X7485000Y-7375000D01*
X7485000Y-7565000D02*
X7515000Y-7595000D01*
X7515000Y-7565000D02*
X7485000Y-7595000D01*
X7485000Y-9705000D02*
X7515000Y-9735000D01*
X7515000Y-9705000D02*
X7485000Y-9735000D01*
X7485000Y-9925000D02*
X7515000Y-9955000D01*
X7515000Y-9925000D02*
X7485000Y-9955000D01*
X7535093Y-7995002D02*
X7565093Y-8025002D01*
X7565093Y-7995002D02*
X7535093Y-8025002D01*
X7540000Y-6960000D02*
X7570000Y-6990000D01*
X7570000Y-6960000D02*
X7540000Y-6990000D01*
X7540000Y-9320000D02*
X7570000Y-9350000D01*
X7570000Y-9320000D02*
X7540000Y-9350000D01*
X7560000Y-6670000D02*
X7590000Y-6700000D01*
X7590000Y-6670000D02*
X7560000Y-6700000D01*
X7560000Y-9035000D02*
X7590000Y-9065000D01*
X7590000Y-9035000D02*
X7560000Y-9065000D01*
X7565000Y-7750000D02*
X7595000Y-7780000D01*
X7595000Y-7750000D02*
X7565000Y-7780000D01*
X7565000Y-10110000D02*
X7595000Y-10140000D01*
X7595000Y-10110000D02*
X7565000Y-10140000D01*
X7595891Y-5844830D02*
X7625891Y-5874830D01*
X7625891Y-5844830D02*
X7595891Y-5874830D01*
X7620852Y-5300377D02*
X7650852Y-5330377D01*
X7650852Y-5300377D02*
X7620852Y-5330377D01*
X7684950Y-9106875D02*
X7714950Y-9136875D01*
X7714950Y-9106875D02*
X7684950Y-9136875D01*
X7685000Y-6750000D02*
X7715000Y-6780000D01*
X7715000Y-6750000D02*
X7685000Y-6780000D01*
X7716534Y-8541422D02*
X7746534Y-8571422D01*
X7746534Y-8541422D02*
X7716534Y-8571422D01*
X7719939Y-6191902D02*
X7749939Y-6221902D01*
X7749939Y-6191902D02*
X7719939Y-6221902D01*
X7743125Y-6511875D02*
X7773125Y-6541875D01*
X7773125Y-6511875D02*
X7743125Y-6541875D01*
X7743125Y-6671875D02*
X7773125Y-6701875D01*
X7773125Y-6671875D02*
X7743125Y-6701875D01*
X7743125Y-6821875D02*
X7773125Y-6851875D01*
X7773125Y-6821875D02*
X7743125Y-6851875D01*
X7743125Y-6976875D02*
X7773125Y-7006875D01*
X7773125Y-6976875D02*
X7743125Y-7006875D01*
X7743125Y-7131875D02*
X7773125Y-7161875D01*
X7773125Y-7131875D02*
X7743125Y-7161875D01*
X7743125Y-8871875D02*
X7773125Y-8901875D01*
X7773125Y-8871875D02*
X7743125Y-8901875D01*
X7743125Y-9031875D02*
X7773125Y-9061875D01*
X7773125Y-9031875D02*
X7743125Y-9061875D01*
X7743125Y-9181875D02*
X7773125Y-9211875D01*
X7773125Y-9181875D02*
X7743125Y-9211875D01*
X7743125Y-9336875D02*
X7773125Y-9366875D01*
X7773125Y-9336875D02*
X7743125Y-9366875D01*
X7743125Y-9491875D02*
X7773125Y-9521875D01*
X7773125Y-9491875D02*
X7743125Y-9521875D01*
X7745000Y-7405000D02*
X7775000Y-7435000D01*
X7775000Y-7405000D02*
X7745000Y-7435000D01*
X7745000Y-7530000D02*
X7775000Y-7560000D01*
X7775000Y-7530000D02*
X7745000Y-7560000D01*
X7745000Y-9765000D02*
X7775000Y-9795000D01*
X7775000Y-9765000D02*
X7745000Y-9795000D01*
X7745000Y-9890000D02*
X7775000Y-9920000D01*
X7775000Y-9890000D02*
X7745000Y-9920000D01*
X7927851Y-6004827D02*
X7957851Y-6034827D01*
X7957851Y-6004827D02*
X7927851Y-6034827D01*
X7927851Y-8364827D02*
X7957851Y-8394827D01*
X7957851Y-8364827D02*
X7927851Y-8394827D01*
X7951597Y-10324050D02*
X7981597Y-10354050D01*
X7981597Y-10324050D02*
X7951597Y-10354050D01*
X7971263Y-5487508D02*
X8001263Y-5517508D01*
X8001263Y-5487508D02*
X7971263Y-5517508D01*
X8026484Y-7964050D02*
X8056484Y-7994050D01*
X8056484Y-7964050D02*
X8026484Y-7994050D01*
X8040403Y-5079950D02*
X8070403Y-5109950D01*
X8070403Y-5079950D02*
X8040403Y-5109950D01*
X8068125Y-6011875D02*
X8098125Y-6041875D01*
X8098125Y-6011875D02*
X8068125Y-6041875D01*
X8068125Y-8371875D02*
X8098125Y-8401875D01*
X8098125Y-8371875D02*
X8068125Y-8401875D01*
X8090000Y-9261375D02*
X8120000Y-9291375D01*
X8120000Y-9261375D02*
X8090000Y-9291375D01*
X8093375Y-6901375D02*
X8123375Y-6931375D01*
X8123375Y-6901375D02*
X8093375Y-6931375D01*
X8098125Y-7616875D02*
X8128125Y-7646875D01*
X8128125Y-7616875D02*
X8098125Y-7646875D01*
X8098125Y-9976875D02*
X8128125Y-10006875D01*
X8128125Y-9976875D02*
X8098125Y-10006875D01*
X8138125Y-6181875D02*
X8168125Y-6211875D01*
X8168125Y-6181875D02*
X8138125Y-6211875D01*
X8138125Y-8541875D02*
X8168125Y-8571875D01*
X8168125Y-8541875D02*
X8138125Y-8571875D01*
X8140000Y-6670000D02*
X8170000Y-6700000D01*
X8170000Y-6670000D02*
X8140000Y-6700000D01*
X8140000Y-9030000D02*
X8170000Y-9060000D01*
X8170000Y-9030000D02*
X8140000Y-9060000D01*
X8230000Y-9460000D02*
X8260000Y-9490000D01*
X8260000Y-9460000D02*
X8230000Y-9490000D01*
X8235000Y-7100375D02*
X8265000Y-7130375D01*
X8265000Y-7100375D02*
X8235000Y-7130375D01*
X8235000Y-7305000D02*
X8265000Y-7335000D01*
X8265000Y-7305000D02*
X8235000Y-7335000D01*
X8235000Y-9665000D02*
X8265000Y-9695000D01*
X8265000Y-9665000D02*
X8235000Y-9695000D01*
X8278125Y-7686875D02*
X8308125Y-7716875D01*
X8308125Y-7686875D02*
X8278125Y-7716875D01*
X8278125Y-10046875D02*
X8308125Y-10076875D01*
X8308125Y-10046875D02*
X8278125Y-10076875D01*
X8293125Y-10221875D02*
X8323125Y-10251875D01*
X8323125Y-10221875D02*
X8293125Y-10251875D01*
X8298125Y-7436875D02*
X8328125Y-7466875D01*
X8328125Y-7436875D02*
X8298125Y-7466875D01*
X8298125Y-9796875D02*
X8328125Y-9826875D01*
X8328125Y-9796875D02*
X8298125Y-9826875D01*
X8315000Y-6325000D02*
X8345000Y-6355000D01*
X8345000Y-6325000D02*
X8315000Y-6355000D01*
X8318125Y-8685000D02*
X8348125Y-8715000D01*
X8348125Y-8685000D02*
X8318125Y-8715000D01*
X8365000Y-8200000D02*
X8395000Y-8230000D01*
X8395000Y-8200000D02*
X8365000Y-8230000D01*
X8370000Y-5835000D02*
X8400000Y-5865000D01*
X8400000Y-5835000D02*
X8370000Y-5865000D01*
X8374592Y-10495000D02*
X8404592Y-10525000D01*
X8404592Y-10495000D02*
X8374592Y-10525000D01*
X8455000Y-7925000D02*
X8485000Y-7955000D01*
X8485000Y-7925000D02*
X8455000Y-7955000D01*
X8479572Y-5460050D02*
X8509572Y-5490050D01*
X8509572Y-5460050D02*
X8479572Y-5490050D01*
X8498125Y-6931875D02*
X8528125Y-6961875D01*
X8528125Y-6931875D02*
X8498125Y-6961875D01*
X8498125Y-9291875D02*
X8528125Y-9321875D01*
X8528125Y-9291875D02*
X8498125Y-9321875D01*
X8543478Y-5079950D02*
X8573478Y-5109950D01*
X8573478Y-5079950D02*
X8543478Y-5109950D01*
X8568125Y-6106875D02*
X8598125Y-6136875D01*
X8598125Y-6106875D02*
X8568125Y-6136875D01*
X8568125Y-8466875D02*
X8598125Y-8496875D01*
X8598125Y-8466875D02*
X8568125Y-8496875D01*
X8588125Y-6676875D02*
X8618125Y-6706875D01*
X8618125Y-6676875D02*
X8588125Y-6706875D01*
X8588125Y-9036875D02*
X8618125Y-9066875D01*
X8618125Y-9036875D02*
X8588125Y-9066875D01*
X8673125Y-7116875D02*
X8703125Y-7146875D01*
X8703125Y-7116875D02*
X8673125Y-7146875D01*
X8673125Y-9476875D02*
X8703125Y-9506875D01*
X8703125Y-9476875D02*
X8673125Y-9506875D01*
X8678125Y-10151875D02*
X8708125Y-10181875D01*
X8708125Y-10151875D02*
X8678125Y-10181875D01*
X8741301Y-7853963D02*
X8771301Y-7883963D01*
X8771301Y-7853963D02*
X8741301Y-7883963D01*
X8778125Y-6766875D02*
X8808125Y-6796875D01*
X8808125Y-6766875D02*
X8778125Y-6796875D01*
X8778125Y-9126875D02*
X8808125Y-9156875D01*
X8808125Y-9126875D02*
X8778125Y-9156875D01*
X8788125Y-6971875D02*
X8818125Y-7001875D01*
X8818125Y-6971875D02*
X8788125Y-7001875D01*
X8788125Y-9331875D02*
X8818125Y-9361875D01*
X8818125Y-9331875D02*
X8788125Y-9361875D01*
X8813125Y-6271875D02*
X8843125Y-6301875D01*
X8843125Y-6271875D02*
X8813125Y-6301875D01*
X8813125Y-8631875D02*
X8843125Y-8661875D01*
X8843125Y-8631875D02*
X8813125Y-8661875D01*
X8823125Y-6041875D02*
X8853125Y-6071875D01*
X8853125Y-6041875D02*
X8823125Y-6071875D01*
X8823125Y-8401875D02*
X8853125Y-8431875D01*
X8853125Y-8401875D02*
X8823125Y-8431875D01*
X8868125Y-6536875D02*
X8898125Y-6566875D01*
X8898125Y-6536875D02*
X8868125Y-6566875D01*
X8868125Y-8896875D02*
X8898125Y-8926875D01*
X8898125Y-8896875D02*
X8868125Y-8926875D01*
X8889299Y-10495000D02*
X8919299Y-10525000D01*
X8919299Y-10495000D02*
X8889299Y-10525000D01*
X8940000Y-5845000D02*
X8970000Y-5875000D01*
X8970000Y-5845000D02*
X8940000Y-5875000D01*
X8973175Y-7700805D02*
X9003175Y-7730805D01*
X9003175Y-7700805D02*
X8973175Y-7730805D01*
X8978125Y-10061875D02*
X9008125Y-10091875D01*
X9008125Y-10061875D02*
X8978125Y-10091875D01*
X8999255Y-5460050D02*
X9029255Y-5490050D01*
X9029255Y-5460050D02*
X8999255Y-5490050D01*
X9028125Y-9716875D02*
X9058125Y-9746875D01*
X9058125Y-9716875D02*
X9028125Y-9746875D01*
X9038125Y-7241875D02*
X9068125Y-7271875D01*
X9068125Y-7241875D02*
X9038125Y-7271875D01*
X9038125Y-9601875D02*
X9068125Y-9631875D01*
X9068125Y-9601875D02*
X9038125Y-9631875D01*
X9046553Y-5079950D02*
X9076553Y-5109950D01*
X9076553Y-5079950D02*
X9046553Y-5109950D01*
X9048125Y-6591875D02*
X9078125Y-6621875D01*
X9078125Y-6591875D02*
X9048125Y-6621875D01*
X9048125Y-6841875D02*
X9078125Y-6871875D01*
X9078125Y-6841875D02*
X9048125Y-6871875D01*
X9048125Y-8951875D02*
X9078125Y-8981875D01*
X9078125Y-8951875D02*
X9048125Y-8981875D01*
X9048125Y-9201875D02*
X9078125Y-9231875D01*
X9078125Y-9201875D02*
X9048125Y-9231875D01*
X9133825Y-7406120D02*
X9163825Y-7436120D01*
X9163825Y-7406120D02*
X9133825Y-7436120D01*
X9143125Y-10231875D02*
X9173125Y-10261875D01*
X9173125Y-10231875D02*
X9143125Y-10261875D01*
X9164797Y-7942828D02*
X9194797Y-7972828D01*
X9194797Y-7942828D02*
X9164797Y-7972828D01*
X9175000Y-5875000D02*
X9205000Y-5905000D01*
X9205000Y-5875000D02*
X9175000Y-5905000D01*
X9180000Y-7596875D02*
X9210000Y-7626875D01*
X9210000Y-7596875D02*
X9180000Y-7626875D01*
X9190000Y-6205000D02*
X9220000Y-6235000D01*
X9220000Y-6205000D02*
X9190000Y-6235000D01*
X9207410Y-8552539D02*
X9237410Y-8582539D01*
X9237410Y-8552539D02*
X9207410Y-8582539D01*
X9218125Y-9956875D02*
X9248125Y-9986875D01*
X9248125Y-9956875D02*
X9218125Y-9986875D01*
X9220000Y-8200000D02*
X9250000Y-8230000D01*
X9250000Y-8200000D02*
X9220000Y-8230000D01*
X9403125Y-6826875D02*
X9433125Y-6856875D01*
X9433125Y-6826875D02*
X9403125Y-6856875D01*
X9403125Y-6976875D02*
X9433125Y-7006875D01*
X9433125Y-6976875D02*
X9403125Y-7006875D01*
X9403125Y-7131875D02*
X9433125Y-7161875D01*
X9433125Y-7131875D02*
X9403125Y-7161875D01*
X9403125Y-9186875D02*
X9433125Y-9216875D01*
X9433125Y-9186875D02*
X9403125Y-9216875D01*
X9403125Y-9336875D02*
X9433125Y-9366875D01*
X9433125Y-9336875D02*
X9403125Y-9366875D01*
X9403125Y-9491875D02*
X9433125Y-9521875D01*
X9433125Y-9491875D02*
X9403125Y-9521875D01*
X9404006Y-10495000D02*
X9434006Y-10525000D01*
X9434006Y-10495000D02*
X9404006Y-10525000D01*
X9518937Y-5460050D02*
X9548937Y-5490050D01*
X9548937Y-5460050D02*
X9518937Y-5490050D01*
X9549628Y-5079950D02*
X9579628Y-5109950D01*
X9579628Y-5079950D02*
X9549628Y-5109950D01*
X9584950Y-6197253D02*
X9614950Y-6227253D01*
X9614950Y-6197253D02*
X9584950Y-6227253D01*
X9585000Y-8585000D02*
X9615000Y-8615000D01*
X9615000Y-8585000D02*
X9585000Y-8615000D01*
X9615000Y-6455000D02*
X9645000Y-6485000D01*
X9645000Y-6455000D02*
X9615000Y-6485000D01*
X9635000Y-9105000D02*
X9665000Y-9135000D01*
X9665000Y-9105000D02*
X9635000Y-9135000D01*
X9640084Y-10282031D02*
X9670084Y-10312031D01*
X9670084Y-10282031D02*
X9640084Y-10312031D01*
X9653925Y-9862444D02*
X9683925Y-9892444D01*
X9683925Y-9862444D02*
X9653925Y-9892444D01*
X9703040Y-8606998D02*
X9733040Y-8636998D01*
X9733040Y-8606998D02*
X9703040Y-8636998D01*
X9704054Y-9260569D02*
X9734054Y-9290569D01*
X9734054Y-9260569D02*
X9704054Y-9290569D01*
X9717450Y-6669414D02*
X9747450Y-6699414D01*
X9747450Y-6669414D02*
X9717450Y-6699414D01*
X9721303Y-8083241D02*
X9751303Y-8113241D01*
X9751303Y-8083241D02*
X9721303Y-8113241D01*
X9749284Y-8957450D02*
X9779284Y-8987450D01*
X9779284Y-8957450D02*
X9749284Y-8987450D01*
X9795000Y-5734950D02*
X9825000Y-5764950D01*
X9825000Y-5734950D02*
X9795000Y-5764950D01*
X9855000Y-6060000D02*
X9885000Y-6090000D01*
X9885000Y-6060000D02*
X9855000Y-6090000D01*
X9855000Y-7805000D02*
X9885000Y-7835000D01*
X9885000Y-7805000D02*
X9855000Y-7835000D01*
X9918713Y-10495000D02*
X9948713Y-10525000D01*
X9948713Y-10495000D02*
X9918713Y-10525000D01*
X9955050Y-7604179D02*
X9985050Y-7634179D01*
X9985050Y-7604179D02*
X9955050Y-7634179D01*
X9993791Y-8431533D02*
X10023791Y-8461533D01*
X10023791Y-8431533D02*
X9993791Y-8461533D01*
X10023750Y-9261045D02*
X10053750Y-9291045D01*
X10053750Y-9261045D02*
X10023750Y-9291045D01*
X10052704Y-5079950D02*
X10082704Y-5109950D01*
X10082704Y-5079950D02*
X10052704Y-5109950D01*
X10061169Y-8214550D02*
X10091169Y-8244550D01*
X10091169Y-8214550D02*
X10061169Y-8244550D01*
X10110950Y-5664914D02*
X10140950Y-5694914D01*
X10140950Y-5664914D02*
X10110950Y-5694914D01*
X10110950Y-6426914D02*
X10140950Y-6456914D01*
X10140950Y-6426914D02*
X10110950Y-6456914D01*
X10110950Y-8851422D02*
X10140950Y-8881422D01*
X10140950Y-8851422D02*
X10110950Y-8881422D01*
X10110950Y-10176156D02*
X10140950Y-10206156D01*
X10140950Y-10176156D02*
X10110950Y-10206156D01*
X10111624Y-6941758D02*
X10141624Y-6971758D01*
X10141624Y-6941758D02*
X10111624Y-6971758D01*
X10113767Y-7968533D02*
X10143767Y-7998533D01*
X10143767Y-7968533D02*
X10113767Y-7998533D01*
X10114803Y-6731258D02*
X10144803Y-6761258D01*
X10144803Y-6731258D02*
X10114803Y-6761258D01*
X10117976Y-9505402D02*
X10147976Y-9535402D01*
X10147976Y-9505402D02*
X10117976Y-9535402D01*
X10130000Y-6080000D02*
X10160000Y-6110000D01*
X10160000Y-6080000D02*
X10130000Y-6110000D01*
X10160019Y-7264420D02*
X10190019Y-7294420D01*
X10190019Y-7264420D02*
X10160019Y-7294420D01*
X10555779Y-5079950D02*
X10585779Y-5109950D01*
X10585779Y-5079950D02*
X10555779Y-5109950D01*
X10890000Y-10495000D02*
X10920000Y-10525000D01*
X10920000Y-10495000D02*
X10890000Y-10525000D01*
X10955243Y-5265352D02*
X10985243Y-5295352D01*
X10985243Y-5265352D02*
X10955243Y-5295352D01*
X10960050Y-6138804D02*
X10990050Y-6168804D01*
X10990050Y-6138804D02*
X10960050Y-6168804D01*
X10960050Y-6641879D02*
X10990050Y-6671879D01*
X10990050Y-6641879D02*
X10960050Y-6671879D01*
X10960050Y-7144954D02*
X10990050Y-7174954D01*
X10990050Y-7144954D02*
X10960050Y-7174954D01*
X10960050Y-7648029D02*
X10990050Y-7678029D01*
X10990050Y-7648029D02*
X10960050Y-7678029D01*
X10960050Y-8660565D02*
X10990050Y-8690565D01*
X10990050Y-8660565D02*
X10960050Y-8690565D01*
X11073309Y-5772550D02*
X11103309Y-5802550D01*
X11103309Y-5772550D02*
X11073309Y-5802550D01*
X11079162Y-9050000D02*
X11109162Y-9080000D01*
X11109162Y-9050000D02*
X11079162Y-9080000D01*
X11138628Y-8077135D02*
X11168628Y-8107135D01*
X11168628Y-8077135D02*
X11138628Y-8107135D01*
X11340523Y-8562015D02*
X11370523Y-8592015D01*
X11370523Y-8562015D02*
X11340523Y-8592015D01*
X11449335Y-5242836D02*
X11479335Y-5272836D01*
X11479335Y-5242836D02*
X11449335Y-5272836D01*
X11569930Y-5772550D02*
X11599930Y-5802550D01*
X11599930Y-5772550D02*
X11569930Y-5802550D01*
X11587708Y-9050000D02*
X11617708Y-9080000D01*
X11617708Y-9050000D02*
X11587708Y-9080000D01*
X11784050Y-5445654D02*
X11814050Y-5475654D01*
X11814050Y-5445654D02*
X11784050Y-5475654D01*
X11825000Y-9345275D02*
X11855000Y-9375275D01*
X11855000Y-9345275D02*
X11825000Y-9375275D01*
X11825000Y-9853821D02*
X11855000Y-9883821D01*
X11855000Y-9853821D02*
X11825000Y-9883821D01*
X11850083Y-8788591D02*
X11880083Y-8818591D01*
X11880083Y-8788591D02*
X11850083Y-8818591D01*
X11925000Y-9005000D02*
X11955000Y-9035000D01*
X11955000Y-9005000D02*
X11925000Y-9035000D01*
X11950000Y-10390000D02*
X11980000Y-10420000D01*
X11980000Y-10390000D02*
X11950000Y-10420000D01*
X12068950Y-5797896D02*
X12098950Y-5827896D01*
X12098950Y-5797896D02*
X12068950Y-5827896D01*
X12068950Y-6656830D02*
X12098950Y-6686830D01*
X12098950Y-6656830D02*
X12068950Y-6686830D01*
X12068950Y-7926924D02*
X12098950Y-7956924D01*
X12098950Y-7926924D02*
X12068950Y-7956924D01*
X12068950Y-9148608D02*
X12098950Y-9178608D01*
X12098950Y-9148608D02*
X12068950Y-9178608D01*
X12068950Y-9650650D02*
X12098950Y-9680650D01*
X12098950Y-9650650D02*
X12068950Y-9680650D01*
X12111227Y-5075000D02*
X12141227Y-5105000D01*
X12141227Y-5075000D02*
X12111227Y-5105000D01*
X12236001Y-5399450D02*
X12266001Y-5429450D01*
X12266001Y-5399450D02*
X12236001Y-5429450D01*
X12599050Y-5605102D02*
X12629050Y-5635102D01*
X12629050Y-5605102D02*
X12599050Y-5635102D01*
X12599050Y-6259277D02*
X12629050Y-6289277D01*
X12629050Y-6259277D02*
X12599050Y-6289277D01*
X12599050Y-6778168D02*
X12629050Y-6808168D01*
X12629050Y-6778168D02*
X12599050Y-6808168D01*
X12599050Y-7529183D02*
X12629050Y-7559183D01*
X12629050Y-7529183D02*
X12599050Y-7559183D01*
X12599050Y-8048074D02*
X12629050Y-8078074D01*
X12629050Y-8048074D02*
X12599050Y-8078074D01*
X12599050Y-8786414D02*
X12629050Y-8816414D01*
X12629050Y-8786414D02*
X12599050Y-8816414D01*
X12599050Y-9416650D02*
X12629050Y-9446650D01*
X12629050Y-9416650D02*
X12599050Y-9446650D01*
X12688798Y-5208530D02*
X12718798Y-5238530D01*
X12718798Y-5208530D02*
X12688798Y-5238530D01*
X12693423Y-10198327D02*
X12723423Y-10228327D01*
X12723423Y-10198327D02*
X12693423Y-10228327D01*
X12748112Y-10495000D02*
X12778112Y-10525000D01*
X12778112Y-10495000D02*
X12748112Y-10525000D01*
X12787950Y-9109893D02*
X12817950Y-9139893D01*
X12817950Y-9109893D02*
X12787950Y-9139893D01*
X12966568Y-8954950D02*
X12996568Y-8984950D01*
X12996568Y-8954950D02*
X12966568Y-8984950D01*
X12976103Y-5474343D02*
X13006103Y-5504343D01*
X13006103Y-5474343D02*
X12976103Y-5504343D01*
X13086171Y-10222812D02*
X13116171Y-10252812D01*
X13116171Y-10222812D02*
X13086171Y-10252812D01*
X13095000Y-6102421D02*
X13125000Y-6132421D01*
X13125000Y-6102421D02*
X13095000Y-6132421D01*
X13095000Y-6605496D02*
X13125000Y-6635496D01*
X13125000Y-6605496D02*
X13095000Y-6635496D01*
X13095000Y-7108571D02*
X13125000Y-7138571D01*
X13125000Y-7108571D02*
X13095000Y-7138571D01*
X13095000Y-7611646D02*
X13125000Y-7641646D01*
X13125000Y-7611646D02*
X13095000Y-7641646D01*
X13095000Y-8114721D02*
X13125000Y-8144721D01*
X13125000Y-8114721D02*
X13095000Y-8144721D01*
X13095000Y-8617797D02*
X13125000Y-8647797D01*
X13125000Y-8617797D02*
X13095000Y-8647797D01*
X13095000Y-9311928D02*
X13125000Y-9341928D01*
X13125000Y-9311928D02*
X13095000Y-9341928D01*
X13095000Y-9820474D02*
X13125000Y-9850474D01*
X13125000Y-9820474D02*
X13095000Y-9850474D01*
D13*
X6570000Y-5649625D02*
G75*
G03*
X6570000Y-5649625I-40000J0D01*
G01*
X6570000Y-5999625D02*
G75*
G03*
X6570000Y-5999625I-40000J0D01*
G01*
X6570000Y-8009625D02*
G75*
G03*
X6570000Y-8009625I-40000J0D01*
G01*
X6570000Y-8359625D02*
G75*
G03*
X6570000Y-8359625I-40000J0D01*
G01*
D14*
X5795000Y-10310000D02*
X5795000Y-10410000D01*
X5745000Y-10360000D02*
X5845000Y-10360000D01*
X5921500Y-5755000D02*
X5921500Y-5855000D01*
X5871500Y-5805000D02*
X5971500Y-5805000D01*
X5921500Y-6105000D02*
X5921500Y-6205000D01*
X5871500Y-6155000D02*
X5971500Y-6155000D01*
X5921500Y-6640000D02*
X5921500Y-6740000D01*
X5871500Y-6690000D02*
X5971500Y-6690000D01*
X5921500Y-6990000D02*
X5921500Y-7090000D01*
X5871500Y-7040000D02*
X5971500Y-7040000D01*
X5921500Y-7340000D02*
X5921500Y-7440000D01*
X5871500Y-7390000D02*
X5971500Y-7390000D01*
X5921500Y-9000000D02*
X5921500Y-9100000D01*
X5871500Y-9050000D02*
X5971500Y-9050000D01*
X5921500Y-9350000D02*
X5921500Y-9450000D01*
X5871500Y-9400000D02*
X5971500Y-9400000D01*
X5921500Y-9700000D02*
X5921500Y-9800000D01*
X5871500Y-9750000D02*
X5971500Y-9750000D01*
X6685000Y-10310000D02*
X6685000Y-10410000D01*
X6635000Y-10360000D02*
X6735000Y-10360000D01*
X6976500Y-6578500D02*
X6976500Y-6678500D01*
X6926500Y-6628500D02*
X7026500Y-6628500D01*
X6976500Y-6728500D02*
X6976500Y-6828500D01*
X6926500Y-6778500D02*
X7026500Y-6778500D01*
X6976500Y-8938500D02*
X6976500Y-9038500D01*
X6926500Y-8988500D02*
X7026500Y-8988500D01*
X6976500Y-9088500D02*
X6976500Y-9188500D01*
X6926500Y-9138500D02*
X7026500Y-9138500D01*
D15*
X10517063Y-5625563D02*
X10517063Y-5553437D01*
X10444937Y-5553437D01*
X10444937Y-5625563D01*
X10517063Y-5625563D01*
X10517063Y-5879563D02*
X10517063Y-5807437D01*
X10444937Y-5807437D01*
X10444937Y-5879563D01*
X10517063Y-5879563D01*
X10517063Y-6133563D02*
X10517063Y-6061437D01*
X10444937Y-6061437D01*
X10444937Y-6133563D01*
X10517063Y-6133563D01*
X10517063Y-6387563D02*
X10517063Y-6315437D01*
X10444937Y-6315437D01*
X10444937Y-6387563D01*
X10517063Y-6387563D01*
X10517063Y-6641563D02*
X10517063Y-6569437D01*
X10444937Y-6569437D01*
X10444937Y-6641563D01*
X10517063Y-6641563D01*
X10517063Y-6895563D02*
X10517063Y-6823437D01*
X10444937Y-6823437D01*
X10444937Y-6895563D01*
X10517063Y-6895563D01*
X10517063Y-7149563D02*
X10517063Y-7077437D01*
X10444937Y-7077437D01*
X10444937Y-7149563D01*
X10517063Y-7149563D01*
X10517063Y-7403563D02*
X10517063Y-7331437D01*
X10444937Y-7331437D01*
X10444937Y-7403563D01*
X10517063Y-7403563D01*
X10517063Y-7657563D02*
X10517063Y-7585437D01*
X10444937Y-7585437D01*
X10444937Y-7657563D01*
X10517063Y-7657563D01*
X10517063Y-7911563D02*
X10517063Y-7839437D01*
X10444937Y-7839437D01*
X10444937Y-7911563D01*
X10517063Y-7911563D01*
X10517063Y-8165563D02*
X10517063Y-8093437D01*
X10444937Y-8093437D01*
X10444937Y-8165563D01*
X10517063Y-8165563D01*
X10517063Y-8419563D02*
X10517063Y-8347437D01*
X10444937Y-8347437D01*
X10444937Y-8419563D01*
X10517063Y-8419563D01*
X10517063Y-8673563D02*
X10517063Y-8601437D01*
X10444937Y-8601437D01*
X10444937Y-8673563D01*
X10517063Y-8673563D01*
X10517063Y-8927563D02*
X10517063Y-8855437D01*
X10444937Y-8855437D01*
X10444937Y-8927563D01*
X10517063Y-8927563D01*
X10517063Y-9181563D02*
X10517063Y-9109437D01*
X10444937Y-9109437D01*
X10444937Y-9181563D01*
X10517063Y-9181563D01*
X10517063Y-9435563D02*
X10517063Y-9363437D01*
X10444937Y-9363437D01*
X10444937Y-9435563D01*
X10517063Y-9435563D01*
X10517063Y-9689563D02*
X10517063Y-9617437D01*
X10444937Y-9617437D01*
X10444937Y-9689563D01*
X10517063Y-9689563D01*
X10517063Y-9943563D02*
X10517063Y-9871437D01*
X10444937Y-9871437D01*
X10444937Y-9943563D01*
X10517063Y-9943563D01*
X10517063Y-10197563D02*
X10517063Y-10125437D01*
X10444937Y-10125437D01*
X10444937Y-10197563D01*
X10517063Y-10197563D01*
X10517063Y-10451563D02*
X10517063Y-10379437D01*
X10444937Y-10379437D01*
X10444937Y-10451563D01*
X10517063Y-10451563D01*
X11152063Y-5648563D02*
X11152063Y-5576437D01*
X11079937Y-5576437D01*
X11079937Y-5648563D01*
X11152063Y-5648563D01*
X11406063Y-5648563D02*
X11406063Y-5576437D01*
X11333937Y-5576437D01*
X11333937Y-5648563D01*
X11406063Y-5648563D01*
X11660063Y-5648563D02*
X11660063Y-5576437D01*
X11587937Y-5576437D01*
X11587937Y-5648563D01*
X11660063Y-5648563D01*
X12295063Y-5625563D02*
X12295063Y-5553437D01*
X12222937Y-5553437D01*
X12222937Y-5625563D01*
X12295063Y-5625563D01*
X12295063Y-5879563D02*
X12295063Y-5807437D01*
X12222937Y-5807437D01*
X12222937Y-5879563D01*
X12295063Y-5879563D01*
X12295063Y-6133563D02*
X12295063Y-6061437D01*
X12222937Y-6061437D01*
X12222937Y-6133563D01*
X12295063Y-6133563D01*
X12295063Y-6387563D02*
X12295063Y-6315437D01*
X12222937Y-6315437D01*
X12222937Y-6387563D01*
X12295063Y-6387563D01*
X12295063Y-6641563D02*
X12295063Y-6569437D01*
X12222937Y-6569437D01*
X12222937Y-6641563D01*
X12295063Y-6641563D01*
X12295063Y-6895563D02*
X12295063Y-6823437D01*
X12222937Y-6823437D01*
X12222937Y-6895563D01*
X12295063Y-6895563D01*
X12295063Y-7149563D02*
X12295063Y-7077437D01*
X12222937Y-7077437D01*
X12222937Y-7149563D01*
X12295063Y-7149563D01*
X12295063Y-7403563D02*
X12295063Y-7331437D01*
X12222937Y-7331437D01*
X12222937Y-7403563D01*
X12295063Y-7403563D01*
X12295063Y-7657563D02*
X12295063Y-7585437D01*
X12222937Y-7585437D01*
X12222937Y-7657563D01*
X12295063Y-7657563D01*
X12295063Y-7911563D02*
X12295063Y-7839437D01*
X12222937Y-7839437D01*
X12222937Y-7911563D01*
X12295063Y-7911563D01*
X12295063Y-8165563D02*
X12295063Y-8093437D01*
X12222937Y-8093437D01*
X12222937Y-8165563D01*
X12295063Y-8165563D01*
X12295063Y-8419563D02*
X12295063Y-8347437D01*
X12222937Y-8347437D01*
X12222937Y-8419563D01*
X12295063Y-8419563D01*
X12295063Y-8673563D02*
X12295063Y-8601437D01*
X12222937Y-8601437D01*
X12222937Y-8673563D01*
X12295063Y-8673563D01*
X12295063Y-8927563D02*
X12295063Y-8855437D01*
X12222937Y-8855437D01*
X12222937Y-8927563D01*
X12295063Y-8927563D01*
X12295063Y-9181563D02*
X12295063Y-9109437D01*
X12222937Y-9109437D01*
X12222937Y-9181563D01*
X12295063Y-9181563D01*
X12295063Y-9435563D02*
X12295063Y-9363437D01*
X12222937Y-9363437D01*
X12222937Y-9435563D01*
X12295063Y-9435563D01*
X12295063Y-9689563D02*
X12295063Y-9617437D01*
X12222937Y-9617437D01*
X12222937Y-9689563D01*
X12295063Y-9689563D01*
X12295063Y-9943563D02*
X12295063Y-9871437D01*
X12222937Y-9871437D01*
X12222937Y-9943563D01*
X12295063Y-9943563D01*
X12295063Y-10197563D02*
X12295063Y-10125437D01*
X12222937Y-10125437D01*
X12222937Y-10197563D01*
X12295063Y-10197563D01*
X12295063Y-10451563D02*
X12295063Y-10379437D01*
X12222937Y-10379437D01*
X12222937Y-10451563D01*
X12295063Y-10451563D01*
D16*
X5361500Y-5865000D02*
X5421500Y-5805000D01*
X5361500Y-5745000D01*
X5301500Y-5805000D01*
X5361500Y-5865000D01*
X5361500Y-6215000D02*
X5421500Y-6155000D01*
X5361500Y-6095000D01*
X5301500Y-6155000D01*
X5361500Y-6215000D01*
X5361500Y-6750000D02*
X5421500Y-6690000D01*
X5361500Y-6630000D01*
X5301500Y-6690000D01*
X5361500Y-6750000D01*
X5361500Y-7100000D02*
X5421500Y-7040000D01*
X5361500Y-6980000D01*
X5301500Y-7040000D01*
X5361500Y-7100000D01*
X5361500Y-7450000D02*
X5421500Y-7390000D01*
X5361500Y-7330000D01*
X5301500Y-7390000D01*
X5361500Y-7450000D01*
X5361500Y-9110000D02*
X5421500Y-9050000D01*
X5361500Y-8990000D01*
X5301500Y-9050000D01*
X5361500Y-9110000D01*
X5361500Y-9460000D02*
X5421500Y-9400000D01*
X5361500Y-9340000D01*
X5301500Y-9400000D01*
X5361500Y-9460000D01*
X5361500Y-9810000D02*
X5421500Y-9750000D01*
X5361500Y-9690000D01*
X5301500Y-9750000D01*
X5361500Y-9810000D01*
D11*
X5247619Y-10920476D02*
X5247619Y-10720476D01*
X5295238Y-10720476D01*
X5323810Y-10730000D01*
X5342857Y-10749048D01*
X5352381Y-10768095D01*
X5361905Y-10806190D01*
X5361905Y-10834762D01*
X5352381Y-10872857D01*
X5342857Y-10891905D01*
X5323810Y-10910952D01*
X5295238Y-10920476D01*
X5247619Y-10920476D01*
X5447619Y-10920476D02*
X5447619Y-10787143D01*
X5447619Y-10825238D02*
X5457143Y-10806190D01*
X5466667Y-10796667D01*
X5485714Y-10787143D01*
X5504762Y-10787143D01*
X5571429Y-10920476D02*
X5571429Y-10787143D01*
X5571429Y-10720476D02*
X5561905Y-10730000D01*
X5571429Y-10739524D01*
X5580952Y-10730000D01*
X5571429Y-10720476D01*
X5571429Y-10739524D01*
X5695238Y-10920476D02*
X5676190Y-10910952D01*
X5666667Y-10891905D01*
X5666667Y-10720476D01*
X5800000Y-10920476D02*
X5780952Y-10910952D01*
X5771428Y-10891905D01*
X5771428Y-10720476D01*
X6028571Y-10920476D02*
X6028571Y-10720476D01*
X6095238Y-10863333D01*
X6161905Y-10720476D01*
X6161905Y-10920476D01*
X6342857Y-10920476D02*
X6342857Y-10815714D01*
X6333333Y-10796667D01*
X6314286Y-10787143D01*
X6276190Y-10787143D01*
X6257143Y-10796667D01*
X6342857Y-10910952D02*
X6323809Y-10920476D01*
X6276190Y-10920476D01*
X6257143Y-10910952D01*
X6247619Y-10891905D01*
X6247619Y-10872857D01*
X6257143Y-10853810D01*
X6276190Y-10844286D01*
X6323809Y-10844286D01*
X6342857Y-10834762D01*
X6438095Y-10787143D02*
X6438095Y-10987143D01*
X6438095Y-10796667D02*
X6457143Y-10787143D01*
X6495238Y-10787143D01*
X6514286Y-10796667D01*
X6523809Y-10806190D01*
X6533333Y-10825238D01*
X6533333Y-10882381D01*
X6523809Y-10901429D01*
X6514286Y-10910952D01*
X6495238Y-10920476D01*
X6457143Y-10920476D01*
X6438095Y-10910952D01*
X6619048Y-10901429D02*
X6628571Y-10910952D01*
X6619048Y-10920476D01*
X6609524Y-10910952D01*
X6619048Y-10901429D01*
X6619048Y-10920476D01*
X6619048Y-10796667D02*
X6628571Y-10806190D01*
X6619048Y-10815714D01*
X6609524Y-10806190D01*
X6619048Y-10796667D01*
X6619048Y-10815714D01*
D12*
X4960000Y-11235000D02*
X4990000Y-11265000D01*
X4990000Y-11235000D02*
X4960000Y-11265000D01*
D11*
X5285714Y-11140476D02*
X5304762Y-11140476D01*
X5323810Y-11150000D01*
X5333333Y-11159524D01*
X5342857Y-11178571D01*
X5352381Y-11216667D01*
X5352381Y-11264286D01*
X5342857Y-11302381D01*
X5333333Y-11321428D01*
X5323810Y-11330952D01*
X5304762Y-11340476D01*
X5285714Y-11340476D01*
X5266667Y-11330952D01*
X5257143Y-11321428D01*
X5247619Y-11302381D01*
X5238095Y-11264286D01*
X5238095Y-11216667D01*
X5247619Y-11178571D01*
X5257143Y-11159524D01*
X5266667Y-11150000D01*
X5285714Y-11140476D01*
X5438095Y-11321428D02*
X5447619Y-11330952D01*
X5438095Y-11340476D01*
X5428571Y-11330952D01*
X5438095Y-11321428D01*
X5438095Y-11340476D01*
X5514286Y-11140476D02*
X5638095Y-11140476D01*
X5571429Y-11216667D01*
X5600000Y-11216667D01*
X5619048Y-11226190D01*
X5628571Y-11235714D01*
X5638095Y-11254762D01*
X5638095Y-11302381D01*
X5628571Y-11321428D01*
X5619048Y-11330952D01*
X5600000Y-11340476D01*
X5542857Y-11340476D01*
X5523810Y-11330952D01*
X5514286Y-11321428D01*
X5761905Y-11140476D02*
X5780952Y-11140476D01*
X5800000Y-11150000D01*
X5809524Y-11159524D01*
X5819048Y-11178571D01*
X5828571Y-11216667D01*
X5828571Y-11264286D01*
X5819048Y-11302381D01*
X5809524Y-11321428D01*
X5800000Y-11330952D01*
X5780952Y-11340476D01*
X5761905Y-11340476D01*
X5742857Y-11330952D01*
X5733333Y-11321428D01*
X5723809Y-11302381D01*
X5714286Y-11264286D01*
X5714286Y-11216667D01*
X5723809Y-11178571D01*
X5733333Y-11159524D01*
X5742857Y-11150000D01*
X5761905Y-11140476D01*
X5952381Y-11140476D02*
X5971428Y-11140476D01*
X5990476Y-11150000D01*
X6000000Y-11159524D01*
X6009524Y-11178571D01*
X6019048Y-11216667D01*
X6019048Y-11264286D01*
X6009524Y-11302381D01*
X6000000Y-11321428D01*
X5990476Y-11330952D01*
X5971428Y-11340476D01*
X5952381Y-11340476D01*
X5933333Y-11330952D01*
X5923809Y-11321428D01*
X5914286Y-11302381D01*
X5904762Y-11264286D01*
X5904762Y-11216667D01*
X5914286Y-11178571D01*
X5923809Y-11159524D01*
X5933333Y-11150000D01*
X5952381Y-11140476D01*
X6104762Y-11340476D02*
X6104762Y-11207143D01*
X6104762Y-11226190D02*
X6114286Y-11216667D01*
X6133333Y-11207143D01*
X6161905Y-11207143D01*
X6180952Y-11216667D01*
X6190476Y-11235714D01*
X6190476Y-11340476D01*
X6190476Y-11235714D02*
X6200000Y-11216667D01*
X6219048Y-11207143D01*
X6247619Y-11207143D01*
X6266667Y-11216667D01*
X6276190Y-11235714D01*
X6276190Y-11340476D01*
X6371428Y-11340476D02*
X6371428Y-11207143D01*
X6371428Y-11226190D02*
X6380952Y-11216667D01*
X6400000Y-11207143D01*
X6428571Y-11207143D01*
X6447619Y-11216667D01*
X6457143Y-11235714D01*
X6457143Y-11340476D01*
X6457143Y-11235714D02*
X6466667Y-11216667D01*
X6485714Y-11207143D01*
X6514286Y-11207143D01*
X6533333Y-11216667D01*
X6542857Y-11235714D01*
X6542857Y-11340476D01*
X6933333Y-11130952D02*
X6761905Y-11388095D01*
X7190476Y-11140476D02*
X7209524Y-11140476D01*
X7228571Y-11150000D01*
X7238095Y-11159524D01*
X7247619Y-11178571D01*
X7257143Y-11216667D01*
X7257143Y-11264286D01*
X7247619Y-11302381D01*
X7238095Y-11321428D01*
X7228571Y-11330952D01*
X7209524Y-11340476D01*
X7190476Y-11340476D01*
X7171428Y-11330952D01*
X7161905Y-11321428D01*
X7152381Y-11302381D01*
X7142857Y-11264286D01*
X7142857Y-11216667D01*
X7152381Y-11178571D01*
X7161905Y-11159524D01*
X7171428Y-11150000D01*
X7190476Y-11140476D01*
X7342857Y-11321428D02*
X7352381Y-11330952D01*
X7342857Y-11340476D01*
X7333333Y-11330952D01*
X7342857Y-11321428D01*
X7342857Y-11340476D01*
X7476190Y-11140476D02*
X7495238Y-11140476D01*
X7514286Y-11150000D01*
X7523809Y-11159524D01*
X7533333Y-11178571D01*
X7542857Y-11216667D01*
X7542857Y-11264286D01*
X7533333Y-11302381D01*
X7523809Y-11321428D01*
X7514286Y-11330952D01*
X7495238Y-11340476D01*
X7476190Y-11340476D01*
X7457143Y-11330952D01*
X7447619Y-11321428D01*
X7438095Y-11302381D01*
X7428571Y-11264286D01*
X7428571Y-11216667D01*
X7438095Y-11178571D01*
X7447619Y-11159524D01*
X7457143Y-11150000D01*
X7476190Y-11140476D01*
X7733333Y-11340476D02*
X7619048Y-11340476D01*
X7676190Y-11340476D02*
X7676190Y-11140476D01*
X7657143Y-11169048D01*
X7638095Y-11188095D01*
X7619048Y-11197619D01*
X7923809Y-11340476D02*
X7809524Y-11340476D01*
X7866667Y-11340476D02*
X7866667Y-11140476D01*
X7847619Y-11169048D01*
X7828571Y-11188095D01*
X7809524Y-11197619D01*
X8038095Y-11226190D02*
X8019048Y-11216667D01*
X8009524Y-11207143D01*
X8000000Y-11188095D01*
X8000000Y-11178571D01*
X8009524Y-11159524D01*
X8019048Y-11150000D01*
X8038095Y-11140476D01*
X8076190Y-11140476D01*
X8095238Y-11150000D01*
X8104762Y-11159524D01*
X8114286Y-11178571D01*
X8114286Y-11188095D01*
X8104762Y-11207143D01*
X8095238Y-11216667D01*
X8076190Y-11226190D01*
X8038095Y-11226190D01*
X8019048Y-11235714D01*
X8009524Y-11245238D01*
X8000000Y-11264286D01*
X8000000Y-11302381D01*
X8009524Y-11321428D01*
X8019048Y-11330952D01*
X8038095Y-11340476D01*
X8076190Y-11340476D01*
X8095238Y-11330952D01*
X8104762Y-11321428D01*
X8114286Y-11302381D01*
X8114286Y-11264286D01*
X8104762Y-11245238D01*
X8095238Y-11235714D01*
X8076190Y-11226190D01*
X8190476Y-11140476D02*
X8190476Y-11178571D01*
X8266667Y-11140476D02*
X8266667Y-11178571D01*
X8561905Y-11416667D02*
X8552381Y-11407143D01*
X8533333Y-11378571D01*
X8523810Y-11359524D01*
X8514286Y-11330952D01*
X8504762Y-11283333D01*
X8504762Y-11245238D01*
X8514286Y-11197619D01*
X8523810Y-11169048D01*
X8533333Y-11150000D01*
X8552381Y-11121429D01*
X8561905Y-11111905D01*
X8619048Y-11140476D02*
X8742857Y-11140476D01*
X8676190Y-11216667D01*
X8704762Y-11216667D01*
X8723810Y-11226190D01*
X8733333Y-11235714D01*
X8742857Y-11254762D01*
X8742857Y-11302381D01*
X8733333Y-11321428D01*
X8723810Y-11330952D01*
X8704762Y-11340476D01*
X8647619Y-11340476D01*
X8628571Y-11330952D01*
X8619048Y-11321428D01*
X8819048Y-11159524D02*
X8828571Y-11150000D01*
X8847619Y-11140476D01*
X8895238Y-11140476D01*
X8914286Y-11150000D01*
X8923810Y-11159524D01*
X8933333Y-11178571D01*
X8933333Y-11197619D01*
X8923810Y-11226190D01*
X8809524Y-11340476D01*
X8933333Y-11340476D01*
X9000000Y-11140476D02*
X9123810Y-11140476D01*
X9057143Y-11216667D01*
X9085714Y-11216667D01*
X9104762Y-11226190D01*
X9114286Y-11235714D01*
X9123810Y-11254762D01*
X9123810Y-11302381D01*
X9114286Y-11321428D01*
X9104762Y-11330952D01*
X9085714Y-11340476D01*
X9028571Y-11340476D01*
X9009524Y-11330952D01*
X9000000Y-11321428D01*
X9361905Y-11340476D02*
X9361905Y-11140476D01*
X9447619Y-11340476D02*
X9447619Y-11235714D01*
X9438095Y-11216667D01*
X9419048Y-11207143D01*
X9390476Y-11207143D01*
X9371429Y-11216667D01*
X9361905Y-11226190D01*
X9571429Y-11340476D02*
X9552381Y-11330952D01*
X9542857Y-11321428D01*
X9533333Y-11302381D01*
X9533333Y-11245238D01*
X9542857Y-11226190D01*
X9552381Y-11216667D01*
X9571429Y-11207143D01*
X9600000Y-11207143D01*
X9619048Y-11216667D01*
X9628571Y-11226190D01*
X9638095Y-11245238D01*
X9638095Y-11302381D01*
X9628571Y-11321428D01*
X9619048Y-11330952D01*
X9600000Y-11340476D01*
X9571429Y-11340476D01*
X9752381Y-11340476D02*
X9733333Y-11330952D01*
X9723810Y-11311905D01*
X9723810Y-11140476D01*
X9904762Y-11330952D02*
X9885714Y-11340476D01*
X9847619Y-11340476D01*
X9828571Y-11330952D01*
X9819048Y-11311905D01*
X9819048Y-11235714D01*
X9828571Y-11216667D01*
X9847619Y-11207143D01*
X9885714Y-11207143D01*
X9904762Y-11216667D01*
X9914286Y-11235714D01*
X9914286Y-11254762D01*
X9819048Y-11273809D01*
X9990476Y-11330952D02*
X10009524Y-11340476D01*
X10047619Y-11340476D01*
X10066667Y-11330952D01*
X10076190Y-11311905D01*
X10076190Y-11302381D01*
X10066667Y-11283333D01*
X10047619Y-11273809D01*
X10019048Y-11273809D01*
X10000000Y-11264286D01*
X9990476Y-11245238D01*
X9990476Y-11235714D01*
X10000000Y-11216667D01*
X10019048Y-11207143D01*
X10047619Y-11207143D01*
X10066667Y-11216667D01*
X10142857Y-11416667D02*
X10152381Y-11407143D01*
X10171429Y-11378571D01*
X10180952Y-11359524D01*
X10190476Y-11330952D01*
X10200000Y-11283333D01*
X10200000Y-11245238D01*
X10190476Y-11197619D01*
X10180952Y-11169048D01*
X10171429Y-11150000D01*
X10152381Y-11121429D01*
X10142857Y-11111905D01*
D13*
X4990000Y-11514000D02*
G75*
G03*
X4990000Y-11514000I-40000J0D01*
G01*
D11*
X5285714Y-11404476D02*
X5304762Y-11404476D01*
X5323810Y-11414000D01*
X5333333Y-11423524D01*
X5342857Y-11442571D01*
X5352381Y-11480667D01*
X5352381Y-11528286D01*
X5342857Y-11566381D01*
X5333333Y-11585428D01*
X5323810Y-11594952D01*
X5304762Y-11604476D01*
X5285714Y-11604476D01*
X5266667Y-11594952D01*
X5257143Y-11585428D01*
X5247619Y-11566381D01*
X5238095Y-11528286D01*
X5238095Y-11480667D01*
X5247619Y-11442571D01*
X5257143Y-11423524D01*
X5266667Y-11414000D01*
X5285714Y-11404476D01*
X5438095Y-11585428D02*
X5447619Y-11594952D01*
X5438095Y-11604476D01*
X5428571Y-11594952D01*
X5438095Y-11585428D01*
X5438095Y-11604476D01*
X5561905Y-11490190D02*
X5542857Y-11480667D01*
X5533333Y-11471143D01*
X5523810Y-11452095D01*
X5523810Y-11442571D01*
X5533333Y-11423524D01*
X5542857Y-11414000D01*
X5561905Y-11404476D01*
X5600000Y-11404476D01*
X5619048Y-11414000D01*
X5628571Y-11423524D01*
X5638095Y-11442571D01*
X5638095Y-11452095D01*
X5628571Y-11471143D01*
X5619048Y-11480667D01*
X5600000Y-11490190D01*
X5561905Y-11490190D01*
X5542857Y-11499714D01*
X5533333Y-11509238D01*
X5523810Y-11528286D01*
X5523810Y-11566381D01*
X5533333Y-11585428D01*
X5542857Y-11594952D01*
X5561905Y-11604476D01*
X5600000Y-11604476D01*
X5619048Y-11594952D01*
X5628571Y-11585428D01*
X5638095Y-11566381D01*
X5638095Y-11528286D01*
X5628571Y-11509238D01*
X5619048Y-11499714D01*
X5600000Y-11490190D01*
X5761905Y-11404476D02*
X5780952Y-11404476D01*
X5800000Y-11414000D01*
X5809524Y-11423524D01*
X5819048Y-11442571D01*
X5828571Y-11480667D01*
X5828571Y-11528286D01*
X5819048Y-11566381D01*
X5809524Y-11585428D01*
X5800000Y-11594952D01*
X5780952Y-11604476D01*
X5761905Y-11604476D01*
X5742857Y-11594952D01*
X5733333Y-11585428D01*
X5723809Y-11566381D01*
X5714286Y-11528286D01*
X5714286Y-11480667D01*
X5723809Y-11442571D01*
X5733333Y-11423524D01*
X5742857Y-11414000D01*
X5761905Y-11404476D01*
X5952381Y-11404476D02*
X5971428Y-11404476D01*
X5990476Y-11414000D01*
X6000000Y-11423524D01*
X6009524Y-11442571D01*
X6019048Y-11480667D01*
X6019048Y-11528286D01*
X6009524Y-11566381D01*
X6000000Y-11585428D01*
X5990476Y-11594952D01*
X5971428Y-11604476D01*
X5952381Y-11604476D01*
X5933333Y-11594952D01*
X5923809Y-11585428D01*
X5914286Y-11566381D01*
X5904762Y-11528286D01*
X5904762Y-11480667D01*
X5914286Y-11442571D01*
X5923809Y-11423524D01*
X5933333Y-11414000D01*
X5952381Y-11404476D01*
X6104762Y-11604476D02*
X6104762Y-11471143D01*
X6104762Y-11490190D02*
X6114286Y-11480667D01*
X6133333Y-11471143D01*
X6161905Y-11471143D01*
X6180952Y-11480667D01*
X6190476Y-11499714D01*
X6190476Y-11604476D01*
X6190476Y-11499714D02*
X6200000Y-11480667D01*
X6219048Y-11471143D01*
X6247619Y-11471143D01*
X6266667Y-11480667D01*
X6276190Y-11499714D01*
X6276190Y-11604476D01*
X6371428Y-11604476D02*
X6371428Y-11471143D01*
X6371428Y-11490190D02*
X6380952Y-11480667D01*
X6400000Y-11471143D01*
X6428571Y-11471143D01*
X6447619Y-11480667D01*
X6457143Y-11499714D01*
X6457143Y-11604476D01*
X6457143Y-11499714D02*
X6466667Y-11480667D01*
X6485714Y-11471143D01*
X6514286Y-11471143D01*
X6533333Y-11480667D01*
X6542857Y-11499714D01*
X6542857Y-11604476D01*
X6933333Y-11394952D02*
X6761905Y-11652095D01*
X7190476Y-11404476D02*
X7209524Y-11404476D01*
X7228571Y-11414000D01*
X7238095Y-11423524D01*
X7247619Y-11442571D01*
X7257143Y-11480667D01*
X7257143Y-11528286D01*
X7247619Y-11566381D01*
X7238095Y-11585428D01*
X7228571Y-11594952D01*
X7209524Y-11604476D01*
X7190476Y-11604476D01*
X7171428Y-11594952D01*
X7161905Y-11585428D01*
X7152381Y-11566381D01*
X7142857Y-11528286D01*
X7142857Y-11480667D01*
X7152381Y-11442571D01*
X7161905Y-11423524D01*
X7171428Y-11414000D01*
X7190476Y-11404476D01*
X7342857Y-11585428D02*
X7352381Y-11594952D01*
X7342857Y-11604476D01*
X7333333Y-11594952D01*
X7342857Y-11585428D01*
X7342857Y-11604476D01*
X7476190Y-11404476D02*
X7495238Y-11404476D01*
X7514286Y-11414000D01*
X7523809Y-11423524D01*
X7533333Y-11442571D01*
X7542857Y-11480667D01*
X7542857Y-11528286D01*
X7533333Y-11566381D01*
X7523809Y-11585428D01*
X7514286Y-11594952D01*
X7495238Y-11604476D01*
X7476190Y-11604476D01*
X7457143Y-11594952D01*
X7447619Y-11585428D01*
X7438095Y-11566381D01*
X7428571Y-11528286D01*
X7428571Y-11480667D01*
X7438095Y-11442571D01*
X7447619Y-11423524D01*
X7457143Y-11414000D01*
X7476190Y-11404476D01*
X7609524Y-11404476D02*
X7733333Y-11404476D01*
X7666667Y-11480667D01*
X7695238Y-11480667D01*
X7714286Y-11490190D01*
X7723809Y-11499714D01*
X7733333Y-11518762D01*
X7733333Y-11566381D01*
X7723809Y-11585428D01*
X7714286Y-11594952D01*
X7695238Y-11604476D01*
X7638095Y-11604476D01*
X7619048Y-11594952D01*
X7609524Y-11585428D01*
X7923809Y-11604476D02*
X7809524Y-11604476D01*
X7866667Y-11604476D02*
X7866667Y-11404476D01*
X7847619Y-11433048D01*
X7828571Y-11452095D01*
X7809524Y-11461619D01*
X8104762Y-11404476D02*
X8009524Y-11404476D01*
X8000000Y-11499714D01*
X8009524Y-11490190D01*
X8028571Y-11480667D01*
X8076190Y-11480667D01*
X8095238Y-11490190D01*
X8104762Y-11499714D01*
X8114286Y-11518762D01*
X8114286Y-11566381D01*
X8104762Y-11585428D01*
X8095238Y-11594952D01*
X8076190Y-11604476D01*
X8028571Y-11604476D01*
X8009524Y-11594952D01*
X8000000Y-11585428D01*
X8190476Y-11404476D02*
X8190476Y-11442571D01*
X8266667Y-11404476D02*
X8266667Y-11442571D01*
X8561905Y-11680667D02*
X8552381Y-11671143D01*
X8533333Y-11642571D01*
X8523810Y-11623524D01*
X8514286Y-11594952D01*
X8504762Y-11547333D01*
X8504762Y-11509238D01*
X8514286Y-11461619D01*
X8523810Y-11433048D01*
X8533333Y-11414000D01*
X8552381Y-11385428D01*
X8561905Y-11375905D01*
X8723810Y-11471143D02*
X8723810Y-11604476D01*
X8676190Y-11394952D02*
X8628571Y-11537809D01*
X8752381Y-11537809D01*
X8980952Y-11604476D02*
X8980952Y-11404476D01*
X9066667Y-11604476D02*
X9066667Y-11499714D01*
X9057143Y-11480667D01*
X9038095Y-11471143D01*
X9009524Y-11471143D01*
X8990476Y-11480667D01*
X8980952Y-11490190D01*
X9190476Y-11604476D02*
X9171429Y-11594952D01*
X9161905Y-11585428D01*
X9152381Y-11566381D01*
X9152381Y-11509238D01*
X9161905Y-11490190D01*
X9171429Y-11480667D01*
X9190476Y-11471143D01*
X9219048Y-11471143D01*
X9238095Y-11480667D01*
X9247619Y-11490190D01*
X9257143Y-11509238D01*
X9257143Y-11566381D01*
X9247619Y-11585428D01*
X9238095Y-11594952D01*
X9219048Y-11604476D01*
X9190476Y-11604476D01*
X9371429Y-11604476D02*
X9352381Y-11594952D01*
X9342857Y-11575905D01*
X9342857Y-11404476D01*
X9523810Y-11594952D02*
X9504762Y-11604476D01*
X9466667Y-11604476D01*
X9447619Y-11594952D01*
X9438095Y-11575905D01*
X9438095Y-11499714D01*
X9447619Y-11480667D01*
X9466667Y-11471143D01*
X9504762Y-11471143D01*
X9523810Y-11480667D01*
X9533333Y-11499714D01*
X9533333Y-11518762D01*
X9438095Y-11537809D01*
X9609524Y-11594952D02*
X9628571Y-11604476D01*
X9666667Y-11604476D01*
X9685714Y-11594952D01*
X9695238Y-11575905D01*
X9695238Y-11566381D01*
X9685714Y-11547333D01*
X9666667Y-11537809D01*
X9638095Y-11537809D01*
X9619048Y-11528286D01*
X9609524Y-11509238D01*
X9609524Y-11499714D01*
X9619048Y-11480667D01*
X9638095Y-11471143D01*
X9666667Y-11471143D01*
X9685714Y-11480667D01*
X9761905Y-11680667D02*
X9771429Y-11671143D01*
X9790476Y-11642571D01*
X9800000Y-11623524D01*
X9809524Y-11594952D01*
X9819048Y-11547333D01*
X9819048Y-11509238D01*
X9809524Y-11461619D01*
X9800000Y-11433048D01*
X9790476Y-11414000D01*
X9771429Y-11385428D01*
X9761905Y-11375905D01*
D14*
X4940000Y-11728000D02*
X4940000Y-11828000D01*
X4890000Y-11778000D02*
X4990000Y-11778000D01*
D11*
X5352381Y-11868476D02*
X5238095Y-11868476D01*
X5295238Y-11868476D02*
X5295238Y-11668476D01*
X5276190Y-11697048D01*
X5257143Y-11716095D01*
X5238095Y-11725619D01*
X5438095Y-11849428D02*
X5447619Y-11858952D01*
X5438095Y-11868476D01*
X5428571Y-11858952D01*
X5438095Y-11849428D01*
X5438095Y-11868476D01*
X5571429Y-11668476D02*
X5590476Y-11668476D01*
X5609524Y-11678000D01*
X5619048Y-11687524D01*
X5628571Y-11706571D01*
X5638095Y-11744667D01*
X5638095Y-11792286D01*
X5628571Y-11830381D01*
X5619048Y-11849428D01*
X5609524Y-11858952D01*
X5590476Y-11868476D01*
X5571429Y-11868476D01*
X5552381Y-11858952D01*
X5542857Y-11849428D01*
X5533333Y-11830381D01*
X5523810Y-11792286D01*
X5523810Y-11744667D01*
X5533333Y-11706571D01*
X5542857Y-11687524D01*
X5552381Y-11678000D01*
X5571429Y-11668476D01*
X5761905Y-11668476D02*
X5780952Y-11668476D01*
X5800000Y-11678000D01*
X5809524Y-11687524D01*
X5819048Y-11706571D01*
X5828571Y-11744667D01*
X5828571Y-11792286D01*
X5819048Y-11830381D01*
X5809524Y-11849428D01*
X5800000Y-11858952D01*
X5780952Y-11868476D01*
X5761905Y-11868476D01*
X5742857Y-11858952D01*
X5733333Y-11849428D01*
X5723809Y-11830381D01*
X5714286Y-11792286D01*
X5714286Y-11744667D01*
X5723809Y-11706571D01*
X5733333Y-11687524D01*
X5742857Y-11678000D01*
X5761905Y-11668476D01*
X5952381Y-11668476D02*
X5971428Y-11668476D01*
X5990476Y-11678000D01*
X6000000Y-11687524D01*
X6009524Y-11706571D01*
X6019048Y-11744667D01*
X6019048Y-11792286D01*
X6009524Y-11830381D01*
X6000000Y-11849428D01*
X5990476Y-11858952D01*
X5971428Y-11868476D01*
X5952381Y-11868476D01*
X5933333Y-11858952D01*
X5923809Y-11849428D01*
X5914286Y-11830381D01*
X5904762Y-11792286D01*
X5904762Y-11744667D01*
X5914286Y-11706571D01*
X5923809Y-11687524D01*
X5933333Y-11678000D01*
X5952381Y-11668476D01*
X6104762Y-11868476D02*
X6104762Y-11735143D01*
X6104762Y-11754190D02*
X6114286Y-11744667D01*
X6133333Y-11735143D01*
X6161905Y-11735143D01*
X6180952Y-11744667D01*
X6190476Y-11763714D01*
X6190476Y-11868476D01*
X6190476Y-11763714D02*
X6200000Y-11744667D01*
X6219048Y-11735143D01*
X6247619Y-11735143D01*
X6266667Y-11744667D01*
X6276190Y-11763714D01*
X6276190Y-11868476D01*
X6371428Y-11868476D02*
X6371428Y-11735143D01*
X6371428Y-11754190D02*
X6380952Y-11744667D01*
X6400000Y-11735143D01*
X6428571Y-11735143D01*
X6447619Y-11744667D01*
X6457143Y-11763714D01*
X6457143Y-11868476D01*
X6457143Y-11763714D02*
X6466667Y-11744667D01*
X6485714Y-11735143D01*
X6514286Y-11735143D01*
X6533333Y-11744667D01*
X6542857Y-11763714D01*
X6542857Y-11868476D01*
X6933333Y-11658952D02*
X6761905Y-11916095D01*
X7190476Y-11668476D02*
X7209524Y-11668476D01*
X7228571Y-11678000D01*
X7238095Y-11687524D01*
X7247619Y-11706571D01*
X7257143Y-11744667D01*
X7257143Y-11792286D01*
X7247619Y-11830381D01*
X7238095Y-11849428D01*
X7228571Y-11858952D01*
X7209524Y-11868476D01*
X7190476Y-11868476D01*
X7171428Y-11858952D01*
X7161905Y-11849428D01*
X7152381Y-11830381D01*
X7142857Y-11792286D01*
X7142857Y-11744667D01*
X7152381Y-11706571D01*
X7161905Y-11687524D01*
X7171428Y-11678000D01*
X7190476Y-11668476D01*
X7342857Y-11849428D02*
X7352381Y-11858952D01*
X7342857Y-11868476D01*
X7333333Y-11858952D01*
X7342857Y-11849428D01*
X7342857Y-11868476D01*
X7476190Y-11668476D02*
X7495238Y-11668476D01*
X7514286Y-11678000D01*
X7523809Y-11687524D01*
X7533333Y-11706571D01*
X7542857Y-11744667D01*
X7542857Y-11792286D01*
X7533333Y-11830381D01*
X7523809Y-11849428D01*
X7514286Y-11858952D01*
X7495238Y-11868476D01*
X7476190Y-11868476D01*
X7457143Y-11858952D01*
X7447619Y-11849428D01*
X7438095Y-11830381D01*
X7428571Y-11792286D01*
X7428571Y-11744667D01*
X7438095Y-11706571D01*
X7447619Y-11687524D01*
X7457143Y-11678000D01*
X7476190Y-11668476D01*
X7609524Y-11668476D02*
X7733333Y-11668476D01*
X7666667Y-11744667D01*
X7695238Y-11744667D01*
X7714286Y-11754190D01*
X7723809Y-11763714D01*
X7733333Y-11782762D01*
X7733333Y-11830381D01*
X7723809Y-11849428D01*
X7714286Y-11858952D01*
X7695238Y-11868476D01*
X7638095Y-11868476D01*
X7619048Y-11858952D01*
X7609524Y-11849428D01*
X7828571Y-11868476D02*
X7866667Y-11868476D01*
X7885714Y-11858952D01*
X7895238Y-11849428D01*
X7914286Y-11820857D01*
X7923809Y-11782762D01*
X7923809Y-11706571D01*
X7914286Y-11687524D01*
X7904762Y-11678000D01*
X7885714Y-11668476D01*
X7847619Y-11668476D01*
X7828571Y-11678000D01*
X7819048Y-11687524D01*
X7809524Y-11706571D01*
X7809524Y-11754190D01*
X7819048Y-11773238D01*
X7828571Y-11782762D01*
X7847619Y-11792286D01*
X7885714Y-11792286D01*
X7904762Y-11782762D01*
X7914286Y-11773238D01*
X7923809Y-11754190D01*
X8095238Y-11735143D02*
X8095238Y-11868476D01*
X8047619Y-11658952D02*
X8000000Y-11801809D01*
X8123809Y-11801809D01*
X8190476Y-11668476D02*
X8190476Y-11706571D01*
X8266667Y-11668476D02*
X8266667Y-11706571D01*
X8561905Y-11944667D02*
X8552381Y-11935143D01*
X8533333Y-11906571D01*
X8523810Y-11887524D01*
X8514286Y-11858952D01*
X8504762Y-11811333D01*
X8504762Y-11773238D01*
X8514286Y-11725619D01*
X8523810Y-11697048D01*
X8533333Y-11678000D01*
X8552381Y-11649428D01*
X8561905Y-11639905D01*
X8742857Y-11868476D02*
X8628571Y-11868476D01*
X8685714Y-11868476D02*
X8685714Y-11668476D01*
X8666667Y-11697048D01*
X8647619Y-11716095D01*
X8628571Y-11725619D01*
X8914286Y-11735143D02*
X8914286Y-11868476D01*
X8866667Y-11658952D02*
X8819048Y-11801809D01*
X8942857Y-11801809D01*
X9171429Y-11868476D02*
X9171429Y-11668476D01*
X9257143Y-11868476D02*
X9257143Y-11763714D01*
X9247619Y-11744667D01*
X9228571Y-11735143D01*
X9200000Y-11735143D01*
X9180952Y-11744667D01*
X9171429Y-11754190D01*
X9380952Y-11868476D02*
X9361905Y-11858952D01*
X9352381Y-11849428D01*
X9342857Y-11830381D01*
X9342857Y-11773238D01*
X9352381Y-11754190D01*
X9361905Y-11744667D01*
X9380952Y-11735143D01*
X9409524Y-11735143D01*
X9428571Y-11744667D01*
X9438095Y-11754190D01*
X9447619Y-11773238D01*
X9447619Y-11830381D01*
X9438095Y-11849428D01*
X9428571Y-11858952D01*
X9409524Y-11868476D01*
X9380952Y-11868476D01*
X9561905Y-11868476D02*
X9542857Y-11858952D01*
X9533333Y-11839905D01*
X9533333Y-11668476D01*
X9714286Y-11858952D02*
X9695238Y-11868476D01*
X9657143Y-11868476D01*
X9638095Y-11858952D01*
X9628571Y-11839905D01*
X9628571Y-11763714D01*
X9638095Y-11744667D01*
X9657143Y-11735143D01*
X9695238Y-11735143D01*
X9714286Y-11744667D01*
X9723810Y-11763714D01*
X9723810Y-11782762D01*
X9628571Y-11801809D01*
X9800000Y-11858952D02*
X9819048Y-11868476D01*
X9857143Y-11868476D01*
X9876190Y-11858952D01*
X9885714Y-11839905D01*
X9885714Y-11830381D01*
X9876190Y-11811333D01*
X9857143Y-11801809D01*
X9828571Y-11801809D01*
X9809524Y-11792286D01*
X9800000Y-11773238D01*
X9800000Y-11763714D01*
X9809524Y-11744667D01*
X9828571Y-11735143D01*
X9857143Y-11735143D01*
X9876190Y-11744667D01*
X9952381Y-11944667D02*
X9961905Y-11935143D01*
X9980952Y-11906571D01*
X9990476Y-11887524D01*
X10000000Y-11858952D01*
X10009524Y-11811333D01*
X10009524Y-11773238D01*
X10000000Y-11725619D01*
X9990476Y-11697048D01*
X9980952Y-11678000D01*
X9961905Y-11649428D01*
X9952381Y-11639905D01*
D15*
X4975063Y-12078063D02*
X4975063Y-12005937D01*
X4902937Y-12005937D01*
X4902937Y-12078063D01*
X4975063Y-12078063D01*
D11*
X5352381Y-12132476D02*
X5238095Y-12132476D01*
X5295238Y-12132476D02*
X5295238Y-11932476D01*
X5276190Y-11961048D01*
X5257143Y-11980095D01*
X5238095Y-11989619D01*
X5438095Y-12113428D02*
X5447619Y-12122952D01*
X5438095Y-12132476D01*
X5428571Y-12122952D01*
X5438095Y-12113428D01*
X5438095Y-12132476D01*
X5571429Y-11932476D02*
X5590476Y-11932476D01*
X5609524Y-11942000D01*
X5619048Y-11951524D01*
X5628571Y-11970571D01*
X5638095Y-12008667D01*
X5638095Y-12056286D01*
X5628571Y-12094381D01*
X5619048Y-12113428D01*
X5609524Y-12122952D01*
X5590476Y-12132476D01*
X5571429Y-12132476D01*
X5552381Y-12122952D01*
X5542857Y-12113428D01*
X5533333Y-12094381D01*
X5523810Y-12056286D01*
X5523810Y-12008667D01*
X5533333Y-11970571D01*
X5542857Y-11951524D01*
X5552381Y-11942000D01*
X5571429Y-11932476D01*
X5714286Y-11951524D02*
X5723809Y-11942000D01*
X5742857Y-11932476D01*
X5790476Y-11932476D01*
X5809524Y-11942000D01*
X5819048Y-11951524D01*
X5828571Y-11970571D01*
X5828571Y-11989619D01*
X5819048Y-12018190D01*
X5704762Y-12132476D01*
X5828571Y-12132476D01*
X5952381Y-11932476D02*
X5971428Y-11932476D01*
X5990476Y-11942000D01*
X6000000Y-11951524D01*
X6009524Y-11970571D01*
X6019048Y-12008667D01*
X6019048Y-12056286D01*
X6009524Y-12094381D01*
X6000000Y-12113428D01*
X5990476Y-12122952D01*
X5971428Y-12132476D01*
X5952381Y-12132476D01*
X5933333Y-12122952D01*
X5923809Y-12113428D01*
X5914286Y-12094381D01*
X5904762Y-12056286D01*
X5904762Y-12008667D01*
X5914286Y-11970571D01*
X5923809Y-11951524D01*
X5933333Y-11942000D01*
X5952381Y-11932476D01*
X6104762Y-12132476D02*
X6104762Y-11999143D01*
X6104762Y-12018190D02*
X6114286Y-12008667D01*
X6133333Y-11999143D01*
X6161905Y-11999143D01*
X6180952Y-12008667D01*
X6190476Y-12027714D01*
X6190476Y-12132476D01*
X6190476Y-12027714D02*
X6200000Y-12008667D01*
X6219048Y-11999143D01*
X6247619Y-11999143D01*
X6266667Y-12008667D01*
X6276190Y-12027714D01*
X6276190Y-12132476D01*
X6371428Y-12132476D02*
X6371428Y-11999143D01*
X6371428Y-12018190D02*
X6380952Y-12008667D01*
X6400000Y-11999143D01*
X6428571Y-11999143D01*
X6447619Y-12008667D01*
X6457143Y-12027714D01*
X6457143Y-12132476D01*
X6457143Y-12027714D02*
X6466667Y-12008667D01*
X6485714Y-11999143D01*
X6514286Y-11999143D01*
X6533333Y-12008667D01*
X6542857Y-12027714D01*
X6542857Y-12132476D01*
X6933333Y-11922952D02*
X6761905Y-12180095D01*
X7190476Y-11932476D02*
X7209524Y-11932476D01*
X7228571Y-11942000D01*
X7238095Y-11951524D01*
X7247619Y-11970571D01*
X7257143Y-12008667D01*
X7257143Y-12056286D01*
X7247619Y-12094381D01*
X7238095Y-12113428D01*
X7228571Y-12122952D01*
X7209524Y-12132476D01*
X7190476Y-12132476D01*
X7171428Y-12122952D01*
X7161905Y-12113428D01*
X7152381Y-12094381D01*
X7142857Y-12056286D01*
X7142857Y-12008667D01*
X7152381Y-11970571D01*
X7161905Y-11951524D01*
X7171428Y-11942000D01*
X7190476Y-11932476D01*
X7342857Y-12113428D02*
X7352381Y-12122952D01*
X7342857Y-12132476D01*
X7333333Y-12122952D01*
X7342857Y-12113428D01*
X7342857Y-12132476D01*
X7476190Y-11932476D02*
X7495238Y-11932476D01*
X7514286Y-11942000D01*
X7523809Y-11951524D01*
X7533333Y-11970571D01*
X7542857Y-12008667D01*
X7542857Y-12056286D01*
X7533333Y-12094381D01*
X7523809Y-12113428D01*
X7514286Y-12122952D01*
X7495238Y-12132476D01*
X7476190Y-12132476D01*
X7457143Y-12122952D01*
X7447619Y-12113428D01*
X7438095Y-12094381D01*
X7428571Y-12056286D01*
X7428571Y-12008667D01*
X7438095Y-11970571D01*
X7447619Y-11951524D01*
X7457143Y-11942000D01*
X7476190Y-11932476D01*
X7714286Y-11999143D02*
X7714286Y-12132476D01*
X7666667Y-11922952D02*
X7619048Y-12065809D01*
X7742857Y-12065809D01*
X7857143Y-11932476D02*
X7876190Y-11932476D01*
X7895238Y-11942000D01*
X7904762Y-11951524D01*
X7914286Y-11970571D01*
X7923809Y-12008667D01*
X7923809Y-12056286D01*
X7914286Y-12094381D01*
X7904762Y-12113428D01*
X7895238Y-12122952D01*
X7876190Y-12132476D01*
X7857143Y-12132476D01*
X7838095Y-12122952D01*
X7828571Y-12113428D01*
X7819048Y-12094381D01*
X7809524Y-12056286D01*
X7809524Y-12008667D01*
X7819048Y-11970571D01*
X7828571Y-11951524D01*
X7838095Y-11942000D01*
X7857143Y-11932476D01*
X8000000Y-11951524D02*
X8009524Y-11942000D01*
X8028571Y-11932476D01*
X8076190Y-11932476D01*
X8095238Y-11942000D01*
X8104762Y-11951524D01*
X8114286Y-11970571D01*
X8114286Y-11989619D01*
X8104762Y-12018190D01*
X7990476Y-12132476D01*
X8114286Y-12132476D01*
X8190476Y-11932476D02*
X8190476Y-11970571D01*
X8266667Y-11932476D02*
X8266667Y-11970571D01*
X8561905Y-12208667D02*
X8552381Y-12199143D01*
X8533333Y-12170571D01*
X8523810Y-12151524D01*
X8514286Y-12122952D01*
X8504762Y-12075333D01*
X8504762Y-12037238D01*
X8514286Y-11989619D01*
X8523810Y-11961048D01*
X8533333Y-11942000D01*
X8552381Y-11913428D01*
X8561905Y-11903905D01*
X8723810Y-11999143D02*
X8723810Y-12132476D01*
X8676190Y-11922952D02*
X8628571Y-12065809D01*
X8752381Y-12065809D01*
X8809524Y-11932476D02*
X8933333Y-11932476D01*
X8866667Y-12008667D01*
X8895238Y-12008667D01*
X8914286Y-12018190D01*
X8923810Y-12027714D01*
X8933333Y-12046762D01*
X8933333Y-12094381D01*
X8923810Y-12113428D01*
X8914286Y-12122952D01*
X8895238Y-12132476D01*
X8838095Y-12132476D01*
X8819048Y-12122952D01*
X8809524Y-12113428D01*
X9171429Y-12132476D02*
X9171429Y-11932476D01*
X9257143Y-12132476D02*
X9257143Y-12027714D01*
X9247619Y-12008667D01*
X9228571Y-11999143D01*
X9200000Y-11999143D01*
X9180952Y-12008667D01*
X9171429Y-12018190D01*
X9380952Y-12132476D02*
X9361905Y-12122952D01*
X9352381Y-12113428D01*
X9342857Y-12094381D01*
X9342857Y-12037238D01*
X9352381Y-12018190D01*
X9361905Y-12008667D01*
X9380952Y-11999143D01*
X9409524Y-11999143D01*
X9428571Y-12008667D01*
X9438095Y-12018190D01*
X9447619Y-12037238D01*
X9447619Y-12094381D01*
X9438095Y-12113428D01*
X9428571Y-12122952D01*
X9409524Y-12132476D01*
X9380952Y-12132476D01*
X9561905Y-12132476D02*
X9542857Y-12122952D01*
X9533333Y-12103905D01*
X9533333Y-11932476D01*
X9714286Y-12122952D02*
X9695238Y-12132476D01*
X9657143Y-12132476D01*
X9638095Y-12122952D01*
X9628571Y-12103905D01*
X9628571Y-12027714D01*
X9638095Y-12008667D01*
X9657143Y-11999143D01*
X9695238Y-11999143D01*
X9714286Y-12008667D01*
X9723810Y-12027714D01*
X9723810Y-12046762D01*
X9628571Y-12065809D01*
X9800000Y-12122952D02*
X9819048Y-12132476D01*
X9857143Y-12132476D01*
X9876190Y-12122952D01*
X9885714Y-12103905D01*
X9885714Y-12094381D01*
X9876190Y-12075333D01*
X9857143Y-12065809D01*
X9828571Y-12065809D01*
X9809524Y-12056286D01*
X9800000Y-12037238D01*
X9800000Y-12027714D01*
X9809524Y-12008667D01*
X9828571Y-11999143D01*
X9857143Y-11999143D01*
X9876190Y-12008667D01*
X9952381Y-12208667D02*
X9961905Y-12199143D01*
X9980952Y-12170571D01*
X9990476Y-12151524D01*
X10000000Y-12122952D01*
X10009524Y-12075333D01*
X10009524Y-12037238D01*
X10000000Y-11989619D01*
X9990476Y-11961048D01*
X9980952Y-11942000D01*
X9961905Y-11913428D01*
X9952381Y-11903905D01*
D16*
X4930000Y-12366000D02*
X4990000Y-12306000D01*
X4930000Y-12246000D01*
X4870000Y-12306000D01*
X4930000Y-12366000D01*
D11*
X5352381Y-12396476D02*
X5238095Y-12396476D01*
X5295238Y-12396476D02*
X5295238Y-12196476D01*
X5276190Y-12225048D01*
X5257143Y-12244095D01*
X5238095Y-12253619D01*
X5438095Y-12377428D02*
X5447619Y-12386952D01*
X5438095Y-12396476D01*
X5428571Y-12386952D01*
X5438095Y-12377428D01*
X5438095Y-12396476D01*
X5523810Y-12215524D02*
X5533333Y-12206000D01*
X5552381Y-12196476D01*
X5600000Y-12196476D01*
X5619048Y-12206000D01*
X5628571Y-12215524D01*
X5638095Y-12234571D01*
X5638095Y-12253619D01*
X5628571Y-12282190D01*
X5514286Y-12396476D01*
X5638095Y-12396476D01*
X5761905Y-12196476D02*
X5780952Y-12196476D01*
X5800000Y-12206000D01*
X5809524Y-12215524D01*
X5819048Y-12234571D01*
X5828571Y-12272667D01*
X5828571Y-12320286D01*
X5819048Y-12358381D01*
X5809524Y-12377428D01*
X5800000Y-12386952D01*
X5780952Y-12396476D01*
X5761905Y-12396476D01*
X5742857Y-12386952D01*
X5733333Y-12377428D01*
X5723809Y-12358381D01*
X5714286Y-12320286D01*
X5714286Y-12272667D01*
X5723809Y-12234571D01*
X5733333Y-12215524D01*
X5742857Y-12206000D01*
X5761905Y-12196476D01*
X5952381Y-12196476D02*
X5971428Y-12196476D01*
X5990476Y-12206000D01*
X6000000Y-12215524D01*
X6009524Y-12234571D01*
X6019048Y-12272667D01*
X6019048Y-12320286D01*
X6009524Y-12358381D01*
X6000000Y-12377428D01*
X5990476Y-12386952D01*
X5971428Y-12396476D01*
X5952381Y-12396476D01*
X5933333Y-12386952D01*
X5923809Y-12377428D01*
X5914286Y-12358381D01*
X5904762Y-12320286D01*
X5904762Y-12272667D01*
X5914286Y-12234571D01*
X5923809Y-12215524D01*
X5933333Y-12206000D01*
X5952381Y-12196476D01*
X6104762Y-12396476D02*
X6104762Y-12263143D01*
X6104762Y-12282190D02*
X6114286Y-12272667D01*
X6133333Y-12263143D01*
X6161905Y-12263143D01*
X6180952Y-12272667D01*
X6190476Y-12291714D01*
X6190476Y-12396476D01*
X6190476Y-12291714D02*
X6200000Y-12272667D01*
X6219048Y-12263143D01*
X6247619Y-12263143D01*
X6266667Y-12272667D01*
X6276190Y-12291714D01*
X6276190Y-12396476D01*
X6371428Y-12396476D02*
X6371428Y-12263143D01*
X6371428Y-12282190D02*
X6380952Y-12272667D01*
X6400000Y-12263143D01*
X6428571Y-12263143D01*
X6447619Y-12272667D01*
X6457143Y-12291714D01*
X6457143Y-12396476D01*
X6457143Y-12291714D02*
X6466667Y-12272667D01*
X6485714Y-12263143D01*
X6514286Y-12263143D01*
X6533333Y-12272667D01*
X6542857Y-12291714D01*
X6542857Y-12396476D01*
X6933333Y-12186952D02*
X6761905Y-12444095D01*
X7190476Y-12196476D02*
X7209524Y-12196476D01*
X7228571Y-12206000D01*
X7238095Y-12215524D01*
X7247619Y-12234571D01*
X7257143Y-12272667D01*
X7257143Y-12320286D01*
X7247619Y-12358381D01*
X7238095Y-12377428D01*
X7228571Y-12386952D01*
X7209524Y-12396476D01*
X7190476Y-12396476D01*
X7171428Y-12386952D01*
X7161905Y-12377428D01*
X7152381Y-12358381D01*
X7142857Y-12320286D01*
X7142857Y-12272667D01*
X7152381Y-12234571D01*
X7161905Y-12215524D01*
X7171428Y-12206000D01*
X7190476Y-12196476D01*
X7342857Y-12377428D02*
X7352381Y-12386952D01*
X7342857Y-12396476D01*
X7333333Y-12386952D01*
X7342857Y-12377428D01*
X7342857Y-12396476D01*
X7476190Y-12196476D02*
X7495238Y-12196476D01*
X7514286Y-12206000D01*
X7523809Y-12215524D01*
X7533333Y-12234571D01*
X7542857Y-12272667D01*
X7542857Y-12320286D01*
X7533333Y-12358381D01*
X7523809Y-12377428D01*
X7514286Y-12386952D01*
X7495238Y-12396476D01*
X7476190Y-12396476D01*
X7457143Y-12386952D01*
X7447619Y-12377428D01*
X7438095Y-12358381D01*
X7428571Y-12320286D01*
X7428571Y-12272667D01*
X7438095Y-12234571D01*
X7447619Y-12215524D01*
X7457143Y-12206000D01*
X7476190Y-12196476D01*
X7714286Y-12263143D02*
X7714286Y-12396476D01*
X7666667Y-12186952D02*
X7619048Y-12329809D01*
X7742857Y-12329809D01*
X7800000Y-12196476D02*
X7933333Y-12196476D01*
X7847619Y-12396476D01*
X8000000Y-12215524D02*
X8009524Y-12206000D01*
X8028571Y-12196476D01*
X8076190Y-12196476D01*
X8095238Y-12206000D01*
X8104762Y-12215524D01*
X8114286Y-12234571D01*
X8114286Y-12253619D01*
X8104762Y-12282190D01*
X7990476Y-12396476D01*
X8114286Y-12396476D01*
X8190476Y-12196476D02*
X8190476Y-12234571D01*
X8266667Y-12196476D02*
X8266667Y-12234571D01*
X8561905Y-12472667D02*
X8552381Y-12463143D01*
X8533333Y-12434571D01*
X8523810Y-12415524D01*
X8514286Y-12386952D01*
X8504762Y-12339333D01*
X8504762Y-12301238D01*
X8514286Y-12253619D01*
X8523810Y-12225048D01*
X8533333Y-12206000D01*
X8552381Y-12177428D01*
X8561905Y-12167905D01*
X8666667Y-12282190D02*
X8647619Y-12272667D01*
X8638095Y-12263143D01*
X8628571Y-12244095D01*
X8628571Y-12234571D01*
X8638095Y-12215524D01*
X8647619Y-12206000D01*
X8666667Y-12196476D01*
X8704762Y-12196476D01*
X8723810Y-12206000D01*
X8733333Y-12215524D01*
X8742857Y-12234571D01*
X8742857Y-12244095D01*
X8733333Y-12263143D01*
X8723810Y-12272667D01*
X8704762Y-12282190D01*
X8666667Y-12282190D01*
X8647619Y-12291714D01*
X8638095Y-12301238D01*
X8628571Y-12320286D01*
X8628571Y-12358381D01*
X8638095Y-12377428D01*
X8647619Y-12386952D01*
X8666667Y-12396476D01*
X8704762Y-12396476D01*
X8723810Y-12386952D01*
X8733333Y-12377428D01*
X8742857Y-12358381D01*
X8742857Y-12320286D01*
X8733333Y-12301238D01*
X8723810Y-12291714D01*
X8704762Y-12282190D01*
X8980952Y-12396476D02*
X8980952Y-12196476D01*
X9066667Y-12396476D02*
X9066667Y-12291714D01*
X9057143Y-12272667D01*
X9038095Y-12263143D01*
X9009524Y-12263143D01*
X8990476Y-12272667D01*
X8980952Y-12282190D01*
X9190476Y-12396476D02*
X9171429Y-12386952D01*
X9161905Y-12377428D01*
X9152381Y-12358381D01*
X9152381Y-12301238D01*
X9161905Y-12282190D01*
X9171429Y-12272667D01*
X9190476Y-12263143D01*
X9219048Y-12263143D01*
X9238095Y-12272667D01*
X9247619Y-12282190D01*
X9257143Y-12301238D01*
X9257143Y-12358381D01*
X9247619Y-12377428D01*
X9238095Y-12386952D01*
X9219048Y-12396476D01*
X9190476Y-12396476D01*
X9371429Y-12396476D02*
X9352381Y-12386952D01*
X9342857Y-12367905D01*
X9342857Y-12196476D01*
X9523810Y-12386952D02*
X9504762Y-12396476D01*
X9466667Y-12396476D01*
X9447619Y-12386952D01*
X9438095Y-12367905D01*
X9438095Y-12291714D01*
X9447619Y-12272667D01*
X9466667Y-12263143D01*
X9504762Y-12263143D01*
X9523810Y-12272667D01*
X9533333Y-12291714D01*
X9533333Y-12310762D01*
X9438095Y-12329809D01*
X9609524Y-12386952D02*
X9628571Y-12396476D01*
X9666667Y-12396476D01*
X9685714Y-12386952D01*
X9695238Y-12367905D01*
X9695238Y-12358381D01*
X9685714Y-12339333D01*
X9666667Y-12329809D01*
X9638095Y-12329809D01*
X9619048Y-12320286D01*
X9609524Y-12301238D01*
X9609524Y-12291714D01*
X9619048Y-12272667D01*
X9638095Y-12263143D01*
X9666667Y-12263143D01*
X9685714Y-12272667D01*
X9761905Y-12472667D02*
X9771429Y-12463143D01*
X9790476Y-12434571D01*
X9800000Y-12415524D01*
X9809524Y-12386952D01*
X9819048Y-12339333D01*
X9819048Y-12301238D01*
X9809524Y-12253619D01*
X9800000Y-12225048D01*
X9790476Y-12206000D01*
X9771429Y-12177428D01*
X9761905Y-12167905D01*
M02*
