  0
SECTION
  2
HEADER
  9
$ANGBASE
  50
0.0
  9
$ANGDIR
  70
1
  9
$MEASUREMENT
  70
0
  0
ENDSEC
  0
SECTION
  2
TABLES
  0
TABLE
  2
LTYPE
  70
4
  0
LTYPE
  5
40F
  2
CONTINUOUS
  70
0
  3
Solid line
  72
65
  73
0
  40
0.0
  0
LTYPE
  5
410
  2
DASHDOT
 70
0
  3
Dash Dot ____ _ ____ _
 72
65
 73
4
 40
2.0
 49
1.25
 49
-0.25
 49
0.25
 49
-0.25
  0
LTYPE
  5
411
  2
DASHED
 70
0
  3
Dashed __ __ __ __ __
 72
65
 73
2
 40
0.75
 49
0.5
 49
-0.25
  0
LTYPE
  5
43B
  2
DOTTED
 70
0
  3
Dotted .  .  .  .
 72
65
 73
2
 40
0.2
 49
0.0
 49
-0.2
  0
ENDTAB
  0
TABLE
  2
STYLE
  70
4
  0
STYLE
  2
KICAD
  70
0
  40
0
  41
1
  42
1
  50
0
  71
0
  3
isocp.shx
  0
STYLE
  2
KICADB
  70
0
  40
0
  41
1
  42
1
  50
0
  71
0
  3
isocp.shx
  0
STYLE
  2
KICADI
  70
0
  40
0
  41
1
  42
1
  50
15
  71
0
  3
isocp.shx
  0
STYLE
  2
KICADBI
  70
0
  40
0
  41
1
  42
1
  50
15
  71
0
  3
isocp.shx
  0
ENDTAB
  0
TABLE
  2
LAYER
  70
1
  0
LAYER
  2
BLACK
  70
0
  62
7
  6
CONTINUOUS
  0
ENDTAB
  0
ENDSEC
  0
SECTION
  2
ENTITIES
0
LINE
8
BLACK
6
CONTINUOUS
10
5.07874
20
-1.96457
11
5.0915
21
-1.96524
0
LINE
8
BLACK
6
CONTINUOUS
10
5.0915
20
-1.96524
11
5.10412
21
-1.96723
0
LINE
8
BLACK
6
CONTINUOUS
10
5.10412
20
-1.96723
11
5.11645
21
-1.97054
0
LINE
8
BLACK
6
CONTINUOUS
10
5.11645
20
-1.97054
11
5.12838
21
-1.97512
0
LINE
8
BLACK
6
CONTINUOUS
10
5.12838
20
-1.97512
11
5.13976
21
-1.98092
0
LINE
8
BLACK
6
CONTINUOUS
10
5.13976
20
-1.98092
11
5.15048
21
-1.98788
0
LINE
8
BLACK
6
CONTINUOUS
10
5.15048
20
-1.98788
11
5.16041
21
-1.99592
0
LINE
8
BLACK
6
CONTINUOUS
10
5.16041
20
-1.99592
11
5.16944
21
-2.00495
0
LINE
8
BLACK
6
CONTINUOUS
10
5.16944
20
-2.00495
11
5.17748
21
-2.01488
0
LINE
8
BLACK
6
CONTINUOUS
10
5.17748
20
-2.01488
11
5.18444
21
-2.02559
0
LINE
8
BLACK
6
CONTINUOUS
10
5.18444
20
-2.02559
11
5.19024
21
-2.03697
0
LINE
8
BLACK
6
CONTINUOUS
10
5.19024
20
-2.03697
11
5.19481
21
-2.0489
0
LINE
8
BLACK
6
CONTINUOUS
10
5.19481
20
-2.0489
11
5.19812
21
-2.06124
0
LINE
8
BLACK
6
CONTINUOUS
10
5.19812
20
-2.06124
11
5.20012
21
-2.07386
0
LINE
8
BLACK
6
CONTINUOUS
10
5.20012
20
-2.07386
11
5.20079
21
-2.08661
0
LINE
8
BLACK
6
CONTINUOUS
10
5.20079
20
-2.08661
11
5.20079
21
-4.05512
0
LINE
8
BLACK
6
CONTINUOUS
10
5.20079
20
-4.05512
11
5.20012
21
-4.06788
0
LINE
8
BLACK
6
CONTINUOUS
10
5.20012
20
-4.06788
11
5.19812
21
-4.08049
0
LINE
8
BLACK
6
CONTINUOUS
10
5.19812
20
-4.08049
11
5.19481
21
-4.09283
0
LINE
8
BLACK
6
CONTINUOUS
10
5.19481
20
-4.09283
11
5.19024
21
-4.10476
0
LINE
8
BLACK
6
CONTINUOUS
10
5.19024
20
-4.10476
11
5.18444
21
-4.11614
0
LINE
8
BLACK
6
CONTINUOUS
10
5.18444
20
-4.11614
11
5.17748
21
-4.12686
0
LINE
8
BLACK
6
CONTINUOUS
10
5.17748
20
-4.12686
11
5.16944
21
-4.13678
0
LINE
8
BLACK
6
CONTINUOUS
10
5.16944
20
-4.13678
11
5.16041
21
-4.14582
0
LINE
8
BLACK
6
CONTINUOUS
10
5.16041
20
-4.14582
11
5.15048
21
-4.15386
0
LINE
8
BLACK
6
CONTINUOUS
10
5.15048
20
-4.15386
11
5.13976
21
-4.16081
0
LINE
8
BLACK
6
CONTINUOUS
10
5.13976
20
-4.16081
11
5.12838
21
-4.16661
0
LINE
8
BLACK
6
CONTINUOUS
10
5.12838
20
-4.16661
11
5.11645
21
-4.17119
0
LINE
8
BLACK
6
CONTINUOUS
10
5.11645
20
-4.17119
11
5.10412
21
-4.1745
0
LINE
8
BLACK
6
CONTINUOUS
10
5.10412
20
-4.1745
11
5.0915
21
-4.1765
0
LINE
8
BLACK
6
CONTINUOUS
10
5.0915
20
-4.1765
11
5.07874
21
-4.17717
0
LINE
8
BLACK
6
CONTINUOUS
10
5.07874
20
-4.17717
11
2.08661
21
-4.17717
0
LINE
8
BLACK
6
CONTINUOUS
10
2.08661
20
-4.17717
11
2.07386
21
-4.1765
0
LINE
8
BLACK
6
CONTINUOUS
10
2.07386
20
-4.1765
11
2.06124
21
-4.1745
0
LINE
8
BLACK
6
CONTINUOUS
10
2.06124
20
-4.1745
11
2.0489
21
-4.17119
0
LINE
8
BLACK
6
CONTINUOUS
10
2.0489
20
-4.17119
11
2.03697
21
-4.16661
0
LINE
8
BLACK
6
CONTINUOUS
10
2.03697
20
-4.16661
11
2.02559
21
-4.16081
0
LINE
8
BLACK
6
CONTINUOUS
10
2.02559
20
-4.16081
11
2.01488
21
-4.15386
0
LINE
8
BLACK
6
CONTINUOUS
10
2.01488
20
-4.15386
11
2.00495
21
-4.14582
0
LINE
8
BLACK
6
CONTINUOUS
10
2.00495
20
-4.14582
11
1.99592
21
-4.13678
0
LINE
8
BLACK
6
CONTINUOUS
10
1.99592
20
-4.13678
11
1.98788
21
-4.12686
0
LINE
8
BLACK
6
CONTINUOUS
10
1.98788
20
-4.12686
11
1.98092
21
-4.11614
0
LINE
8
BLACK
6
CONTINUOUS
10
1.98092
20
-4.11614
11
1.97512
21
-4.10476
0
LINE
8
BLACK
6
CONTINUOUS
10
1.97512
20
-4.10476
11
1.97054
21
-4.09283
0
LINE
8
BLACK
6
CONTINUOUS
10
1.97054
20
-4.09283
11
1.96723
21
-4.08049
0
LINE
8
BLACK
6
CONTINUOUS
10
1.96723
20
-4.08049
11
1.96524
21
-4.06788
0
LINE
8
BLACK
6
CONTINUOUS
10
1.96524
20
-4.06788
11
1.96457
21
-4.05512
0
LINE
8
BLACK
6
CONTINUOUS
10
1.96457
20
-4.05512
11
1.96457
21
-2.08661
0
LINE
8
BLACK
6
CONTINUOUS
10
1.96457
20
-2.08661
11
1.96524
21
-2.07386
0
LINE
8
BLACK
6
CONTINUOUS
10
1.96524
20
-2.07386
11
1.96723
21
-2.06124
0
LINE
8
BLACK
6
CONTINUOUS
10
1.96723
20
-2.06124
11
1.97054
21
-2.0489
0
LINE
8
BLACK
6
CONTINUOUS
10
1.97054
20
-2.0489
11
1.97512
21
-2.03697
0
LINE
8
BLACK
6
CONTINUOUS
10
1.97512
20
-2.03697
11
1.98092
21
-2.02559
0
LINE
8
BLACK
6
CONTINUOUS
10
1.98092
20
-2.02559
11
1.98788
21
-2.01488
0
LINE
8
BLACK
6
CONTINUOUS
10
1.98788
20
-2.01488
11
1.99592
21
-2.00495
0
LINE
8
BLACK
6
CONTINUOUS
10
1.99592
20
-2.00495
11
2.00495
21
-1.99592
0
LINE
8
BLACK
6
CONTINUOUS
10
2.00495
20
-1.99592
11
2.01488
21
-1.98788
0
LINE
8
BLACK
6
CONTINUOUS
10
2.01488
20
-1.98788
11
2.02559
21
-1.98092
0
LINE
8
BLACK
6
CONTINUOUS
10
2.02559
20
-1.98092
11
2.03697
21
-1.97512
0
LINE
8
BLACK
6
CONTINUOUS
10
2.03697
20
-1.97512
11
2.0489
21
-1.97054
0
LINE
8
BLACK
6
CONTINUOUS
10
2.0489
20
-1.97054
11
2.06124
21
-1.96723
0
LINE
8
BLACK
6
CONTINUOUS
10
2.06124
20
-1.96723
11
2.07386
21
-1.96524
0
LINE
8
BLACK
6
CONTINUOUS
10
2.07386
20
-1.96524
11
2.08661
21
-1.96457
0
LINE
8
BLACK
6
CONTINUOUS
10
2.08661
20
-1.96457
11
5.07874
21
-1.96457
0
LINE
8
BLACK
6
CONTINUOUS
10
2.08661
20
-1.97244
11
2.0802
21
-1.97244
0
LINE
8
BLACK
6
CONTINUOUS
10
2.0802
20
-1.97244
11
2.06746
21
-1.97388
0
LINE
8
BLACK
6
CONTINUOUS
10
2.06746
20
-1.97388
11
2.05496
21
-1.97673
0
LINE
8
BLACK
6
CONTINUOUS
10
2.05496
20
-1.97673
11
2.04285
21
-1.98097
0
LINE
8
BLACK
6
CONTINUOUS
10
2.04285
20
-1.98097
11
2.0313
21
-1.98653
0
LINE
8
BLACK
6
CONTINUOUS
10
2.0313
20
-1.98653
11
2.02044
21
-1.99335
0
LINE
8
BLACK
6
CONTINUOUS
10
2.02044
20
-1.99335
11
2.01042
21
-2.00135
0
LINE
8
BLACK
6
CONTINUOUS
10
2.01042
20
-2.00135
11
2.00135
21
-2.01042
0
LINE
8
BLACK
6
CONTINUOUS
10
2.00135
20
-2.01042
11
1.99335
21
-2.02044
0
LINE
8
BLACK
6
CONTINUOUS
10
1.99335
20
-2.02044
11
1.98653
21
-2.0313
0
LINE
8
BLACK
6
CONTINUOUS
10
1.98653
20
-2.0313
11
1.98097
21
-2.04285
0
LINE
8
BLACK
6
CONTINUOUS
10
1.98097
20
-2.04285
11
1.97673
21
-2.05496
0
LINE
8
BLACK
6
CONTINUOUS
10
1.97673
20
-2.05496
11
1.97388
21
-2.06746
0
LINE
8
BLACK
6
CONTINUOUS
10
1.97388
20
-2.06746
11
1.97244
21
-2.0802
0
LINE
8
BLACK
6
CONTINUOUS
10
1.97244
20
-2.0802
11
1.97244
21
-2.08661
0
LINE
8
BLACK
6
CONTINUOUS
10
1.97244
20
-2.08661
11
1.97244
21
-4.05512
0
LINE
8
BLACK
6
CONTINUOUS
10
1.97244
20
-4.05512
11
1.97244
21
-4.06153
0
LINE
8
BLACK
6
CONTINUOUS
10
1.97244
20
-4.06153
11
1.97388
21
-4.07427
0
LINE
8
BLACK
6
CONTINUOUS
10
1.97388
20
-4.07427
11
1.97673
21
-4.08678
0
LINE
8
BLACK
6
CONTINUOUS
10
1.97673
20
-4.08678
11
1.98097
21
-4.09888
0
LINE
8
BLACK
6
CONTINUOUS
10
1.98097
20
-4.09888
11
1.98653
21
-4.11043
0
LINE
8
BLACK
6
CONTINUOUS
10
1.98653
20
-4.11043
11
1.99335
21
-4.12129
0
LINE
8
BLACK
6
CONTINUOUS
10
1.99335
20
-4.12129
11
2.00135
21
-4.13132
0
LINE
8
BLACK
6
CONTINUOUS
10
2.00135
20
-4.13132
11
2.01042
21
-4.14038
0
LINE
8
BLACK
6
CONTINUOUS
10
2.01042
20
-4.14038
11
2.02044
21
-4.14838
0
LINE
8
BLACK
6
CONTINUOUS
10
2.02044
20
-4.14838
11
2.0313
21
-4.1552
0
LINE
8
BLACK
6
CONTINUOUS
10
2.0313
20
-4.1552
11
2.04285
21
-4.16077
0
LINE
8
BLACK
6
CONTINUOUS
10
2.04285
20
-4.16077
11
2.05496
21
-4.165
0
LINE
8
BLACK
6
CONTINUOUS
10
2.05496
20
-4.165
11
2.06746
21
-4.16786
0
LINE
8
BLACK
6
CONTINUOUS
10
2.06746
20
-4.16786
11
2.0802
21
-4.16929
0
LINE
8
BLACK
6
CONTINUOUS
10
2.0802
20
-4.16929
11
2.08661
21
-4.16929
0
LINE
8
BLACK
6
CONTINUOUS
10
2.08661
20
-4.16929
11
5.07874
21
-4.16929
0
LINE
8
BLACK
6
CONTINUOUS
10
5.07874
20
-4.16929
11
5.08515
21
-4.16929
0
LINE
8
BLACK
6
CONTINUOUS
10
5.08515
20
-4.16929
11
5.0979
21
-4.16786
0
LINE
8
BLACK
6
CONTINUOUS
10
5.0979
20
-4.16786
11
5.1104
21
-4.165
0
LINE
8
BLACK
6
CONTINUOUS
10
5.1104
20
-4.165
11
5.1225
21
-4.16077
0
LINE
8
BLACK
6
CONTINUOUS
10
5.1225
20
-4.16077
11
5.13405
21
-4.1552
0
LINE
8
BLACK
6
CONTINUOUS
10
5.13405
20
-4.1552
11
5.14491
21
-4.14838
0
LINE
8
BLACK
6
CONTINUOUS
10
5.14491
20
-4.14838
11
5.15494
21
-4.14038
0
LINE
8
BLACK
6
CONTINUOUS
10
5.15494
20
-4.14038
11
5.16401
21
-4.13132
0
LINE
8
BLACK
6
CONTINUOUS
10
5.16401
20
-4.13132
11
5.172
21
-4.12129
0
LINE
8
BLACK
6
CONTINUOUS
10
5.172
20
-4.12129
11
5.17882
21
-4.11043
0
LINE
8
BLACK
6
CONTINUOUS
10
5.17882
20
-4.11043
11
5.18439
21
-4.09888
0
LINE
8
BLACK
6
CONTINUOUS
10
5.18439
20
-4.09888
11
5.18862
21
-4.08678
0
LINE
8
BLACK
6
CONTINUOUS
10
5.18862
20
-4.08678
11
5.19148
21
-4.07427
0
LINE
8
BLACK
6
CONTINUOUS
10
5.19148
20
-4.07427
11
5.19291
21
-4.06153
0
LINE
8
BLACK
6
CONTINUOUS
10
5.19291
20
-4.06153
11
5.19291
21
-4.05512
0
LINE
8
BLACK
6
CONTINUOUS
10
5.19291
20
-4.05512
11
5.19291
21
-2.08661
0
LINE
8
BLACK
6
CONTINUOUS
10
5.19291
20
-2.08661
11
5.19291
21
-2.0802
0
LINE
8
BLACK
6
CONTINUOUS
10
5.19291
20
-2.0802
11
5.19148
21
-2.06746
0
LINE
8
BLACK
6
CONTINUOUS
10
5.19148
20
-2.06746
11
5.18862
21
-2.05496
0
LINE
8
BLACK
6
CONTINUOUS
10
5.18862
20
-2.05496
11
5.18439
21
-2.04285
0
LINE
8
BLACK
6
CONTINUOUS
10
5.18439
20
-2.04285
11
5.17882
21
-2.0313
0
LINE
8
BLACK
6
CONTINUOUS
10
5.17882
20
-2.0313
11
5.172
21
-2.02044
0
LINE
8
BLACK
6
CONTINUOUS
10
5.172
20
-2.02044
11
5.16401
21
-2.01042
0
LINE
8
BLACK
6
CONTINUOUS
10
5.16401
20
-2.01042
11
5.15494
21
-2.00135
0
LINE
8
BLACK
6
CONTINUOUS
10
5.15494
20
-2.00135
11
5.14491
21
-1.99335
0
LINE
8
BLACK
6
CONTINUOUS
10
5.14491
20
-1.99335
11
5.13405
21
-1.98653
0
LINE
8
BLACK
6
CONTINUOUS
10
5.13405
20
-1.98653
11
5.1225
21
-1.98097
0
LINE
8
BLACK
6
CONTINUOUS
10
5.1225
20
-1.98097
11
5.1104
21
-1.97673
0
LINE
8
BLACK
6
CONTINUOUS
10
5.1104
20
-1.97673
11
5.0979
21
-1.97388
0
LINE
8
BLACK
6
CONTINUOUS
10
5.0979
20
-1.97388
11
5.08515
21
-1.97244
0
LINE
8
BLACK
6
CONTINUOUS
10
5.08515
20
-1.97244
11
5.07874
21
-1.97244
0
LINE
8
BLACK
6
CONTINUOUS
10
5.07874
20
-1.97244
11
2.08661
21
-1.97244
  0
ENDSEC
  0
EOF
