M48
; DRILL file {KiCad (6.0.2)} date Sun Jan 29 12:52:27 2023
; FORMAT={-:-/ absolute / metric / decimal}
; #@! TF.CreationDate,2023-01-29T12:52:27-08:00
; #@! TF.GenerationSoftware,Kicad,Pcbnew,(6.0.2)
; #@! TF.FileFunction,Plated,1,2,PTH
FMAT,2
METRIC
; #@! TA.AperFunction,Plated,PTH,ViaDrill
T1C0.300
; #@! TA.AperFunction,Plated,PTH,ComponentDrill
T2C0.800
; #@! TA.AperFunction,Plated,PTH,ComponentDrill
T3C1.000
; #@! TA.AperFunction,Plated,PTH,ComponentDrill
T4C1.020
; #@! TA.AperFunction,Plated,PTH,ComponentDrill
T5C1.200
%
G90
G05
T1
X50.9Y-55.965
X50.9Y-81.118
X50.9Y-86.149
X51.215Y-73.239
X51.215Y-89.908
X51.215Y-94.919
X51.215Y-99.93
X51.217Y-68.247
X51.265Y-63.275
X52.35Y-77.685
X53.186Y-105.092
X54.053Y-87.15
X54.288Y-101.3
X54.6Y-63.55
X54.996Y-52.335
X55.268Y-80.287
X55.65Y-63.55
X56.65Y-58.7
X56.7Y-63.55
X57.75Y-63.55
X58.154Y-80.896
X58.161Y-105.1
X58.19Y-80.082
X58.8Y-63.55
X59.003Y-80.047
X59.038Y-79.234
X59.067Y-83.58
X59.083Y-87.15
X59.435Y-101.3
X59.851Y-79.199
X59.887Y-78.385
X60.7Y-78.35
X60.8Y-68.1
X60.8Y-91.7
X60.893Y-50.9
X61.7Y-71.45
X61.7Y-74.4
X61.7Y-95.05
X61.7Y-98.0
X62.0Y-77.55
X62.7Y-67.3
X62.7Y-68.5
X62.7Y-90.9
X62.7Y-92.1
X62.866Y-57.95
X62.976Y-86.747
X63.3Y-67.9
X63.3Y-91.5
X63.308Y-105.1
X64.582Y-101.298
X65.765Y-67.5
X65.765Y-91.1
X65.924Y-50.9
X66.5Y-74.7
X66.5Y-98.3
X67.482Y-56.072
X67.964Y-99.983
X68.05Y-81.6
X68.2Y-71.9
X68.2Y-75.2
X68.2Y-95.5
X68.2Y-98.8
X68.25Y-70.75
X68.25Y-94.35
X68.455Y-105.1
X68.6Y-70.0
X68.6Y-85.75
X68.6Y-93.6
X68.65Y-65.8
X68.65Y-68.3
X68.65Y-89.4
X68.65Y-91.9
X68.725Y-76.287
X68.75Y-62.1
X68.75Y-64.35
X68.75Y-67.05
X68.75Y-87.95
X68.75Y-90.65
X69.0Y-69.25
X69.0Y-92.85
X69.35Y-64.95
X69.35Y-88.55
X69.9Y-69.15
X69.9Y-69.95
X69.9Y-70.75
X69.9Y-71.8
X69.9Y-92.75
X69.9Y-93.55
X69.9Y-94.35
X69.9Y-95.4
X70.15Y-62.4
X70.15Y-63.9
X70.15Y-64.7
X70.15Y-86.05
X70.15Y-87.5
X70.15Y-88.3
X70.75Y-67.05
X70.75Y-90.65
X70.8Y-69.25
X70.8Y-92.85
X70.9Y-65.8
X70.9Y-68.3
X70.9Y-89.4
X70.9Y-91.9
X70.95Y-64.95
X70.95Y-88.55
X70.955Y-50.9
X71.1Y-70.0
X71.1Y-93.6
X71.3Y-64.2
X71.3Y-75.5
X71.3Y-87.8
X71.3Y-99.1
X71.45Y-70.75
X71.45Y-94.35
X71.974Y-77.58
X71.974Y-100.453
X72.239Y-55.273
X72.53Y-58.499
X73.008Y-62.106
X73.345Y-71.352
X73.345Y-94.953
X74.0Y-86.35
X74.05Y-62.75
X74.172Y-85.157
X74.45Y-65.0
X74.45Y-88.6
X74.763Y-103.85
X75.0Y-73.6
X75.0Y-75.8
X75.0Y-97.2
X75.0Y-99.4
X75.501Y-80.1
X75.55Y-69.75
X75.55Y-93.35
X75.75Y-66.85
X75.75Y-90.5
X75.8Y-77.65
X75.8Y-101.25
X76.109Y-58.598
X76.359Y-53.154
X76.999Y-91.219
X77.0Y-67.65
X77.315Y-85.564
X77.349Y-62.069
X77.581Y-65.269
X77.581Y-66.869
X77.581Y-68.369
X77.581Y-69.919
X77.581Y-71.469
X77.581Y-88.869
X77.581Y-90.469
X77.581Y-91.969
X77.581Y-93.519
X77.581Y-95.069
X77.6Y-74.2
X77.6Y-75.45
X77.6Y-97.8
X77.6Y-99.05
X79.429Y-60.198
X79.429Y-83.798
X79.666Y-103.39
X79.863Y-55.025
X80.415Y-79.79
X80.554Y-50.95
X80.831Y-60.269
X80.831Y-83.869
X81.05Y-92.764
X81.084Y-69.164
X81.131Y-76.319
X81.131Y-99.919
X81.531Y-61.969
X81.531Y-85.569
X81.55Y-66.85
X81.55Y-90.45
X82.45Y-94.75
X82.5Y-71.154
X82.5Y-73.2
X82.5Y-96.8
X82.931Y-77.019
X82.931Y-100.619
X83.081Y-102.369
X83.131Y-74.519
X83.131Y-98.119
X83.3Y-63.4
X83.331Y-87.0
X83.8Y-82.15
X83.85Y-58.5
X83.896Y-105.1
X84.7Y-79.4
X84.946Y-54.75
X85.131Y-69.469
X85.131Y-93.069
X85.585Y-50.95
X85.831Y-61.219
X85.831Y-84.819
X86.031Y-66.919
X86.031Y-90.519
X86.881Y-71.319
X86.881Y-94.919
X86.931Y-101.669
X87.563Y-78.69
X87.931Y-67.819
X87.931Y-91.419
X88.031Y-69.869
X88.031Y-93.469
X88.281Y-62.869
X88.281Y-86.469
X88.381Y-60.569
X88.381Y-84.169
X88.831Y-65.519
X88.831Y-89.119
X89.043Y-105.1
X89.55Y-58.6
X89.882Y-77.158
X89.931Y-100.769
X90.143Y-54.75
X90.431Y-97.319
X90.531Y-72.569
X90.531Y-96.169
X90.616Y-50.95
X90.631Y-66.069
X90.631Y-68.569
X90.631Y-89.669
X90.631Y-92.169
X91.488Y-74.211
X91.581Y-102.469
X91.798Y-79.578
X91.9Y-58.9
X91.95Y-76.119
X92.05Y-62.2
X92.224Y-85.675
X92.331Y-99.719
X92.35Y-82.15
X94.181Y-68.419
X94.181Y-69.919
X94.181Y-71.469
X94.181Y-92.019
X94.181Y-93.519
X94.181Y-95.069
X94.19Y-105.1
X95.339Y-54.75
X95.646Y-50.95
X95.999Y-62.123
X96.0Y-86.0
X96.3Y-64.7
X96.5Y-91.2
X96.551Y-102.97
X96.689Y-98.774
X97.18Y-86.22
X97.191Y-92.756
X97.325Y-66.844
X97.363Y-80.982
X97.643Y-89.724
X98.1Y-57.499
X98.7Y-60.75
X98.7Y-78.2
X99.337Y-105.1
X99.7Y-76.192
X100.088Y-84.465
X100.387Y-92.76
X100.677Y-50.95
X100.762Y-82.296
X101.259Y-56.799
X101.259Y-64.419
X101.259Y-88.664
X101.259Y-101.912
X101.266Y-69.568
X101.288Y-79.835
X101.298Y-67.463
X101.33Y-95.204
X101.45Y-60.95
X101.75Y-72.794
X105.708Y-50.95
X109.05Y-105.1
X109.702Y-52.804
X109.75Y-61.538
X109.75Y-66.569
X109.75Y-71.6
X109.75Y-76.63
X109.75Y-86.756
X110.883Y-57.875
X110.942Y-90.65
X111.536Y-80.921
X113.555Y-85.77
X114.643Y-52.578
X115.849Y-57.875
X116.027Y-90.65
X117.99Y-54.607
X118.4Y-93.603
X118.4Y-98.688
X118.651Y-88.036
X119.4Y-90.2
X119.65Y-104.05
X120.84Y-58.129
X120.84Y-66.718
X120.84Y-79.419
X120.84Y-91.636
X120.84Y-96.657
X121.262Y-50.9
X122.51Y-54.145
X126.14Y-56.201
X126.14Y-62.743
X126.14Y-67.932
X126.14Y-75.442
X126.14Y-80.631
X126.14Y-88.014
X126.14Y-94.316
X127.038Y-52.235
X127.084Y-102.133
X127.631Y-105.1
X128.029Y-91.249
X129.816Y-89.7
X129.911Y-54.893
X131.012Y-102.378
X131.1Y-61.174
X131.1Y-66.205
X131.1Y-71.236
X131.1Y-76.266
X131.1Y-81.297
X131.1Y-86.328
X131.1Y-93.269
X131.1Y-98.355
T2
X65.3Y-56.496
X65.3Y-59.996
X65.3Y-80.096
X65.3Y-83.596
T3
X57.95Y-103.6
X59.215Y-58.05
X59.215Y-61.55
X59.215Y-66.9
X59.215Y-70.4
X59.215Y-73.9
X59.215Y-90.5
X59.215Y-94.0
X59.215Y-97.5
X66.85Y-103.6
X69.765Y-66.285
X69.765Y-67.785
X69.765Y-89.885
X69.765Y-91.385
T4
X104.81Y-55.895
X104.81Y-58.435
X104.81Y-60.975
X104.81Y-63.515
X104.81Y-66.055
X104.81Y-68.595
X104.81Y-71.135
X104.81Y-73.675
X104.81Y-76.215
X104.81Y-78.755
X104.81Y-81.295
X104.81Y-83.835
X104.81Y-86.375
X104.81Y-88.915
X104.81Y-91.455
X104.81Y-93.995
X104.81Y-96.535
X104.81Y-99.075
X104.81Y-101.615
X104.81Y-104.155
X111.16Y-56.125
X113.7Y-56.125
X116.24Y-56.125
X122.59Y-55.895
X122.59Y-58.435
X122.59Y-60.975
X122.59Y-63.515
X122.59Y-66.055
X122.59Y-68.595
X122.59Y-71.135
X122.59Y-73.675
X122.59Y-76.215
X122.59Y-78.755
X122.59Y-81.295
X122.59Y-83.835
X122.59Y-86.375
X122.59Y-88.915
X122.59Y-91.455
X122.59Y-93.995
X122.59Y-96.535
X122.59Y-99.075
X122.59Y-101.615
X122.59Y-104.155
T5
X53.615Y-58.05
X53.615Y-61.55
X53.615Y-66.9
X53.615Y-70.4
X53.615Y-73.9
X53.615Y-90.5
X53.615Y-94.0
X53.615Y-97.5
T0
M30
